<?xml version="1.0" encoding="utf-8"?>
<svg width="512" height="512" viewBox="0 0 512 512" xmlns="http://www.w3.org/2000/svg"
     xmlns:xlink="http://www.w3.org/1999/xlink">
    <defs>
    <svg id="angel" xmlns="http://www.w3.org/2000/svg" viewBox="0 0 192 192"><defs><style>.cls-1{fill:#fff;}.cls-2,.cls-5{fill:#263238;}.cls-2{opacity:0;}.cls-3{fill:#ffca28;}.cls-4{fill:#fff176;}.cls-6{fill:#e53935;}</style></defs><title>angel</title><g id="angel"><g id="angel-2" data-name="angel"><circle id="label" class="cls-1" cx="96" cy="94" r="50"/><g id="shadow"><path class="cls-2" d="M179.19,122.63l-.34-.34-.34-.34-.34-.34-.34-.34-.34-.34-.34-.34-.34-.34-.34-.34-.34-.34-.34-.34-.34-.34-.34-.34-.34-.34-.34-.34-.34-.34-.34-.34-.34-.34-.34-.34-.34-.34-.34-.34-.34-.34-.34-.34-.34-.34-.34-.34-.34-.34-.34-.34-.34-.34-.34-.34-.34-.34-.34-.34-.34-.34-.34-.34-.34-.34-.34-.34-.34-.34-.34-.34-.34-.34-.34-.34-.34-.34-.34-.34-.34-.34-.34-.34-.34-.34-.34-.34-.34-.34-.34-.34-.34-.34-.34-.34-.34-.34-.34-.34-.34-.34-.34-.34-.34-.34-.34-.34-.34-.34-.34-.34-.34-.34-.34-.34-.34-.34-.34-.34-.34-.34-.34-.34-.34-.34-.34-.34-.34-.34-.34-.34-.34-.34-.34-.34-.34-.34-.34-.34-.34-.34-.34-.34-.34-.34-.34-.34-.34-.34-.34-.34-.34-.34-.34-.34-.34-.34-.34-.34-.34-.34-.34-.34-.34-.34-.34-.34-.34-.34-.34-.34-.34-.34-.34-.34-.34-.34L149,92.4l-.34-.34-.34-.34L148,91.4l-.34-.34-.34-.34-.34-.34-.34-.34-.34-.34-.34-.34L145.6,89l-.34-.34-.34-.34L144.6,88l-.34-.34-.34-.34-.34-.34-.34-.34-.34-.34-.34-.34-.34-.34-.34-.34-.34-.34-.34-.34-.34-.34-.34-.34-.34-.34-.34-.34-.34-.34-.34-.34-.34-.34-.34-.34-.34-.34-.34-.34-.34-.34-.34-.34-.34-.34-.34-.34-.34-.34-.34-.34-.34-.34-.34-.34-.34-.34-.34-.34-.34-.34-.34-.34-.34-.34-.34-.34-.34-.34-.34-.34-.34-.34-.34-.34-.34-.34-.34-.34-.34-.34-.34-.34-.34-.34-.34-.34-.34-.34-.34-.34-.34-.34-.34-.34-.34-.34-.34-.34-.34-.34-.34-.34-.34-.34-.34-.34-.34-.34-.34-.34-.34-.34-.34-.34-.34-.34-.34-.34a40,40,0,1,0-56.56,56.56l.34.34.34.34.34.34.34.34.34.34.34.34.34.34.34.34.34.34.34.34.34.34.34.34.34.34.34.34.34.34.34.34.34.34.34.34.34.34.34.34.34.34.34.34.34.34.34.34.34.34.34.34.34.34.34.34.34.34.34.34.34.34.34.34.34.34.34.34.34.34.34.34.34.34.34.34.34.34.34.34.34.34.34.34.34.34.34.34.34.34.34.34.34.34.34.34.34.34.34.34.34.34.34.34.34.34.34.34.34.34.34.34.34.34.34.34.34.34.34.34.34.34.34.34.34.34.34.34.34.34.34.34.34.34.34.34.34.34.34.34.34.34.34.34.34.34.34.34.34.34.34.34.34.34.34.34.34.34.34.34.34.34.34.34.34.34.34.34.34.34.34.34.34.34.34.34.34.34.34.34.34.34.34.34.34.34.34.34.34.34.34.34.34.34.34.34.34.34.34.34.34.34.34.34.34.34.34.34.34.34.34.34.34.34.34.34.34.34.34.34.34.34.34.34.34.34.34.34.34.34.34.34.34.34.34.34.34.34.34.34.34.34.34.34.34.34.34.34.34.34.34.34.34.34.34.34.34.34.34.34.34.34.34.34.34.34.34.34.34.34.34.34.34.34.34.34.34.34.34.34.34.34.34.34.34.34.34.34.34.34.34.34.34.34.34.34.34.34.34.34.34.34.34.34.34.34.34.34.34.34.34.34.34.34.34.34.34.34.34.34.34.34.34.34.34.34.34.34.2.2a88.21,88.21,0,0,0,56.56-56.56l-.2-.2Z"/></g><g id="angel-3" data-name="angel"><path class="cls-3" d="M136,96A40,40,0,1,1,96,56a40,40,0,0,1,40,40"/><path class="cls-4" d="M96,72.5c-16,0-28-4.95-28-11.5S80,49.5,96,49.5s28,4.94,28,11.5S112,72.5,96,72.5Zm0-19.15c-13.48,0-23.56,4-23.56,7.65S82.52,68.65,96,68.65s23.56-4,23.56-7.65S109.48,53.35,96,53.35Z"/><path class="cls-5" d="M90.16,92.64a1.84,1.84,0,0,1-1.84-1.84,6.31,6.31,0,1,0-12.62,0,1.84,1.84,0,0,1-3.69,0,10,10,0,1,1,20,0,1.84,1.84,0,0,1-1.84,1.84Z"/><path class="cls-5" d="M118.15,92.64a1.84,1.84,0,0,1-1.84-1.84,6.31,6.31,0,1,0-12.62,0,1.84,1.84,0,0,1-3.69,0,10,10,0,1,1,20,0,1.84,1.84,0,0,1-1.85,1.84Z"/><path class="cls-6" d="M113.45,103a1.67,1.67,0,0,0-1.38-.11,2,2,0,0,0-1.13,1.13c-2.7,6.72-8.57,11.07-14.94,11.07S83.77,110.71,81.06,104a2,2,0,0,0-1.12-1.12,1.67,1.67,0,0,0-1.38.1,2.19,2.19,0,0,0-.89,2.72C81,113.89,88.16,119.2,96,119.2s15-5.31,18.34-13.52A2.2,2.2,0,0,0,113.45,103Z"/></g></g></g></svg>  
    <svg id="boo" xmlns="http://www.w3.org/2000/svg" viewBox="0 0 192 192"><defs><style>.cls-1{fill:#ff6f00;}.cls-2,.cls-6{fill:#263238;}.cls-2{opacity:0;}.cls-3{fill:#ffca28;}.cls-4{fill:#e53935;}.cls-5{fill:#fff;}</style></defs><title>boo</title><g id="boo"><g id="boo-2" data-name="boo"><circle id="label" class="cls-1" cx="96" cy="94" r="50"/><g id="shadow"><path class="cls-2" d="M179.19,122.63l-.34-.34-.34-.34-.34-.34-.34-.34-.34-.34-.34-.34-.34-.34-.34-.34-.34-.34-.34-.34-.34-.34-.34-.34-.34-.34-.34-.34-.34-.34-.34-.34-.34-.34-.34-.34-.34-.34-.34-.34-.34-.34-.34-.34-.34-.34-.34-.34-.34-.34-.34-.34-.34-.34-.34-.34-.34-.34-.34-.34-.34-.34-.34-.34-.34-.34-.34-.34-.34-.34-.34-.34-.34-.34-.34-.34-.34-.34-.34-.34-.34-.34-.34-.34-.34-.34-.34-.34-.34-.34-.34-.34-.34-.34-.34-.34-.34-.34-.34-.34-.34-.34-.34-.34-.34-.34-.34-.34-.34-.34-.34-.34-.34-.34-.34-.34-.34-.34-.34-.34-.34-.34-.34-.34-.34-.34-.34-.34-.34-.34-.34-.34-.34-.34-.34-.34-.34-.34-.34-.34-.34-.34-.34-.34-.34-.34-.34-.34-.34-.34-.34-.34-.34-.34-.34-.34-.34-.34-.34-.34-.34-.34-.34-.34-.34-.34-.34-.34-.34-.34-.34-.34-.34-.34-.34-.34-.34-.34L149,92.4l-.34-.34-.34-.34L148,91.4l-.34-.34-.34-.34-.34-.34-.34-.34-.34-.34-.34-.34L145.6,89l-.34-.34-.34-.34L144.6,88l-.34-.34-.34-.34-.34-.34-.34-.34-.34-.34-.34-.34-.34-.34-.34-.34-.34-.34-.34-.34-.34-.34-.34-.34-.34-.34-.34-.34-.34-.34-.34-.34-.34-.34-.34-.34-.34-.34-.34-.34-.34-.34-.34-.34-.34-.34-.34-.34-.34-.34-.34-.34-.34-.34-.34-.34-.34-.34-.34-.34-.34-.34-.34-.34-.34-.34-.34-.34-.34-.34-.34-.34-.34-.34-.34-.34-.34-.34-.34-.34-.34-.34-.34-.34-.34-.34-.34-.34-.34-.34-.34-.34-.34-.34-.34-.34-.34-.34-.34-.34-.34-.34-.34-.34-.34-.34-.34-.34-.34-.34-.34-.34-.34-.34-.34-.34-.34-.34-.34-.34a40,40,0,1,0-56.56,56.56l.34.34.34.34.34.34.34.34.34.34.34.34.34.34.34.34.34.34.34.34.34.34.34.34.34.34.34.34.34.34.34.34.34.34.34.34.34.34.34.34.34.34.34.34.34.34.34.34.34.34.34.34.34.34.34.34.34.34.34.34.34.34.34.34.34.34.34.34.34.34.34.34.34.34.34.34.34.34.34.34.34.34.34.34.34.34.34.34.34.34.34.34.34.34.34.34.34.34.34.34.34.34.34.34.34.34.34.34.34.34.34.34.34.34.34.34.34.34.34.34.34.34.34.34.34.34.34.34.34.34.34.34.34.34.34.34.34.34.34.34.34.34.34.34.34.34.34.34.34.34.34.34.34.34.34.34.34.34.34.34.34.34.34.34.34.34.34.34.34.34.34.34.34.34.34.34.34.34.34.34.34.34.34.34.34.34.34.34.34.34.34.34.34.34.34.34.34.34.34.34.34.34.34.34.34.34.34.34.34.34.34.34.34.34.34.34.34.34.34.34.34.34.34.34.34.34.34.34.34.34.34.34.34.34.34.34.34.34.34.34.34.34.34.34.34.34.34.34.34.34.34.34.34.34.34.34.34.34.34.34.34.34.34.34.34.34.34.34.34.34.34.34.34.34.34.34.34.34.34.34.34.34.34.34.34.34.34.34.34.34.34.34.34.34.34.34.34.34.34.34.34.34.34.34.34.34.34.34.34.34.34.34.34.34.34.34.34.34.34.34.34.34.34.34.34.34.34.34.2.2a88.21,88.21,0,0,0,56.56-56.56l-.2-.2Z"/></g><g id="boo-3" data-name="boo"><path class="cls-3" d="M136,96A40,40,0,1,1,96,56a40,40,0,0,1,40,40"/><path class="cls-4" d="M106.64,107.37H85.36a11.5,11.5,0,1,0,21.28,0Z"/><path class="cls-5" d="M106.64,107.37a10.91,10.91,0,0,0-.71-1.43l-.11-.18a11.66,11.66,0,0,0-2-2.41l-.19-.17a11.84,11.84,0,0,0-1.19-.95h0a11.2,11.2,0,0,0-1.31-.76l-.3-.14a11.61,11.61,0,0,0-1.39-.55h0a11.23,11.23,0,0,0-1.49-.35l-.37-.06a10.29,10.29,0,0,0-3.15,0l-.37.06a11.12,11.12,0,0,0-1.49.35h0a11.69,11.69,0,0,0-1.38.55l-.3.14a11.4,11.4,0,0,0-1.32.76h0a11.32,11.32,0,0,0-1.19.95l-.19.17a11.47,11.47,0,0,0-2,2.41l-.11.18a11.69,11.69,0,0,0-.71,1.43h21.28Z"/><path class="cls-5" d="M69,79.44A10.67,10.67,0,1,1,79.67,90.11,10.67,10.67,0,0,1,69,79.44"/><path class="cls-6" d="M79.66,84.87a3.64,3.64,0,1,1,3.64,3.64,3.63,3.63,0,0,1-3.64-3.64"/><path class="cls-5" d="M123,79.44a10.67,10.67,0,1,0-10.67,10.67A10.67,10.67,0,0,0,123,79.44"/><path class="cls-6" d="M112.34,84.87a3.64,3.64,0,1,0-3.64,3.64,3.64,3.64,0,0,0,3.64-3.64"/></g></g></g></svg>
    <svg id="cool" xmlns="http://www.w3.org/2000/svg" viewBox="0 0 192 192"><defs><style>.cls-1{fill:#ec407a;}.cls-2{fill:#263238;opacity:0;}.cls-3{fill:#ffca28;}.cls-4{fill:yellowgreen;}.cls-5{fill:#0277bd;}.cls-6{fill:#4fc3f7;}.cls-7{fill:#e53935;}.cls-8{fill:#fff;}</style></defs><title>cool</title><g id="cool"><g id="cool-2" data-name="cool"><circle id="label" class="cls-1" cx="96" cy="94" r="50"/><g id="shadow"><path class="cls-2" d="M179.19,122.63l-.34-.34-.34-.34-.34-.34-.34-.34-.34-.34-.34-.34-.34-.34-.34-.34-.34-.34-.34-.34-.34-.34-.34-.34-.34-.34-.34-.34-.34-.34-.34-.34-.34-.34-.34-.34-.34-.34-.34-.34-.34-.34-.34-.34-.34-.34-.34-.34-.34-.34-.34-.34-.34-.34-.34-.34-.34-.34-.34-.34-.34-.34-.34-.34-.34-.34-.34-.34-.34-.34-.34-.34-.34-.34-.34-.34-.34-.34-.34-.34-.34-.34-.34-.34-.34-.34-.34-.34-.34-.34-.34-.34-.34-.34-.34-.34-.34-.34-.34-.34-.34-.34-.34-.34-.34-.34-.34-.34-.34-.34-.34-.34-.34-.34-.34-.34-.34-.34-.34-.34-.34-.34-.34-.34-.34-.34-.34-.34-.34-.34-.34-.34-.34-.34-.34-.34-.34-.34-.34-.34-.34-.34-.34-.34-.34-.34-.34-.34-.34-.34-.34-.34-.34-.34-.34-.34-.34-.34-.34-.34-.34-.34-.34-.34-.34-.34-.34-.34-.34-.34-.34-.34-.34-.34-.34-.34-.34-.34L149,92.4l-.34-.34-.34-.34L148,91.4l-.34-.34-.34-.34-.34-.34-.34-.34-.34-.34-.34-.34L145.6,89l-.34-.34-.34-.34L144.6,88l-.34-.34-.34-.34-.34-.34-.34-.34-.34-.34-.34-.34-.34-.34-.34-.34-.34-.34-.34-.34-.34-.34-.34-.34-.34-.34-.34-.34-.34-.34-.34-.34-.34-.34-.34-.34-.34-.34-.34-.34-.34-.34-.34-.34-.34-.34-.34-.34-.34-.34-.34-.34-.34-.34-.34-.34-.34-.34-.34-.34-.34-.34-.34-.34-.34-.34-.34-.34-.34-.34-.34-.34-.34-.34-.34-.34-.34-.34-.34-.34-.34-.34-.34-.34-.34-.34-.34-.34-.34-.34-.34-.34-.34-.34-.34-.34-.34-.34-.34-.34-.34-.34-.34-.34-.34-.34-.34-.34-.34-.34-.34-.34-.34-.34-.34-.34-.34-.34-.34-.34a40,40,0,1,0-56.56,56.56l.34.34.34.34.34.34.34.34.34.34.34.34.34.34.34.34.34.34.34.34.34.34.34.34.34.34.34.34.34.34.34.34.34.34.34.34.34.34.34.34.34.34.34.34.34.34.34.34.34.34.34.34.34.34.34.34.34.34.34.34.34.34.34.34.34.34.34.34.34.34.34.34.34.34.34.34.34.34.34.34.34.34.34.34.34.34.34.34.34.34.34.34.34.34.34.34.34.34.34.34.34.34.34.34.34.34.34.34.34.34.34.34.34.34.34.34.34.34.34.34.34.34.34.34.34.34.34.34.34.34.34.34.34.34.34.34.34.34.34.34.34.34.34.34.34.34.34.34.34.34.34.34.34.34.34.34.34.34.34.34.34.34.34.34.34.34.34.34.34.34.34.34.34.34.34.34.34.34.34.34.34.34.34.34.34.34.34.34.34.34.34.34.34.34.34.34.34.34.34.34.34.34.34.34.34.34.34.34.34.34.34.34.34.34.34.34.34.34.34.34.34.34.34.34.34.34.34.34.34.34.34.34.34.34.34.34.34.34.34.34.34.34.34.34.34.34.34.34.34.34.34.34.34.34.34.34.34.34.34.34.34.34.34.34.34.34.34.34.34.34.34.34.34.34.34.34.34.34.34.34.34.34.34.34.34.34.34.34.34.34.34.34.34.34.34.34.34.34.34.34.34.34.34.34.34.34.34.34.34.34.34.34.34.34.34.34.34.34.34.34.34.34.34.34.34.34.34.34.2.2a88.21,88.21,0,0,0,56.56-56.56l-.2-.2Z"/></g><g id="cool-3" data-name="cool"><path class="cls-3" d="M136,96A40,40,0,1,1,96,56a40,40,0,0,1,40,40"/><circle class="cls-4" cx="77.2" cy="82.92" r="14.46"/><path class="cls-5" d="M77.2,99.12a16.2,16.2,0,1,1,16.2-16.2,16.22,16.22,0,0,1-16.2,16.2Zm0-28.93A12.73,12.73,0,1,0,89.93,82.92,12.75,12.75,0,0,0,77.2,70.19Z"/><path class="cls-4" d="M129.27,82.92A14.46,14.46,0,1,1,114.8,68.46,14.46,14.46,0,0,1,129.27,82.92Z"/><path class="cls-5" d="M114.8,99.12A16.2,16.2,0,1,1,131,82.92a16.22,16.22,0,0,1-16.2,16.2Zm0-28.93a12.73,12.73,0,1,0,12.73,12.73A12.75,12.75,0,0,0,114.8,70.19Z"/><path class="cls-5" d="M99.63,82.59H92.45a1.73,1.73,0,0,1,0-3.47h7.18a1.73,1.73,0,0,1,0,3.47Z"/><path class="cls-6" d="M71.33,85.5a1.73,1.73,0,0,1-1.2-3l4.51-4.32A1.73,1.73,0,0,1,77,80.69L72.52,85a1.73,1.73,0,0,1-1.2.48Z"/><path class="cls-6" d="M77.35,88.38a1.73,1.73,0,0,1-1.2-3l7.53-7.2a1.73,1.73,0,0,1,2.4,2.51l-7.53,7.2a1.73,1.73,0,0,1-1.2.48Z"/><path class="cls-6" d="M107.13,85.5a1.73,1.73,0,0,1-1.2-3l4.52-4.32a1.73,1.73,0,0,1,2.4,2.51L108.32,85a1.73,1.73,0,0,1-1.2.48Z"/><path class="cls-6" d="M113.15,88.38a1.73,1.73,0,0,1-1.2-3l7.53-7.2a1.73,1.73,0,1,1,2.4,2.51l-7.53,7.2a1.73,1.73,0,0,1-1.2.48Z"/><path class="cls-7" d="M115.5,110.91H76a21.15,21.15,0,0,0,19.75,14.37c10.17,0,18.6-7.77,20.25-16.35A17.75,17.75,0,0,1,115.5,110.91Z"/><path class="cls-8" d="M116.19,108.81c.05-.27.1-.55.14-.83s.06-.41.08-.62c0-.51.09-1,.09-1.55h-41c0,.52,0,1,.09,1.55,0,.2,0,.41.08.62s.09.57.15.85a18.24,18.24,0,0,0,.47,1.86l0,.09h39.38A17.7,17.7,0,0,0,116.19,108.81Z"/></g></g></g></svg>
    <svg id="dead" xmlns="http://www.w3.org/2000/svg" viewBox="0 0 192 192"><defs><style>.cls-1{fill:#ff8f00;}.cls-2,.cls-4{fill:#263238;}.cls-2{opacity:0;}.cls-3{fill:#ffca28;}.cls-5{fill:#e53935;}.cls-6{fill:#b71c1c;}.cls-7{fill:#253237;}</style></defs><title>dead</title><g id="dead"><g id="dead-2" data-name="dead"><circle id="label" class="cls-1" cx="96" cy="94" r="50"/><g id="shadow"><path class="cls-2" d="M179.19,122.63l-.34-.34-.34-.34-.34-.34-.34-.34-.34-.34-.34-.34-.34-.34-.34-.34-.34-.34-.34-.34-.34-.34-.34-.34-.34-.34-.34-.34-.34-.34-.34-.34-.34-.34-.34-.34-.34-.34-.34-.34-.34-.34-.34-.34-.34-.34-.34-.34-.34-.34-.34-.34-.34-.34-.34-.34-.34-.34-.34-.34-.34-.34-.34-.34-.34-.34-.34-.34-.34-.34-.34-.34-.34-.34-.34-.34-.34-.34-.34-.34-.34-.34-.34-.34-.34-.34-.34-.34-.34-.34-.34-.34-.34-.34-.34-.34-.34-.34-.34-.34-.34-.34-.34-.34-.34-.34-.34-.34-.34-.34-.34-.34-.34-.34-.34-.34-.34-.34-.34-.34-.34-.34-.34-.34-.34-.34-.34-.34-.34-.34-.34-.34-.34-.34-.34-.34-.34-.34-.34-.34-.34-.34-.34-.34-.34-.34-.34-.34-.34-.34-.34-.34-.34-.34-.34-.34-.34-.34-.34-.34-.34-.34-.34-.34-.34-.34-.34-.34-.34-.34-.34-.34-.34-.34-.34-.34-.34-.34L149,92.4l-.34-.34-.34-.34L148,91.4l-.34-.34-.34-.34-.34-.34-.34-.34-.34-.34-.34-.34L145.6,89l-.34-.34-.34-.34L144.6,88l-.34-.34-.34-.34-.34-.34-.34-.34-.34-.34-.34-.34-.34-.34-.34-.34-.34-.34-.34-.34-.34-.34-.34-.34-.34-.34-.34-.34-.34-.34-.34-.34-.34-.34-.34-.34-.34-.34-.34-.34-.34-.34-.34-.34-.34-.34-.34-.34-.34-.34-.34-.34-.34-.34-.34-.34-.34-.34-.34-.34-.34-.34-.34-.34-.34-.34-.34-.34-.34-.34-.34-.34-.34-.34-.34-.34-.34-.34-.34-.34-.34-.34-.34-.34-.34-.34-.34-.34-.34-.34-.34-.34-.34-.34-.34-.34-.34-.34-.34-.34-.34-.34-.34-.34-.34-.34-.34-.34-.34-.34-.34-.34-.34-.34-.34-.34-.34-.34-.34-.34a40,40,0,1,0-56.56,56.56l.34.34.34.34.34.34.34.34.34.34.34.34.34.34.34.34.34.34.34.34.34.34.34.34.34.34.34.34.34.34.34.34.34.34.34.34.34.34.34.34.34.34.34.34.34.34.34.34.34.34.34.34.34.34.34.34.34.34.34.34.34.34.34.34.34.34.34.34.34.34.34.34.34.34.34.34.34.34.34.34.34.34.34.34.34.34.34.34.34.34.34.34.34.34.34.34.34.34.34.34.34.34.34.34.34.34.34.34.34.34.34.34.34.34.34.34.34.34.34.34.34.34.34.34.34.34.34.34.34.34.34.34.34.34.34.34.34.34.34.34.34.34.34.34.34.34.34.34.34.34.34.34.34.34.34.34.34.34.34.34.34.34.34.34.34.34.34.34.34.34.34.34.34.34.34.34.34.34.34.34.34.34.34.34.34.34.34.34.34.34.34.34.34.34.34.34.34.34.34.34.34.34.34.34.34.34.34.34.34.34.34.34.34.34.34.34.34.34.34.34.34.34.34.34.34.34.34.34.34.34.34.34.34.34.34.34.34.34.34.34.34.34.34.34.34.34.34.34.34.34.34.34.34.34.34.34.34.34.34.34.34.34.34.34.34.34.34.34.34.34.34.34.34.34.34.34.34.34.34.34.34.34.34.34.34.34.34.34.34.34.34.34.34.34.34.34.34.34.34.34.34.34.34.34.34.34.34.34.34.34.34.34.34.34.34.34.34.34.34.34.34.34.34.34.34.34.34.34.2.2a88.21,88.21,0,0,0,56.56-56.56l-.2-.2Z"/></g><g id="dead-3" data-name="dead"><path class="cls-3" d="M136,96A40,40,0,1,1,96,56a40,40,0,0,1,40,40"/><path class="cls-4" d="M73.27,90.51a1.53,1.53,0,0,1-1.08-2.61L87.64,72.45a1.53,1.53,0,1,1,2.16,2.16L74.36,90.06a1.52,1.52,0,0,1-1.08.45Z"/><path class="cls-4" d="M88.73,90.51a1.52,1.52,0,0,1-1.08-.45L72.19,74.61a1.53,1.53,0,1,1,2.16-2.16L89.81,87.9a1.53,1.53,0,0,1-1.08,2.61Z"/><path class="cls-4" d="M103.27,90.51a1.53,1.53,0,0,1-1.08-2.61l15.45-15.45a1.53,1.53,0,0,1,2.16,2.16L104.36,90.06a1.52,1.52,0,0,1-1.08.45Z"/><path class="cls-4" d="M118.73,90.51a1.53,1.53,0,0,1-1.08-.45L102.19,74.61a1.53,1.53,0,0,1,2.16-2.16L119.81,87.9a1.53,1.53,0,0,1-1.08,2.61Z"/><path class="cls-5" d="M96.16,106.93v18.43c0,4.52,4.77,8.21,10.6,8.21h.94c5.83,0,10.6-3.7,10.6-8.21V106.93Z"/><path class="cls-6" d="M107.23,125.06a1.7,1.7,0,0,1-1.7-1.7V108.89a1.7,1.7,0,1,1,3.41,0v14.47a1.7,1.7,0,0,1-1.7,1.7Z"/><path class="cls-7" d="M118.3,109.83H73.7a1.7,1.7,0,0,1,0-3.41H118.3a1.7,1.7,0,0,1,0,3.41Z"/></g></g></g></svg>
    <svg id="desperate" xmlns="http://www.w3.org/2000/svg" viewBox="0 0 192 192"><defs><style>.cls-1{fill:#00acc1;}.cls-2,.cls-6{fill:#263238;}.cls-2{opacity:0;}.cls-3{fill:#ffca28;}.cls-4{fill:#b71c1c;}.cls-5{fill:#e53935;}</style></defs><title>desperate</title><g id="desperate"><g id="desperate-2" data-name="desperate"><circle id="label" class="cls-1" cx="96" cy="94" r="50"/><g id="shadow"><path class="cls-2" d="M179.19,122.63l-.34-.34-.34-.34-.34-.34-.34-.34-.34-.34-.34-.34-.34-.34-.34-.34-.34-.34-.34-.34-.34-.34-.34-.34-.34-.34-.34-.34-.34-.34-.34-.34-.34-.34-.34-.34-.34-.34-.34-.34-.34-.34-.34-.34-.34-.34-.34-.34-.34-.34-.34-.34-.34-.34-.34-.34-.34-.34-.34-.34-.34-.34-.34-.34-.34-.34-.34-.34-.34-.34-.34-.34-.34-.34-.34-.34-.34-.34-.34-.34-.34-.34-.34-.34-.34-.34-.34-.34-.34-.34-.34-.34-.34-.34-.34-.34-.34-.34-.34-.34-.34-.34-.34-.34-.34-.34-.34-.34-.34-.34-.34-.34-.34-.34-.34-.34-.34-.34-.34-.34-.34-.34-.34-.34-.34-.34-.34-.34-.34-.34-.34-.34-.34-.34-.34-.34-.34-.34-.34-.34-.34-.34-.34-.34-.34-.34-.34-.34-.34-.34-.34-.34-.34-.34-.34-.34-.34-.34-.34-.34-.34-.34-.34-.34-.34-.34-.34-.34-.34-.34-.34-.34-.34-.34-.34-.34-.34-.34L149,92.4l-.34-.34-.34-.34L148,91.4l-.34-.34-.34-.34-.34-.34-.34-.34-.34-.34-.34-.34L145.6,89l-.34-.34-.34-.34L144.6,88l-.34-.34-.34-.34-.34-.34-.34-.34-.34-.34-.34-.34-.34-.34-.34-.34-.34-.34-.34-.34-.34-.34-.34-.34-.34-.34-.34-.34-.34-.34-.34-.34-.34-.34-.34-.34-.34-.34-.34-.34-.34-.34-.34-.34-.34-.34-.34-.34-.34-.34-.34-.34-.34-.34-.34-.34-.34-.34-.34-.34-.34-.34-.34-.34-.34-.34-.34-.34-.34-.34-.34-.34-.34-.34-.34-.34-.34-.34-.34-.34-.34-.34-.34-.34-.34-.34-.34-.34-.34-.34-.34-.34-.34-.34-.34-.34-.34-.34-.34-.34-.34-.34-.34-.34-.34-.34-.34-.34-.34-.34-.34-.34-.34-.34-.34-.34-.34-.34-.34-.34a40,40,0,1,0-56.56,56.56l.34.34.34.34.34.34.34.34.34.34.34.34.34.34.34.34.34.34.34.34.34.34.34.34.34.34.34.34.34.34.34.34.34.34.34.34.34.34.34.34.34.34.34.34.34.34.34.34.34.34.34.34.34.34.34.34.34.34.34.34.34.34.34.34.34.34.34.34.34.34.34.34.34.34.34.34.34.34.34.34.34.34.34.34.34.34.34.34.34.34.34.34.34.34.34.34.34.34.34.34.34.34.34.34.34.34.34.34.34.34.34.34.34.34.34.34.34.34.34.34.34.34.34.34.34.34.34.34.34.34.34.34.34.34.34.34.34.34.34.34.34.34.34.34.34.34.34.34.34.34.34.34.34.34.34.34.34.34.34.34.34.34.34.34.34.34.34.34.34.34.34.34.34.34.34.34.34.34.34.34.34.34.34.34.34.34.34.34.34.34.34.34.34.34.34.34.34.34.34.34.34.34.34.34.34.34.34.34.34.34.34.34.34.34.34.34.34.34.34.34.34.34.34.34.34.34.34.34.34.34.34.34.34.34.34.34.34.34.34.34.34.34.34.34.34.34.34.34.34.34.34.34.34.34.34.34.34.34.34.34.34.34.34.34.34.34.34.34.34.34.34.34.34.34.34.34.34.34.34.34.34.34.34.34.34.34.34.34.34.34.34.34.34.34.34.34.34.34.34.34.34.34.34.34.34.34.34.34.34.34.34.34.34.34.34.34.34.34.34.34.34.34.34.34.34.34.34.34.2.2a88.21,88.21,0,0,0,56.56-56.56l-.2-.2Z"/></g><g id="desperate-3" data-name="desperate"><circle class="cls-3" cx="96" cy="96" r="40"/><path class="cls-4" d="M96,97.36A22.52,22.52,0,0,0,73.6,120h44.8A22.52,22.52,0,0,0,96,97.36"/><path class="cls-5" d="M73.6,120c0-5.68,10-10.29,22.4-10.29s22.4,4.61,22.4,10.29"/><path class="cls-6" d="M73.73,92a1.73,1.73,0,0,1-1-3.16L82.83,82,72.76,75.16a1.73,1.73,0,0,1,1.93-2.86l12.18,8.27a1.73,1.73,0,0,1,0,2.86L74.69,91.7a1.71,1.71,0,0,1-1,.3Z"/><path class="cls-6" d="M118.27,92a1.71,1.71,0,0,1-1-.3l-12.19-8.27a1.73,1.73,0,0,1,0-2.86l12.19-8.27a1.73,1.73,0,0,1,1.93,2.86L109.17,82l10.08,6.84a1.73,1.73,0,0,1-1,3.16Z"/></g></g></g></svg>
    <svg id="devil" xmlns="http://www.w3.org/2000/svg" viewBox="0 0 192 192"><defs><style>.cls-1{fill:#b0bec5;}.cls-2{fill:#263238;opacity:0;}.cls-3{fill:#e53935;}.cls-4{fill:#b71c1c;}.cls-5{fill:#2f2f2f;}.cls-6{fill:#ffca27;}</style></defs><title>devil</title><g id="devil"><g id="devil-2" data-name="devil"><circle id="label" class="cls-1" cx="96" cy="94" r="50"/><g id="shadow"><path class="cls-2" d="M179.19,122.63l-.34-.34-.34-.34-.34-.34-.34-.34-.34-.34-.34-.34-.34-.34-.34-.34-.34-.34-.34-.34-.34-.34-.34-.34-.34-.34-.34-.34-.34-.34-.34-.34-.34-.34-.34-.34-.34-.34-.34-.34-.34-.34-.34-.34-.34-.34-.34-.34-.34-.34-.34-.34-.34-.34-.34-.34-.34-.34-.34-.34-.34-.34-.34-.34-.34-.34-.34-.34-.34-.34-.34-.34-.34-.34-.34-.34-.34-.34-.34-.34-.34-.34-.34-.34-.34-.34-.34-.34-.34-.34-.34-.34-.34-.34-.34-.34-.34-.34-.34-.34-.34-.34-.34-.34-.34-.34-.34-.34-.34-.34-.34-.34-.34-.34-.34-.34-.34-.34-.34-.34-.34-.34-.34-.34-.34-.34-.34-.34-.34-.34-.34-.34-.34-.34-.34-.34-.34-.34-.34-.34-.34-.34-.34-.34-.34-.34-.34-.34-.34-.34-.34-.34-.34-.34-.34-.34-.34-.34-.34-.34-.34-.34-.34-.34-.34-.34-.34-.34-.34-.34-.34-.34-.34-.34-.34-.34-.34-.34L149,92.4l-.34-.34-.34-.34L148,91.4l-.34-.34-.34-.34-.34-.34-.34-.34-.34-.34-.34-.34L145.6,89l-.34-.34-.34-.34L144.6,88l-.34-.34-.34-.34-.34-.34-.34-.34-.34-.34-.34-.34-.34-.34-.34-.34-.34-.34-.34-.34-.34-.34-.34-.34-.34-.34-.34-.34-.34-.34-.34-.34-.34-.34-.34-.34-.34-.34-.34-.34-.34-.34-.34-.34-.34-.34-.34-.34-.34-.34-.34-.34-.34-.34-.34-.34-.34-.34-.34-.34-.34-.34-.34-.34-.34-.34-.34-.34-.34-.34-.34-.34-.34-.34-.34-.34-.34-.34-.34-.34-.34-.34-.34-.34-.34-.34-.34-.34-.34-.34-.34-.34-.34-.34-.34-.34-.34-.34-.34-.34-.34-.34-.34-.34-.34-.34-.34-.34-.34-.34-.34-.34-.34-.34-.34-.34-.34-.34-.34-.34a40,40,0,1,0-56.56,56.56l.34.34.34.34.34.34.34.34.34.34.34.34.34.34.34.34.34.34.34.34.34.34.34.34.34.34.34.34.34.34.34.34.34.34.34.34.34.34.34.34.34.34.34.34.34.34.34.34.34.34.34.34.34.34.34.34.34.34.34.34.34.34.34.34.34.34.34.34.34.34.34.34.34.34.34.34.34.34.34.34.34.34.34.34.34.34.34.34.34.34.34.34.34.34.34.34.34.34.34.34.34.34.34.34.34.34.34.34.34.34.34.34.34.34.34.34.34.34.34.34.34.34.34.34.34.34.34.34.34.34.34.34.34.34.34.34.34.34.34.34.34.34.34.34.34.34.34.34.34.34.34.34.34.34.34.34.34.34.34.34.34.34.34.34.34.34.34.34.34.34.34.34.34.34.34.34.34.34.34.34.34.34.34.34.34.34.34.34.34.34.34.34.34.34.34.34.34.34.34.34.34.34.34.34.34.34.34.34.34.34.34.34.34.34.34.34.34.34.34.34.34.34.34.34.34.34.34.34.34.34.34.34.34.34.34.34.34.34.34.34.34.34.34.34.34.34.34.34.34.34.34.34.34.34.34.34.34.34.34.34.34.34.34.34.34.34.34.34.34.34.34.34.34.34.34.34.34.34.34.34.34.34.34.34.34.34.34.34.34.34.34.34.34.34.34.34.34.34.34.34.34.34.34.34.34.34.34.34.34.34.34.34.34.34.34.34.34.34.34.34.34.34.34.34.34.34.34.34.2.2a88.21,88.21,0,0,0,56.56-56.56l-.2-.2Z"/></g><g id="devil-3" data-name="devil"><path class="cls-3" d="M136,96A40,40,0,1,1,96,56a40,40,0,0,1,40,40"/><path class="cls-4" d="M125.87,69.41c5.45-8,1.37-16.06,1.18-16.42a1.32,1.32,0,0,0-1.31-.7,1.28,1.28,0,0,0-1.13,1,17.47,17.47,0,0,1-6.66,9.3"/><path class="cls-4" d="M73.93,62.61a17.49,17.49,0,0,1-6.76-9.37,1.28,1.28,0,0,0-1.14-1,1.32,1.32,0,0,0-1.31.7A16.66,16.66,0,0,0,66,69.54"/><path class="cls-5" d="M79.5,91.48c-10-2.05-11-11.2-10.32-15.17l24.75,7.41C93.22,87.67,86.5,92.91,79.5,91.48Z"/><path class="cls-6" d="M80.52,87.33c4.22.83,8.28-2.34,9.1-4.89L74,77.76C73.51,80.8,74.64,86.18,80.52,87.33Z"/><path class="cls-5" d="M112.5,91.48c10-2.05,11-11.2,10.32-15.17l-24.75,7.4C98.78,87.67,105.5,92.91,112.5,91.48Z"/><path class="cls-6" d="M111.48,87.33c5.88-1.15,7-6.53,6.51-9.57l-15.6,4.67C103.19,85,107.25,88.16,111.48,87.33Z"/><path class="cls-4" d="M116.57,98.26a2.14,2.14,0,0,0-1.63-.12,2.22,2.22,0,0,0-1.34,1.21,19,19,0,0,1-35.22,0,2.21,2.21,0,0,0-1.32-1.21,2.15,2.15,0,0,0-1.63.11,2.25,2.25,0,0,0-1.05,2.92,23.36,23.36,0,0,0,43.24,0A2.25,2.25,0,0,0,116.57,98.26Z"/></g></g></g></svg>
    <svg id="dollar-eyes" xmlns="http://www.w3.org/2000/svg" viewBox="0 0 192 192"><defs><style>.cls-1{fill:#7cb342;}.cls-2,.cls-5{fill:#263238;}.cls-2{opacity:0;}.cls-3{fill:#ffca28;}.cls-4{fill:yellowgreen;}.cls-6{fill:#e53935;}</style></defs><title>dollar-eyes</title><g id="dollar-eyes"><g id="dollar-eyes-2" data-name="dollar-eyes"><circle id="label" class="cls-1" cx="96" cy="94" r="50"/><g id="shadow"><path class="cls-2" d="M179.19,122.63l-.34-.34-.34-.34-.34-.34-.34-.34-.34-.34-.34-.34-.34-.34-.34-.34-.34-.34-.34-.34-.34-.34-.34-.34-.34-.34-.34-.34-.34-.34-.34-.34-.34-.34-.34-.34-.34-.34-.34-.34-.34-.34-.34-.34-.34-.34-.34-.34-.34-.34-.34-.34-.34-.34-.34-.34-.34-.34-.34-.34-.34-.34-.34-.34-.34-.34-.34-.34-.34-.34-.34-.34-.34-.34-.34-.34-.34-.34-.34-.34-.34-.34-.34-.34-.34-.34-.34-.34-.34-.34-.34-.34-.34-.34-.34-.34-.34-.34-.34-.34-.34-.34-.34-.34-.34-.34-.34-.34-.34-.34-.34-.34-.34-.34-.34-.34-.34-.34-.34-.34-.34-.34-.34-.34-.34-.34-.34-.34-.34-.34-.34-.34-.34-.34-.34-.34-.34-.34-.34-.34-.34-.34-.34-.34-.34-.34-.34-.34-.34-.34-.34-.34-.34-.34-.34-.34-.34-.34-.34-.34-.34-.34-.34-.34-.34-.34-.34-.34-.34-.34-.34-.34-.34-.34-.34-.34-.34-.34L149,92.4l-.34-.34-.34-.34L148,91.4l-.34-.34-.34-.34-.34-.34-.34-.34-.34-.34-.34-.34L145.6,89l-.34-.34-.34-.34L144.6,88l-.34-.34-.34-.34-.34-.34-.34-.34-.34-.34-.34-.34-.34-.34-.34-.34-.34-.34-.34-.34-.34-.34-.34-.34-.34-.34-.34-.34-.34-.34-.34-.34-.34-.34-.34-.34-.34-.34-.34-.34-.34-.34-.34-.34-.34-.34-.34-.34-.34-.34-.34-.34-.34-.34-.34-.34-.34-.34-.34-.34-.34-.34-.34-.34-.34-.34-.34-.34-.34-.34-.34-.34-.34-.34-.34-.34-.34-.34-.34-.34-.34-.34-.34-.34-.34-.34-.34-.34-.34-.34-.34-.34-.34-.34-.34-.34-.34-.34-.34-.34-.34-.34-.34-.34-.34-.34-.34-.34-.34-.34-.34-.34-.34-.34-.34-.34-.34-.34-.34-.34a40,40,0,1,0-56.56,56.56l.34.34.34.34.34.34.34.34.34.34.34.34.34.34.34.34.34.34.34.34.34.34.34.34.34.34.34.34.34.34.34.34.34.34.34.34.34.34.34.34.34.34.34.34.34.34.34.34.34.34.34.34.34.34.34.34.34.34.34.34.34.34.34.34.34.34.34.34.34.34.34.34.34.34.34.34.34.34.34.34.34.34.34.34.34.34.34.34.34.34.34.34.34.34.34.34.34.34.34.34.34.34.34.34.34.34.34.34.34.34.34.34.34.34.34.34.34.34.34.34.34.34.34.34.34.34.34.34.34.34.34.34.34.34.34.34.34.34.34.34.34.34.34.34.34.34.34.34.34.34.34.34.34.34.34.34.34.34.34.34.34.34.34.34.34.34.34.34.34.34.34.34.34.34.34.34.34.34.34.34.34.34.34.34.34.34.34.34.34.34.34.34.34.34.34.34.34.34.34.34.34.34.34.34.34.34.34.34.34.34.34.34.34.34.34.34.34.34.34.34.34.34.34.34.34.34.34.34.34.34.34.34.34.34.34.34.34.34.34.34.34.34.34.34.34.34.34.34.34.34.34.34.34.34.34.34.34.34.34.34.34.34.34.34.34.34.34.34.34.34.34.34.34.34.34.34.34.34.34.34.34.34.34.34.34.34.34.34.34.34.34.34.34.34.34.34.34.34.34.34.34.34.34.34.34.34.34.34.34.34.34.34.34.34.34.34.34.34.34.34.34.34.34.34.34.34.34.34.2.2a88.21,88.21,0,0,0,56.56-56.56l-.2-.2Z"/></g><g id="dollar-eyes-3" data-name="dollar-eyes"><circle class="cls-3" cx="96" cy="96" r="40"/><circle class="cls-4" cx="110.25" cy="82.62" r="11.5"/><path class="cls-5" d="M114.79,85.77c0-2.38-1.54-3.11-3.5-4l-1.06-.5c-2-.93-2.14-1.09-2.14-1.89,0-1.4,1.66-1.51,2.17-1.51s2.11.15,2.11,1.51a1.19,1.19,0,1,0,2.38,0,3.76,3.76,0,0,0-3.3-3.76V74.47a1.19,1.19,0,1,0-2.38,0v1.12a3.83,3.83,0,0,0-3.35,3.76c0,2.38,1.55,3.11,3.5,4l1.06.5c2,.93,2.14,1.09,2.14,1.89,0,1.38-1.65,1.49-2.16,1.49s-2.17-.15-2.17-1.49a1.19,1.19,0,0,0-2.38,0,3.76,3.76,0,0,0,3.35,3.74v1.27a1.19,1.19,0,1,0,2.38,0V89.52A3.76,3.76,0,0,0,114.79,85.77Z"/><circle class="cls-4" cx="81.75" cy="82.62" r="11.5"/><path class="cls-5" d="M86.29,85.77c0-2.38-1.54-3.11-3.5-4l-1.06-.5c-2-.93-2.14-1.09-2.14-1.89,0-1.4,1.66-1.51,2.17-1.51s2.11.15,2.11,1.51a1.19,1.19,0,1,0,2.38,0,3.76,3.76,0,0,0-3.3-3.76V74.47a1.19,1.19,0,1,0-2.38,0v1.12a3.83,3.83,0,0,0-3.35,3.76c0,2.38,1.55,3.11,3.5,4l1.06.5c2,.93,2.14,1.09,2.14,1.89,0,1.38-1.65,1.49-2.16,1.49s-2.17-.15-2.17-1.49a1.19,1.19,0,0,0-2.38,0,3.76,3.76,0,0,0,3.35,3.74v1.27a1.19,1.19,0,1,0,2.38,0V89.52A3.76,3.76,0,0,0,86.29,85.77Z"/><path class="cls-6" d="M96,120.87c-10.84,0-19.71-8.82-20.5-20h41C115.71,112.06,106.84,120.87,96,120.87Z"/></g></g></g></svg>
    <svg id="goofy" xmlns="http://www.w3.org/2000/svg" viewBox="0 0 192 192"><defs><style>.cls-1{fill:#0277bd;}.cls-2,.cls-7{fill:#263238;}.cls-2{opacity:0;}.cls-3{fill:#ffca28;}.cls-4{fill:#e53935;}.cls-5{fill:#fff;}.cls-6{fill:#00b0ff;}</style></defs><title>goofy</title><g id="goofy"><g id="goofy-2" data-name="goofy"><circle id="label" class="cls-1" cx="96" cy="94" r="50"/><g id="shadow"><path class="cls-2" d="M179.19,122.63l-.34-.34-.34-.34-.34-.34-.34-.34-.34-.34-.34-.34-.34-.34-.34-.34-.34-.34-.34-.34-.34-.34-.34-.34-.34-.34-.34-.34-.34-.34-.34-.34-.34-.34-.34-.34-.34-.34-.34-.34-.34-.34-.34-.34-.34-.34-.34-.34-.34-.34-.34-.34-.34-.34-.34-.34-.34-.34-.34-.34-.34-.34-.34-.34-.34-.34-.34-.34-.34-.34-.34-.34-.34-.34-.34-.34-.34-.34-.34-.34-.34-.34-.34-.34-.34-.34-.34-.34-.34-.34-.34-.34-.34-.34-.34-.34-.34-.34-.34-.34-.34-.34-.34-.34-.34-.34-.34-.34-.34-.34-.34-.34-.34-.34-.34-.34-.34-.34-.34-.34-.34-.34-.34-.34-.34-.34-.34-.34-.34-.34-.34-.34-.34-.34-.34-.34-.34-.34-.34-.34-.34-.34-.34-.34-.34-.34-.34-.34-.34-.34-.34-.34-.34-.34-.34-.34-.34-.34-.34-.34-.34-.34-.34-.34-.34-.34-.34-.34-.34-.34-.34-.34-.34-.34-.34-.34-.34-.34L149,92.4l-.34-.34-.34-.34L148,91.4l-.34-.34-.34-.34-.34-.34-.34-.34-.34-.34-.34-.34L145.6,89l-.34-.34-.34-.34L144.6,88l-.34-.34-.34-.34-.34-.34-.34-.34-.34-.34-.34-.34-.34-.34-.34-.34-.34-.34-.34-.34-.34-.34-.34-.34-.34-.34-.34-.34-.34-.34-.34-.34-.34-.34-.34-.34-.34-.34-.34-.34-.34-.34-.34-.34-.34-.34-.34-.34-.34-.34-.34-.34-.34-.34-.34-.34-.34-.34-.34-.34-.34-.34-.34-.34-.34-.34-.34-.34-.34-.34-.34-.34-.34-.34-.34-.34-.34-.34-.34-.34-.34-.34-.34-.34-.34-.34-.34-.34-.34-.34-.34-.34-.34-.34-.34-.34-.34-.34-.34-.34-.34-.34-.34-.34-.34-.34-.34-.34-.34-.34-.34-.34-.34-.34-.34-.34-.34-.34-.34-.34a40,40,0,1,0-56.56,56.56l.34.34.34.34.34.34.34.34.34.34.34.34.34.34.34.34.34.34.34.34.34.34.34.34.34.34.34.34.34.34.34.34.34.34.34.34.34.34.34.34.34.34.34.34.34.34.34.34.34.34.34.34.34.34.34.34.34.34.34.34.34.34.34.34.34.34.34.34.34.34.34.34.34.34.34.34.34.34.34.34.34.34.34.34.34.34.34.34.34.34.34.34.34.34.34.34.34.34.34.34.34.34.34.34.34.34.34.34.34.34.34.34.34.34.34.34.34.34.34.34.34.34.34.34.34.34.34.34.34.34.34.34.34.34.34.34.34.34.34.34.34.34.34.34.34.34.34.34.34.34.34.34.34.34.34.34.34.34.34.34.34.34.34.34.34.34.34.34.34.34.34.34.34.34.34.34.34.34.34.34.34.34.34.34.34.34.34.34.34.34.34.34.34.34.34.34.34.34.34.34.34.34.34.34.34.34.34.34.34.34.34.34.34.34.34.34.34.34.34.34.34.34.34.34.34.34.34.34.34.34.34.34.34.34.34.34.34.34.34.34.34.34.34.34.34.34.34.34.34.34.34.34.34.34.34.34.34.34.34.34.34.34.34.34.34.34.34.34.34.34.34.34.34.34.34.34.34.34.34.34.34.34.34.34.34.34.34.34.34.34.34.34.34.34.34.34.34.34.34.34.34.34.34.34.34.34.34.34.34.34.34.34.34.34.34.34.34.34.34.34.34.34.34.34.34.34.34.34.2.2a88.21,88.21,0,0,0,56.56-56.56l-.2-.2Z"/></g><g id="goofy-3" data-name="goofy"><path class="cls-3" d="M136,96A40,40,0,1,1,96,56a40,40,0,0,1,40,40"/><path class="cls-4" d="M96,126a19.81,19.81,0,0,1-20-18h40A19.82,19.82,0,0,1,96,126Z"/><path class="cls-5" d="M67.51,86.08a11.2,11.2,0,1,1,11.2,11.2,11.2,11.2,0,0,1-11.2-11.2"/><path class="cls-6" d="M78.7,91.78a3.82,3.82,0,1,1,3.82,3.82,3.81,3.81,0,0,1-3.82-3.82"/><path class="cls-5" d="M124.19,86.08A11.2,11.2,0,1,0,113,97.28a11.2,11.2,0,0,0,11.2-11.2"/><path class="cls-6" d="M113,91.78a3.82,3.82,0,1,0-3.82,3.82A3.82,3.82,0,0,0,113,91.78"/><path class="cls-7" d="M75.11,104.61A17.61,17.61,0,1,1,92.72,87a17.63,17.63,0,0,1-17.61,17.61Zm0-32.14A14.52,14.52,0,1,0,89.63,87,14.54,14.54,0,0,0,75.11,72.48Z"/><path class="cls-7" d="M116.89,104.61A17.61,17.61,0,1,1,134.5,87a17.63,17.63,0,0,1-17.61,17.61Zm0-32.14A14.52,14.52,0,1,0,131.41,87a14.54,14.54,0,0,0-14.53-14.52Z"/><path class="cls-7" d="M100,86.26h-8a1.55,1.55,0,0,1,0-3.09h8a1.55,1.55,0,0,1,0,3.09Z"/></g></g></g></svg>    <svg id="hipster" xmlns="http://www.w3.org/2000/svg" viewBox="0 0 192 192"><defs><style>.cls-1{fill:#ec407a;}.cls-2{fill:#263238;opacity:0;}.cls-3{fill:#ffca28;}.cls-4{fill:#5d4037;}.cls-5{fill:#00897b;}.cls-6{fill:#00695c;}</style></defs><title>hipster</title><g id="hipster"><g id="hipster-2" data-name="hipster"><circle id="label" class="cls-1" cx="96" cy="94" r="50"/><g id="shadow"><path class="cls-2" d="M179.19,122.63l-.34-.34-.34-.34-.34-.34-.34-.34-.34-.34-.34-.34-.34-.34-.34-.34-.34-.34-.34-.34-.34-.34-.34-.34-.34-.34-.34-.34-.34-.34-.34-.34-.34-.34-.34-.34-.34-.34-.34-.34-.34-.34-.34-.34-.34-.34-.34-.34-.34-.34-.34-.34-.34-.34-.34-.34-.34-.34-.34-.34-.34-.34-.34-.34-.34-.34-.34-.34-.34-.34-.34-.34-.34-.34-.34-.34-.34-.34-.34-.34-.34-.34-.34-.34-.34-.34-.34-.34-.34-.34-.34-.34-.34-.34-.34-.34-.34-.34-.34-.34-.34-.34-.34-.34-.34-.34-.34-.34-.34-.34-.34-.34-.34-.34-.34-.34-.34-.34-.34-.34-.34-.34-.34-.34-.34-.34-.34-.34-.34-.34-.34-.34-.34-.34-.34-.34-.34-.34-.34-.34-.34-.34-.34-.34-.34-.34-.34-.34-.34-.34-.34-.34-.34-.34-.34-.34-.34-.34-.34-.34-.34-.34-.34-.34-.34-.34-.34-.34-.34-.34-.34-.34-.34-.34-.34-.34-.34-.34L149,92.4l-.34-.34-.34-.34L148,91.4l-.34-.34-.34-.34-.34-.34-.34-.34-.34-.34-.34-.34L145.6,89l-.34-.34-.34-.34L144.6,88l-.34-.34-.34-.34-.34-.34-.34-.34-.34-.34-.34-.34-.34-.34-.34-.34-.34-.34-.34-.34-.34-.34-.34-.34-.34-.34-.34-.34-.34-.34-.34-.34-.34-.34-.34-.34-.34-.34-.34-.34-.34-.34-.34-.34-.34-.34-.34-.34-.34-.34-.34-.34-.34-.34-.34-.34-.34-.34-.34-.34-.34-.34-.34-.34-.34-.34-.34-.34-.34-.34-.34-.34-.34-.34-.34-.34-.34-.34-.34-.34-.34-.34-.34-.34-.34-.34-.34-.34-.34-.34-.34-.34-.34-.34-.34-.34-.34-.34-.34-.34-.34-.34-.34-.34-.34-.34-.34-.34-.34-.34-.34-.34-.34-.34-.34-.34-.34-.34-.34-.34a40,40,0,1,0-56.56,56.56l.34.34.34.34.34.34.34.34.34.34.34.34.34.34.34.34.34.34.34.34.34.34.34.34.34.34.34.34.34.34.34.34.34.34.34.34.34.34.34.34.34.34.34.34.34.34.34.34.34.34.34.34.34.34.34.34.34.34.34.34.34.34.34.34.34.34.34.34.34.34.34.34.34.34.34.34.34.34.34.34.34.34.34.34.34.34.34.34.34.34.34.34.34.34.34.34.34.34.34.34.34.34.34.34.34.34.34.34.34.34.34.34.34.34.34.34.34.34.34.34.34.34.34.34.34.34.34.34.34.34.34.34.34.34.34.34.34.34.34.34.34.34.34.34.34.34.34.34.34.34.34.34.34.34.34.34.34.34.34.34.34.34.34.34.34.34.34.34.34.34.34.34.34.34.34.34.34.34.34.34.34.34.34.34.34.34.34.34.34.34.34.34.34.34.34.34.34.34.34.34.34.34.34.34.34.34.34.34.34.34.34.34.34.34.34.34.34.34.34.34.34.34.34.34.34.34.34.34.34.34.34.34.34.34.34.34.34.34.34.34.34.34.34.34.34.34.34.34.34.34.34.34.34.34.34.34.34.34.34.34.34.34.34.34.34.34.34.34.34.34.34.34.34.34.34.34.34.34.34.34.34.34.34.34.34.34.34.34.34.34.34.34.34.34.34.34.34.34.34.34.34.34.34.34.34.34.34.34.34.34.34.34.34.34.34.34.34.34.34.34.34.34.34.34.34.34.34.34.2.2a88.21,88.21,0,0,0,56.56-56.56l-.2-.2Z"/></g><g id="hipster-3" data-name="hipster"><path class="cls-3" d="M136,96A40,40,0,1,1,96,56a40,40,0,0,1,40,40"/><path class="cls-4" d="M106,104.31h0a6.43,6.43,0,0,0-10,.51,6.43,6.43,0,0,0-10-.51h0c-5,4.94-12.73,8.35-20,3.08,0,8.19,17.87,17.43,28.38,9.31l.13-.09.2-.14v0A6.47,6.47,0,0,0,96,115.14a6.47,6.47,0,0,0,1.31,1.31v0l.2.14.13.09c10.51,8.12,28.38-1.12,28.38-9.31C118.7,112.66,110.92,109.25,106,104.31Z"/><circle class="cls-5" cx="81.08" cy="84.74" r="11.48"/><path class="cls-6" d="M81.08,97.32A12.58,12.58,0,1,1,93.66,84.74,12.59,12.59,0,0,1,81.08,97.32Zm0-23A10.37,10.37,0,1,0,91.45,84.74,10.39,10.39,0,0,0,81.08,74.37Z"/><circle class="cls-5" cx="110.92" cy="84.74" r="11.48"/><path class="cls-6" d="M110.92,97.32A12.58,12.58,0,1,1,123.5,84.74a12.59,12.59,0,0,1-12.58,12.58Zm0-23a10.37,10.37,0,1,0,10.38,10.38,10.39,10.39,0,0,0-10.38-10.38Z"/><path class="cls-6" d="M98.88,84.21h-5.7a1.1,1.1,0,1,1,0-2.21h5.7a1.1,1.1,0,1,1,0,2.21Z"/></g></g></g></svg>
    <svg id="nerd" xmlns="http://www.w3.org/2000/svg" viewBox="0 0 192 192"><defs><style>.cls-1{fill:#455a64;}.cls-2,.cls-5{fill:#263238;}.cls-2{opacity:0.25;}.cls-3{fill:#ffca28;}.cls-4{fill:#546e7a;}.cls-6{fill:#37474f;}.cls-7{fill:#e53935;}</style></defs><title>nerd</title><g id="nerd-2" data-name="nerd"><circle id="label" class="cls-1" cx="96" cy="94" r="50"/><g id="shadow"><path class="cls-2" d="M179.19,122.63l-.34-.34-.34-.34-.34-.34-.34-.34-.34-.34-.34-.34-.34-.34-.34-.34-.34-.34-.34-.34-.34-.34-.34-.34-.34-.34-.34-.34-.34-.34-.34-.34-.34-.34-.34-.34-.34-.34-.34-.34-.34-.34-.34-.34-.34-.34-.34-.34-.34-.34-.34-.34-.34-.34-.34-.34-.34-.34-.34-.34-.34-.34-.34-.34-.34-.34-.34-.34-.34-.34-.34-.34-.34-.34-.34-.34-.34-.34-.34-.34-.34-.34-.34-.34-.34-.34-.34-.34-.34-.34-.34-.34-.34-.34-.34-.34-.34-.34-.34-.34-.34-.34-.34-.34-.34-.34-.34-.34-.34-.34-.34-.34-.34-.34-.34-.34-.34-.34-.34-.34-.34-.34-.34-.34-.34-.34-.34-.34-.34-.34-.34-.34-.34-.34-.34-.34-.34-.34-.34-.34-.34-.34-.34-.34-.34-.34-.34-.34-.34-.34-.34-.34-.34-.34-.34-.34-.34-.34-.34-.34-.34-.34-.34-.34-.34-.34-.34-.34-.34-.34-.34-.34-.34-.34-.34-.34-.34-.34L149,92.4l-.34-.34-.34-.34L148,91.4l-.34-.34-.34-.34-.34-.34-.34-.34-.34-.34-.34-.34L145.6,89l-.34-.34-.34-.34L144.6,88l-.34-.34-.34-.34-.34-.34-.34-.34-.34-.34-.34-.34-.34-.34-.34-.34-.34-.34-.34-.34-.34-.34-.34-.34-.34-.34-.34-.34-.34-.34-.34-.34-.34-.34-.34-.34-.34-.34-.34-.34-.34-.34-.34-.34-.34-.34-.34-.34-.34-.34-.34-.34-.34-.34-.34-.34-.34-.34-.34-.34-.34-.34-.34-.34-.34-.34-.34-.34-.34-.34-.34-.34-.34-.34-.34-.34-.34-.34-.34-.34-.34-.34-.34-.34-.34-.34-.34-.34-.34-.34-.34-.34-.34-.34-.34-.34-.34-.34-.34-.34-.34-.34-.34-.34-.34-.34-.34-.34-.34-.34-.34-.34-.34-.34-.34-.34-.34-.34-.34-.34a40,40,0,1,0-56.56,56.56l.34.34.34.34.34.34.34.34.34.34.34.34.34.34.34.34.34.34.34.34.34.34.34.34.34.34.34.34.34.34.34.34.34.34.34.34.34.34.34.34.34.34.34.34.34.34.34.34.34.34.34.34.34.34.34.34.34.34.34.34.34.34.34.34.34.34.34.34.34.34.34.34.34.34.34.34.34.34.34.34.34.34.34.34.34.34.34.34.34.34.34.34.34.34.34.34.34.34.34.34.34.34.34.34.34.34.34.34.34.34.34.34.34.34.34.34.34.34.34.34.34.34.34.34.34.34.34.34.34.34.34.34.34.34.34.34.34.34.34.34.34.34.34.34.34.34.34.34.34.34.34.34.34.34.34.34.34.34.34.34.34.34.34.34.34.34.34.34.34.34.34.34.34.34.34.34.34.34.34.34.34.34.34.34.34.34.34.34.34.34.34.34.34.34.34.34.34.34.34.34.34.34.34.34.34.34.34.34.34.34.34.34.34.34.34.34.34.34.34.34.34.34.34.34.34.34.34.34.34.34.34.34.34.34.34.34.34.34.34.34.34.34.34.34.34.34.34.34.34.34.34.34.34.34.34.34.34.34.34.34.34.34.34.34.34.34.34.34.34.34.34.34.34.34.34.34.34.34.34.34.34.34.34.34.34.34.34.34.34.34.34.34.34.34.34.34.34.34.34.34.34.34.34.34.34.34.34.34.34.34.34.34.34.34.34.34.34.34.34.34.34.34.34.34.34.34.34.34.2.2a88.21,88.21,0,0,0,56.56-56.56l-.2-.2Z"/></g><g id="nerd-3" data-name="nerd"><path class="cls-3" d="M136,96A40,40,0,1,1,96,56a40,40,0,0,1,40,40"/><circle class="cls-4" cx="75.11" cy="87.58" r="16.07"/><path class="cls-5" d="M75.11,105.19A17.61,17.61,0,1,1,92.72,87.58a17.63,17.63,0,0,1-17.61,17.61Zm0-32.14A14.52,14.52,0,1,0,89.64,87.58,14.54,14.54,0,0,0,75.11,73.05Z"/><path class="cls-4" d="M133,87.58a16.07,16.07,0,1,1-16.07-16.07A16.07,16.07,0,0,1,133,87.58Z"/><path class="cls-5" d="M116.89,105.19A17.61,17.61,0,1,1,134.5,87.58a17.63,17.63,0,0,1-17.61,17.61Zm0-32.14a14.52,14.52,0,1,0,14.53,14.53,14.54,14.54,0,0,0-14.53-14.53Z"/><path class="cls-5" d="M100,86.83h-8a1.54,1.54,0,1,1,0-3.09h8a1.54,1.54,0,1,1,0,3.09Z"/><path class="cls-6" d="M84.58,93a4,4,0,1,1-4-4,4,4,0,0,1,4,4"/><path class="cls-6" d="M115.42,93a4,4,0,1,1-4-4,4,4,0,0,1,4,4"/><path class="cls-7" d="M90.19,122A23.92,23.92,0,0,1,81,120.2a1.6,1.6,0,1,1,1.23-3,21.28,21.28,0,0,0,15.61.19,19.19,19.19,0,0,0,11.1-10.52,1.6,1.6,0,0,1,3,1.23c-3.6,8.63-12.45,13.9-21.68,13.9Z"/></g></g></svg>
    <svg id="poop" xmlns="http://www.w3.org/2000/svg" viewBox="0 0 192 192"><defs><style>.cls-1{fill:#ffca28;}.cls-2,.cls-7{fill:#263238;}.cls-2{opacity:0.1;}.cls-3{fill:#6d4c41;}.cls-4{fill:#4e342e;}.cls-5{fill:#ff80ab;}.cls-6{fill:#fff;}</style></defs><title>poop</title><g id="poop"><g id="poop-2" data-name="poop"><circle id="label" class="cls-1" cx="96" cy="94" r="50"/><g id="shadow"><path class="cls-2" d="M176.22,131.1l-.3-.3-.3-.3-.3-.3-.3-.3-.3-.3-.3-.3-.3-.3-.3-.3-.3-.3-.3-.3-.3-.3-.3-.3-.3-.3-.3-.3-.3-.3-.3-.3-.3-.3-.3-.3-.3-.3-.3-.3-.3-.3-.3-.3-.3-.3-.3-.3-.3-.3-.3-.3-.3-.3-.3-.3-.3-.3-.3-.3-.3-.3-.3-.3-.3-.3-.3-.3-.3-.3-.3-.3-.3-.3-.3-.3-.3-.3-.3-.3-.3-.3-.3-.3-.3-.3-.3-.3-.3-.3-.3-.3-.3-.3-.3-.3-.3-.3-.3-.3-.3-.3-.3-.3-.3-.3-.3-.3-.3-.3-.3-.3-.3-.3-.3-.3-.3-.3-.3-.3-.3-.3-.3-.3-.3-.3-.3-.3-.3-.3-.3-.3-.3-.3-.3-.3-.3-.3-.3-.3-.3-.3-.3-.3-.3-.3-.3-.3-.3-.3-.3-.3-.3-.3-.3-.3-.3-.3-.3-.3-.3-.3-.3-.3-.3-.3-.3-.3-.3-.3-.3-.3-.3-.3-.3-.3-.3-.3-.3-.3-.3-.3-.3-.3-.3-.3-.3-.3-.3-.3-.3-.3-.3-.3-.3-.3-.3-.3-.3-.3-.3-.3-.3-.3-.3-.3-.3-.3-.3-.3-.3-.3-.3-.3-.3-.3-.3-.3-.3-.3-.3-.3-.3-.3-.3-.3-.3-.3-.3-.3-.3-.3-.3-.3-.3-.3-.3-.3-.3-.3-.3-.3-.3-.3-.3-.3-.3-.3-.3-.3-.3-.3-.3-.3-.3-.3-.3-.3-.3-.3-.3-.3-.3-.3-.3-.3-.3-.3-.3-.3-.3-.3-.3-.3-.3-.3-.3-.3-.3-.3-.3-.3-.3-.3-.3-.3-.3-.3-.3-.3-.3-.3-.3-.3-.3-.3-.3-.3-.3-.3-.3-.3-.3-.3-.3-.3-.3-.3-.3-.3-.3-.3-.3-.3-.3-.3-.3-.3-.3-.3-.3-.3-.3-.3-.3-.3-.3-.3-.3-.3-.3-.3-.3-.3-.3-.3-.3-.3-.3-.3-.3-.3-.3-.3-.3-.3-.3-.3-.3-.3-.3-.3-.3-.3-.3-.3-.3-.3-.3-.3-.3-.3-.3-.3-.3-.3-.3-.3-.3-.3-.3-.3-.3-.3-.3-.3-.3-.3-.3-.3-.3-.3-.3-.3-.3-.3-.3-.3-.3-.3-.3-.3-.3-.3-.3-.3-.3-.3-.3-.3-.3-.3-.3-.3-.3-.3-.3-.3-.3-.3-.3-.3-.3-.3-.3-.3-.3-.3-.3-.3-.3-.3-.3-.3-.3-.3-.3-.3-.3-.3-.3-.3-.3-.3-.3-.3-.3-.3-.3-.3-.3-.3c-2.73-2.92-8.2-1.93-13.27-5.66l0,0h0L96.45,59l-.18-.23,0,0L96,58.44l0,0-.26-.33,0,0-.26-.33,0,0-.26-.33,0,0-.26-.33,0,0-.26-.33,0,0-.26-.33,0,0-.26-.33,0,0L93.57,56l0,0-.26-.33A12.71,12.71,0,0,0,86.85,68a49.67,49.67,0,0,0-8.48,2.09h0a8.29,8.29,0,0,0-5.18,7.68A8.2,8.2,0,0,0,75,82.92l-1.54.58h0a13.14,13.14,0,0,0-8.87,12.14,12.26,12.26,0,0,0,1.83,6.42,17.78,17.78,0,0,0-10.7,16.16,17.54,17.54,0,0,0,5.5,12.72l.3.3.3.3.3.3.3.3.3.3.3.3.3.3.3.3.3.3.3.3.3.3.3.3.3.3.3.3.3.3.3.3.3.3.3.3.3.3.3.3.3.3.3.3.3.3.3.3.3.3.3.3.3.3.3.3.3.3.3.3.3.3.3.3.3.3.3.3.3.3.3.3.3.3.3.3.3.3.3.3.3.3.3.3.3.3.3.3.3.3.3.3.3.3.3.3.3.3.3.3.3.3.3.3.3.3.3.3.3.3.3.3.3.3.3.3.3.3.3.3.3.3.3.3.3.3.3.3.3.3.3.3.3.3.3.3.3.3.3.3.3.3.3.3.3.3.3.3.3.3.3.3.3.3.3.3.3.3.3.3.3.3.3.3.3.3.3.3.3.3.3.3.3.3.3.3.3.3.3.3.3.3.3.3.3.3.3.3.3.3.3.3.3.3.3.3.3.3.3.3.3.3.3.3.3.3.3.3.3.3.3.3.3.3.3.3.3.3.3.3.3.3.3.3.3.3.3.3.3.3.3.3.3.3.3.3.3.3.3.3.3.3.3.3.3.3.3.3.3.3.3.3.3.3.3.3.3.3.3.3.3.3.3.3.3.3.3.3.3.3.3.3.3.3.3.3.3.3.3.3.3.3.3.3.3.3.3.3.3.3.3.3.3.3.3.3.3.3.3.3.3.3.3.3.3.3.3.3.3.3.3.3.3.3.3.3.3.3.3.3.3.3.3.3.3.3.3.3.3.3.3.3.3.3.3.3.3.3.3.3.3.3.3.3,0,0a88.5,88.5,0,0,0,63.82-51l-.23-.23Z"/></g><g id="poop-3" data-name="poop"><path class="cls-3" d="M130.68,107.6a18.16,18.16,0,0,0-8.32-19.45,12.5,12.5,0,0,0-.72-8.37,14,14,0,0,0-10.51-7.95A6.55,6.55,0,0,0,111.2,67C109,60.3,100,64.76,93.35,55.84a12.71,12.71,0,0,0-6.42,12.24,49.67,49.67,0,0,0-8.48,2.09h0a8.29,8.29,0,0,0-5.18,7.68A8.2,8.2,0,0,0,75.12,83l-1.54.58h0a13.14,13.14,0,0,0-8.87,12.14,12.26,12.26,0,0,0,1.83,6.42,17.78,17.78,0,0,0-10.7,16.16c0,9.86,8.24,17.85,18.4,17.85H119.8a16.35,16.35,0,0,0,10.88-28.57"/><path class="cls-4" d="M116.73,107.4a20.73,20.73,0,1,1-41.46,0Z"/><path class="cls-5" d="M79.7,120.21a20.72,20.72,0,0,0,32.59,0A25,25,0,0,0,96,114.63,25.05,25.05,0,0,0,79.7,120.21Z"/><circle class="cls-6" cx="107.12" cy="88.53" r="7.88"/><circle class="cls-7" cx="107.12" cy="88.53" r="3.94"/><circle class="cls-6" cx="84.88" cy="88.53" r="7.88"/><circle class="cls-7" cx="84.88" cy="88.53" r="3.94"/></g></g></g></svg>
    <svg id="relaxed" xmlns="http://www.w3.org/2000/svg" viewBox="0 0 192 192"><defs><style>.cls-1{fill:#ff80ab;}.cls-2,.cls-6{fill:#263238;}.cls-2{opacity:0;}.cls-3{fill:#ffca28;}.cls-4{fill:#ffb300;}.cls-5{fill:#e53935;}</style></defs><title>relaxed</title><g id="relaxed"><g id="relaxed-2" data-name="relaxed"><circle id="label" class="cls-1" cx="96" cy="94" r="50"/><g id="shadow"><path class="cls-2" d="M179.19,122.63l-.34-.34-.34-.34-.34-.34-.34-.34-.34-.34-.34-.34-.34-.34-.34-.34-.34-.34-.34-.34-.34-.34-.34-.34-.34-.34-.34-.34-.34-.34-.34-.34-.34-.34-.34-.34-.34-.34-.34-.34-.34-.34-.34-.34-.34-.34-.34-.34-.34-.34-.34-.34-.34-.34-.34-.34-.34-.34-.34-.34-.34-.34-.34-.34-.34-.34-.34-.34-.34-.34-.34-.34-.34-.34-.34-.34-.34-.34-.34-.34-.34-.34-.34-.34-.34-.34-.34-.34-.34-.34-.34-.34-.34-.34-.34-.34-.34-.34-.34-.34-.34-.34-.34-.34-.34-.34-.34-.34-.34-.34-.34-.34-.34-.34-.34-.34-.34-.34-.34-.34-.34-.34-.34-.34-.34-.34-.34-.34-.34-.34-.34-.34-.34-.34-.34-.34-.34-.34-.34-.34-.34-.34-.34-.34-.34-.34-.34-.34-.34-.34-.34-.34-.34-.34-.34-.34-.34-.34-.34-.34-.34-.34-.34-.34-.34-.34-.34-.34-.34-.34-.34-.34-.34-.34-.34-.34-.34-.34L149,92.4l-.34-.34-.34-.34L148,91.4l-.34-.34-.34-.34-.34-.34-.34-.34-.34-.34-.34-.34L145.6,89l-.34-.34-.34-.34L144.6,88l-.34-.34-.34-.34-.34-.34-.34-.34-.34-.34-.34-.34-.34-.34-.34-.34-.34-.34-.34-.34-.34-.34-.34-.34-.34-.34-.34-.34-.34-.34-.34-.34-.34-.34-.34-.34-.34-.34-.34-.34-.34-.34-.34-.34-.34-.34-.34-.34-.34-.34-.34-.34-.34-.34-.34-.34-.34-.34-.34-.34-.34-.34-.34-.34-.34-.34-.34-.34-.34-.34-.34-.34-.34-.34-.34-.34-.34-.34-.34-.34-.34-.34-.34-.34-.34-.34-.34-.34-.34-.34-.34-.34-.34-.34-.34-.34-.34-.34-.34-.34-.34-.34-.34-.34-.34-.34-.34-.34-.34-.34-.34-.34-.34-.34-.34-.34-.34-.34-.34-.34a40,40,0,1,0-56.56,56.56l.34.34.34.34.34.34.34.34.34.34.34.34.34.34.34.34.34.34.34.34.34.34.34.34.34.34.34.34.34.34.34.34.34.34.34.34.34.34.34.34.34.34.34.34.34.34.34.34.34.34.34.34.34.34.34.34.34.34.34.34.34.34.34.34.34.34.34.34.34.34.34.34.34.34.34.34.34.34.34.34.34.34.34.34.34.34.34.34.34.34.34.34.34.34.34.34.34.34.34.34.34.34.34.34.34.34.34.34.34.34.34.34.34.34.34.34.34.34.34.34.34.34.34.34.34.34.34.34.34.34.34.34.34.34.34.34.34.34.34.34.34.34.34.34.34.34.34.34.34.34.34.34.34.34.34.34.34.34.34.34.34.34.34.34.34.34.34.34.34.34.34.34.34.34.34.34.34.34.34.34.34.34.34.34.34.34.34.34.34.34.34.34.34.34.34.34.34.34.34.34.34.34.34.34.34.34.34.34.34.34.34.34.34.34.34.34.34.34.34.34.34.34.34.34.34.34.34.34.34.34.34.34.34.34.34.34.34.34.34.34.34.34.34.34.34.34.34.34.34.34.34.34.34.34.34.34.34.34.34.34.34.34.34.34.34.34.34.34.34.34.34.34.34.34.34.34.34.34.34.34.34.34.34.34.34.34.34.34.34.34.34.34.34.34.34.34.34.34.34.34.34.34.34.34.34.34.34.34.34.34.34.34.34.34.34.34.34.34.34.34.34.34.34.34.34.34.34.34.2.2a88.21,88.21,0,0,0,56.56-56.56l-.2-.2Z"/></g><g id="relaxed-3" data-name="relaxed"><path class="cls-3" d="M136,96A40,40,0,1,1,96,56a40,40,0,0,1,40,40"/><circle class="cls-4" cx="121.16" cy="100.41" r="10.34"/><circle class="cls-4" cx="70.84" cy="100.41" r="10.34"/><path class="cls-5" d="M110.39,105a1.82,1.82,0,0,0-1-1,2,2,0,0,0-1.39-.09,1.88,1.88,0,0,0-1.17,1,12.25,12.25,0,0,1-21.72,0,1.87,1.87,0,0,0-1.16-1,2,2,0,0,0-1.39.08,1.83,1.83,0,0,0-1,1,1.67,1.67,0,0,0,.07,1.33,16.19,16.19,0,0,0,28.65,0A1.68,1.68,0,0,0,110.39,105Z"/><path class="cls-6" d="M89.67,89.83a2,2,0,0,1-2-2,6.84,6.84,0,1,0-13.67,0,2,2,0,0,1-4,0,10.83,10.83,0,1,1,21.67,0,2,2,0,0,1-2,2Z"/><path class="cls-6" d="M120,89.83a2,2,0,0,1-2-2,6.84,6.84,0,1,0-13.67,0,2,2,0,0,1-4,0,10.83,10.83,0,1,1,21.67,0,2,2,0,0,1-2,2Z"/></g></g></g></svg>
    <svg id="relieved" xmlns="http://www.w3.org/2000/svg" viewBox="0 0 192 192"><defs><style>.cls-1{fill:#00897b;}.cls-2,.cls-4{fill:#263238;}.cls-2{opacity:0;}.cls-3{fill:#ffca28;}.cls-5{fill:#e53935;}.cls-6{fill:#fff;}.cls-7{fill:#00b0ff;}</style></defs><title>relieved</title><g id="relieved"><g id="relieved-2" data-name="relieved"><circle id="label" class="cls-1" cx="96" cy="94" r="50"/><g id="shadow"><path class="cls-2" d="M179.19,122.63l-.34-.34-.34-.34-.34-.34-.34-.34-.34-.34-.34-.34-.34-.34-.34-.34-.34-.34-.34-.34-.34-.34-.34-.34-.34-.34-.34-.34-.34-.34-.34-.34-.34-.34-.34-.34-.34-.34-.34-.34-.34-.34-.34-.34-.34-.34-.34-.34-.34-.34-.34-.34-.34-.34-.34-.34-.34-.34-.34-.34-.34-.34-.34-.34-.34-.34-.34-.34-.34-.34-.34-.34-.34-.34-.34-.34-.34-.34-.34-.34-.34-.34-.34-.34-.34-.34-.34-.34-.34-.34-.34-.34-.34-.34-.34-.34-.34-.34-.34-.34-.34-.34-.34-.34-.34-.34-.34-.34-.34-.34-.34-.34-.34-.34-.34-.34-.34-.34-.34-.34-.34-.34-.34-.34-.34-.34-.34-.34-.34-.34-.34-.34-.34-.34-.34-.34-.34-.34-.34-.34-.34-.34-.34-.34-.34-.34-.34-.34-.34-.34-.34-.34-.34-.34-.34-.34-.34-.34-.34-.34-.34-.34-.34-.34-.34-.34-.34-.34-.34-.34-.34-.34-.34-.34-.34-.34-.34-.34L149,92.4l-.34-.34-.34-.34L148,91.4l-.34-.34-.34-.34-.34-.34-.34-.34-.34-.34-.34-.34L145.6,89l-.34-.34-.34-.34L144.6,88l-.34-.34-.34-.34-.34-.34-.34-.34-.34-.34-.34-.34-.34-.34-.34-.34-.34-.34-.34-.34-.34-.34-.34-.34-.34-.34-.34-.34-.34-.34-.34-.34-.34-.34-.34-.34-.34-.34-.34-.34-.34-.34-.34-.34-.34-.34-.34-.34-.34-.34-.34-.34-.34-.34-.34-.34-.34-.34-.34-.34-.34-.34-.34-.34-.34-.34-.34-.34-.34-.34-.34-.34-.34-.34-.34-.34-.34-.34-.34-.34-.34-.34-.34-.34-.34-.34-.34-.34-.34-.34-.34-.34-.34-.34-.34-.34-.34-.34-.34-.34-.34-.34-.34-.34-.34-.34-.34-.34-.34-.34-.34-.34-.34-.34-.34-.34-.34-.34-.34-.34a40,40,0,1,0-56.56,56.56l.34.34.34.34.34.34.34.34.34.34.34.34.34.34.34.34.34.34.34.34.34.34.34.34.34.34.34.34.34.34.34.34.34.34.34.34.34.34.34.34.34.34.34.34.34.34.34.34.34.34.34.34.34.34.34.34.34.34.34.34.34.34.34.34.34.34.34.34.34.34.34.34.34.34.34.34.34.34.34.34.34.34.34.34.34.34.34.34.34.34.34.34.34.34.34.34.34.34.34.34.34.34.34.34.34.34.34.34.34.34.34.34.34.34.34.34.34.34.34.34.34.34.34.34.34.34.34.34.34.34.34.34.34.34.34.34.34.34.34.34.34.34.34.34.34.34.34.34.34.34.34.34.34.34.34.34.34.34.34.34.34.34.34.34.34.34.34.34.34.34.34.34.34.34.34.34.34.34.34.34.34.34.34.34.34.34.34.34.34.34.34.34.34.34.34.34.34.34.34.34.34.34.34.34.34.34.34.34.34.34.34.34.34.34.34.34.34.34.34.34.34.34.34.34.34.34.34.34.34.34.34.34.34.34.34.34.34.34.34.34.34.34.34.34.34.34.34.34.34.34.34.34.34.34.34.34.34.34.34.34.34.34.34.34.34.34.34.34.34.34.34.34.34.34.34.34.34.34.34.34.34.34.34.34.34.34.34.34.34.34.34.34.34.34.34.34.34.34.34.34.34.34.34.34.34.34.34.34.34.34.34.34.34.34.34.34.34.34.34.34.34.34.34.34.34.34.34.34.2.2a88.21,88.21,0,0,0,56.56-56.56l-.2-.2Z"/></g><g id="relieved-3" data-name="relieved"><circle class="cls-3" cx="96" cy="96" r="40"/><path class="cls-4" d="M88.34,84.72a1.66,1.66,0,0,1-1.66-1.66,5.68,5.68,0,1,0-11.36,0,1.66,1.66,0,0,1-3.32,0,9,9,0,1,1,18,0,1.66,1.66,0,0,1-1.66,1.66Z"/><path class="cls-4" d="M118.34,84.72a1.66,1.66,0,0,1-1.66-1.66,5.68,5.68,0,1,0-11.36,0,1.66,1.66,0,0,1-3.32,0,9,9,0,1,1,18,0,1.66,1.66,0,0,1-1.66,1.66Z"/><path class="cls-5" d="M119.13,101.12H72.87A20.14,20.14,0,0,1,72,96.86c.94,10.78,11.32,21.08,24,21.08s23.06-10.3,24-21.08A20,20,0,0,1,119.13,101.12Z"/><path class="cls-6" d="M119.53,101.59a20.35,20.35,0,0,0,.89-4.32l0-.22c0-.47.06-.93.06-1.4h-49c0,.47,0,.94.06,1.4l0,.21a20.49,20.49,0,0,0,.89,4.33Z"/><path class="cls-7" d="M124,77.28c4.43,0,6.64-3.37,5.65-8.15-.67-3.25-3.44-7-5.66-10.41-2.21,3.37-5,7.16-5.65,10.41C117.36,73.9,119.57,77.28,124,77.28Z"/></g></g></g></svg>
    <svg id="scared" xmlns="http://www.w3.org/2000/svg" viewBox="0 0 192 192"><defs><style>.cls-1{fill:#0277bd;}.cls-2,.cls-6{fill:#263238;}.cls-2{opacity:0;}.cls-3{fill:#ffca28;}.cls-4{fill:#b71c1c;}.cls-5{fill:#e53935;}</style></defs><title>scared</title><g id="scared"><g id="scared-2" data-name="scared"><circle id="label" class="cls-1" cx="96" cy="94" r="50"/><g id="shadow"><path class="cls-2" d="M179.19,122.63l-.34-.34-.34-.34-.34-.34-.34-.34-.34-.34-.34-.34-.34-.34-.34-.34-.34-.34-.34-.34-.34-.34-.34-.34-.34-.34-.34-.34-.34-.34-.34-.34-.34-.34-.34-.34-.34-.34-.34-.34-.34-.34-.34-.34-.34-.34-.34-.34-.34-.34-.34-.34-.34-.34-.34-.34-.34-.34-.34-.34-.34-.34-.34-.34-.34-.34-.34-.34-.34-.34-.34-.34-.34-.34-.34-.34-.34-.34-.34-.34-.34-.34-.34-.34-.34-.34-.34-.34-.34-.34-.34-.34-.34-.34-.34-.34-.34-.34-.34-.34-.34-.34-.34-.34-.34-.34-.34-.34-.34-.34-.34-.34-.34-.34-.34-.34-.34-.34-.34-.34-.34-.34-.34-.34-.34-.34-.34-.34-.34-.34-.34-.34-.34-.34-.34-.34-.34-.34-.34-.34-.34-.34-.34-.34-.34-.34-.34-.34-.34-.34-.34-.34-.34-.34-.34-.34-.34-.34-.34-.34-.34-.34-.34-.34-.34-.34-.34-.34-.34-.34-.34-.34-.34-.34-.34-.34-.34-.34L149,92.4l-.34-.34-.34-.34L148,91.4l-.34-.34-.34-.34-.34-.34-.34-.34-.34-.34-.34-.34L145.6,89l-.34-.34-.34-.34L144.6,88l-.34-.34-.34-.34-.34-.34-.34-.34-.34-.34-.34-.34-.34-.34-.34-.34-.34-.34-.34-.34-.34-.34-.34-.34-.34-.34-.34-.34-.34-.34-.34-.34-.34-.34-.34-.34-.34-.34-.34-.34-.34-.34-.34-.34-.34-.34-.34-.34-.34-.34-.34-.34-.34-.34-.34-.34-.34-.34-.34-.34-.34-.34-.34-.34-.34-.34-.34-.34-.34-.34-.34-.34-.34-.34-.34-.34-.34-.34-.34-.34-.34-.34-.34-.34-.34-.34-.34-.34-.34-.34-.34-.34-.34-.34-.34-.34-.34-.34-.34-.34-.34-.34-.34-.34-.34-.34-.34-.34-.34-.34-.34-.34-.34-.34-.34-.34-.34-.34-.34-.34a40,40,0,1,0-56.56,56.56l.34.34.34.34.34.34.34.34.34.34.34.34.34.34.34.34.34.34.34.34.34.34.34.34.34.34.34.34.34.34.34.34.34.34.34.34.34.34.34.34.34.34.34.34.34.34.34.34.34.34.34.34.34.34.34.34.34.34.34.34.34.34.34.34.34.34.34.34.34.34.34.34.34.34.34.34.34.34.34.34.34.34.34.34.34.34.34.34.34.34.34.34.34.34.34.34.34.34.34.34.34.34.34.34.34.34.34.34.34.34.34.34.34.34.34.34.34.34.34.34.34.34.34.34.34.34.34.34.34.34.34.34.34.34.34.34.34.34.34.34.34.34.34.34.34.34.34.34.34.34.34.34.34.34.34.34.34.34.34.34.34.34.34.34.34.34.34.34.34.34.34.34.34.34.34.34.34.34.34.34.34.34.34.34.34.34.34.34.34.34.34.34.34.34.34.34.34.34.34.34.34.34.34.34.34.34.34.34.34.34.34.34.34.34.34.34.34.34.34.34.34.34.34.34.34.34.34.34.34.34.34.34.34.34.34.34.34.34.34.34.34.34.34.34.34.34.34.34.34.34.34.34.34.34.34.34.34.34.34.34.34.34.34.34.34.34.34.34.34.34.34.34.34.34.34.34.34.34.34.34.34.34.34.34.34.34.34.34.34.34.34.34.34.34.34.34.34.34.34.34.34.34.34.34.34.34.34.34.34.34.34.34.34.34.34.34.34.34.34.34.34.34.34.34.34.34.34.34.2.2a88.21,88.21,0,0,0,56.56-56.56l-.2-.2Z"/></g><g id="scared-3" data-name="scared"><circle class="cls-3" cx="96" cy="96" r="40"/><path class="cls-4" d="M96,95.53a22.52,22.52,0,0,0-22.4,22.64h44.8A22.52,22.52,0,0,0,96,95.53"/><path class="cls-5" d="M73.6,118.17c0-5.68,10-10.29,22.4-10.29s22.4,4.61,22.4,10.29"/><path class="cls-6" d="M88.34,84.5a1.66,1.66,0,0,1-1.66-1.66,5.68,5.68,0,1,0-11.36,0,1.66,1.66,0,0,1-3.32,0,9,9,0,1,1,18,0,1.66,1.66,0,0,1-1.66,1.66Z"/><path class="cls-6" d="M118.34,84.5a1.66,1.66,0,0,1-1.66-1.66,5.68,5.68,0,1,0-11.36,0,1.66,1.66,0,0,1-3.32,0,9,9,0,1,1,18,0,1.66,1.66,0,0,1-1.66,1.66Z"/></g></g></g></svg>
    <svg id="sceptic" xmlns="http://www.w3.org/2000/svg" viewBox="0 0 192 192"><defs><style>.cls-1{fill:#fff;}.cls-2,.cls-6{fill:#263238;}.cls-2{opacity:0;}.cls-3{fill:#ffca28;}.cls-4{fill:#e53935;}.cls-5{fill:#fff;}</style></defs><title>sceptic</title><g id="sceptic"><g id="sceptic-2" data-name="sceptic"><circle id="label" class="cls-1" cx="96" cy="94" r="50"/><g id="shadow"><path class="cls-2" d="M179.19,122.63l-.34-.34-.34-.34-.34-.34-.34-.34-.34-.34-.34-.34-.34-.34-.34-.34-.34-.34-.34-.34-.34-.34-.34-.34-.34-.34-.34-.34-.34-.34-.34-.34-.34-.34-.34-.34-.34-.34-.34-.34-.34-.34-.34-.34-.34-.34-.34-.34-.34-.34-.34-.34-.34-.34-.34-.34-.34-.34-.34-.34-.34-.34-.34-.34-.34-.34-.34-.34-.34-.34-.34-.34-.34-.34-.34-.34-.34-.34-.34-.34-.34-.34-.34-.34-.34-.34-.34-.34-.34-.34-.34-.34-.34-.34-.34-.34-.34-.34-.34-.34-.34-.34-.34-.34-.34-.34-.34-.34-.34-.34-.34-.34-.34-.34-.34-.34-.34-.34-.34-.34-.34-.34-.34-.34-.34-.34-.34-.34-.34-.34-.34-.34-.34-.34-.34-.34-.34-.34-.34-.34-.34-.34-.34-.34-.34-.34-.34-.34-.34-.34-.34-.34-.34-.34-.34-.34-.34-.34-.34-.34-.34-.34-.34-.34-.34-.34-.34-.34-.34-.34-.34-.34-.34-.34-.34-.34-.34-.34L149,92.4l-.34-.34-.34-.34L148,91.4l-.34-.34-.34-.34-.34-.34-.34-.34-.34-.34-.34-.34L145.6,89l-.34-.34-.34-.34L144.6,88l-.34-.34-.34-.34-.34-.34-.34-.34-.34-.34-.34-.34-.34-.34-.34-.34-.34-.34-.34-.34-.34-.34-.34-.34-.34-.34-.34-.34-.34-.34-.34-.34-.34-.34-.34-.34-.34-.34-.34-.34-.34-.34-.34-.34-.34-.34-.34-.34-.34-.34-.34-.34-.34-.34-.34-.34-.34-.34-.34-.34-.34-.34-.34-.34-.34-.34-.34-.34-.34-.34-.34-.34-.34-.34-.34-.34-.34-.34-.34-.34-.34-.34-.34-.34-.34-.34-.34-.34-.34-.34-.34-.34-.34-.34-.34-.34-.34-.34-.34-.34-.34-.34-.34-.34-.34-.34-.34-.34-.34-.34-.34-.34-.34-.34-.34-.34-.34-.34-.34-.34a40,40,0,1,0-56.56,56.56l.34.34.34.34.34.34.34.34.34.34.34.34.34.34.34.34.34.34.34.34.34.34.34.34.34.34.34.34.34.34.34.34.34.34.34.34.34.34.34.34.34.34.34.34.34.34.34.34.34.34.34.34.34.34.34.34.34.34.34.34.34.34.34.34.34.34.34.34.34.34.34.34.34.34.34.34.34.34.34.34.34.34.34.34.34.34.34.34.34.34.34.34.34.34.34.34.34.34.34.34.34.34.34.34.34.34.34.34.34.34.34.34.34.34.34.34.34.34.34.34.34.34.34.34.34.34.34.34.34.34.34.34.34.34.34.34.34.34.34.34.34.34.34.34.34.34.34.34.34.34.34.34.34.34.34.34.34.34.34.34.34.34.34.34.34.34.34.34.34.34.34.34.34.34.34.34.34.34.34.34.34.34.34.34.34.34.34.34.34.34.34.34.34.34.34.34.34.34.34.34.34.34.34.34.34.34.34.34.34.34.34.34.34.34.34.34.34.34.34.34.34.34.34.34.34.34.34.34.34.34.34.34.34.34.34.34.34.34.34.34.34.34.34.34.34.34.34.34.34.34.34.34.34.34.34.34.34.34.34.34.34.34.34.34.34.34.34.34.34.34.34.34.34.34.34.34.34.34.34.34.34.34.34.34.34.34.34.34.34.34.34.34.34.34.34.34.34.34.34.34.34.34.34.34.34.34.34.34.34.34.34.34.34.34.34.34.34.34.34.34.34.34.34.34.34.34.34.34.2.2a88.21,88.21,0,0,0,56.56-56.56l-.2-.2Z"/></g><g id="sceptic-3" data-name="sceptic"><path class="cls-3" d="M136,96A40,40,0,1,1,96,56a40,40,0,0,1,40,40"/><path class="cls-4" d="M110.76,117.92H81.24c-.71,0-1.28-1-1.28-2.29s.57-2.29,1.28-2.29h29.52c.71,0,1.28,1,1.28,2.29s-.58,2.29-1.28,2.29Z"/><path class="cls-5" d="M123.5,85.2a11.12,11.12,0,1,1-11.12-11.12A11.12,11.12,0,0,1,123.5,85.2"/><path class="cls-6" d="M113.37,80.66a4.76,4.76,0,1,1-4.77-4.76,4.77,4.77,0,0,1,4.77,4.76"/><path class="cls-5" d="M90.73,85.2A11.12,11.12,0,1,1,79.62,74.08,11.12,11.12,0,0,1,90.73,85.2"/><path class="cls-6" d="M80.6,80.66a4.76,4.76,0,1,1-4.77-4.76,4.77,4.77,0,0,1,4.77,4.76"/></g></g></g></svg>
    <svg id="shocked-2" xmlns="http://www.w3.org/2000/svg" viewBox="0 0 192 192"><defs><style>.cls-1{fill:#ff8f00;}.cls-2,.cls-6{fill:#263238;}.cls-2{opacity:0;}.cls-3{fill:#ffca28;}.cls-4{fill:#e53935;}.cls-5{fill:#fff;}</style></defs><title>shocked-2</title><g id="shocked-2"><g id="shocked-2-2" data-name="shocked-2"><circle id="label" class="cls-1" cx="96" cy="94" r="50"/><g id="shadow"><path class="cls-2" d="M179.19,122.63l-.34-.34-.34-.34-.34-.34-.34-.34-.34-.34-.34-.34-.34-.34-.34-.34-.34-.34-.34-.34-.34-.34-.34-.34-.34-.34-.34-.34-.34-.34-.34-.34-.34-.34-.34-.34-.34-.34-.34-.34-.34-.34-.34-.34-.34-.34-.34-.34-.34-.34-.34-.34-.34-.34-.34-.34-.34-.34-.34-.34-.34-.34-.34-.34-.34-.34-.34-.34-.34-.34-.34-.34-.34-.34-.34-.34-.34-.34-.34-.34-.34-.34-.34-.34-.34-.34-.34-.34-.34-.34-.34-.34-.34-.34-.34-.34-.34-.34-.34-.34-.34-.34-.34-.34-.34-.34-.34-.34-.34-.34-.34-.34-.34-.34-.34-.34-.34-.34-.34-.34-.34-.34-.34-.34-.34-.34-.34-.34-.34-.34-.34-.34-.34-.34-.34-.34-.34-.34-.34-.34-.34-.34-.34-.34-.34-.34-.34-.34-.34-.34-.34-.34-.34-.34-.34-.34-.34-.34-.34-.34-.34-.34-.34-.34-.34-.34-.34-.34-.34-.34-.34-.34-.34-.34-.34-.34-.34-.34L149,92.4l-.34-.34-.34-.34L148,91.4l-.34-.34-.34-.34-.34-.34-.34-.34-.34-.34-.34-.34L145.6,89l-.34-.34-.34-.34L144.6,88l-.34-.34-.34-.34-.34-.34-.34-.34-.34-.34-.34-.34-.34-.34-.34-.34-.34-.34-.34-.34-.34-.34-.34-.34-.34-.34-.34-.34-.34-.34-.34-.34-.34-.34-.34-.34-.34-.34-.34-.34-.34-.34-.34-.34-.34-.34-.34-.34-.34-.34-.34-.34-.34-.34-.34-.34-.34-.34-.34-.34-.34-.34-.34-.34-.34-.34-.34-.34-.34-.34-.34-.34-.34-.34-.34-.34-.34-.34-.34-.34-.34-.34-.34-.34-.34-.34-.34-.34-.34-.34-.34-.34-.34-.34-.34-.34-.34-.34-.34-.34-.34-.34-.34-.34-.34-.34-.34-.34-.34-.34-.34-.34-.34-.34-.34-.34-.34-.34-.34-.34a40,40,0,1,0-56.56,56.56l.34.34.34.34.34.34.34.34.34.34.34.34.34.34.34.34.34.34.34.34.34.34.34.34.34.34.34.34.34.34.34.34.34.34.34.34.34.34.34.34.34.34.34.34.34.34.34.34.34.34.34.34.34.34.34.34.34.34.34.34.34.34.34.34.34.34.34.34.34.34.34.34.34.34.34.34.34.34.34.34.34.34.34.34.34.34.34.34.34.34.34.34.34.34.34.34.34.34.34.34.34.34.34.34.34.34.34.34.34.34.34.34.34.34.34.34.34.34.34.34.34.34.34.34.34.34.34.34.34.34.34.34.34.34.34.34.34.34.34.34.34.34.34.34.34.34.34.34.34.34.34.34.34.34.34.34.34.34.34.34.34.34.34.34.34.34.34.34.34.34.34.34.34.34.34.34.34.34.34.34.34.34.34.34.34.34.34.34.34.34.34.34.34.34.34.34.34.34.34.34.34.34.34.34.34.34.34.34.34.34.34.34.34.34.34.34.34.34.34.34.34.34.34.34.34.34.34.34.34.34.34.34.34.34.34.34.34.34.34.34.34.34.34.34.34.34.34.34.34.34.34.34.34.34.34.34.34.34.34.34.34.34.34.34.34.34.34.34.34.34.34.34.34.34.34.34.34.34.34.34.34.34.34.34.34.34.34.34.34.34.34.34.34.34.34.34.34.34.34.34.34.34.34.34.34.34.34.34.34.34.34.34.34.34.34.34.34.34.34.34.34.34.34.34.34.34.34.34.2.2a88.21,88.21,0,0,0,56.56-56.56l-.2-.2Z"/></g><g id="shocked-2-3" data-name="shocked-2"><circle class="cls-3" cx="96" cy="96" r="40"/><circle class="cls-4" cx="96" cy="109.25" r="12.5"/><circle class="cls-5" cx="110" cy="80.25" r="10"/><circle class="cls-6" cx="110" cy="80.25" r="5"/><circle class="cls-5" cx="82" cy="80.25" r="10"/><circle class="cls-6" cx="82" cy="80.25" r="5"/></g></g></g></svg>
    <svg id="shocked" xmlns="http://www.w3.org/2000/svg" viewBox="0 0 192 192"><defs><style>.cls-1{fill:#ec407a;}.cls-2,.cls-4{fill:#263238;}.cls-2{opacity:0;}.cls-3{fill:#ffca28;}.cls-5{fill:#e53935;}.cls-6{fill:#fff;}</style></defs><title>shocked</title><g id="shocked"><g id="shocked-2-2" data-name="shocked"><circle id="label" class="cls-1" cx="96" cy="94" r="50"/><g id="shadow"><path class="cls-2" d="M179.19,122.63l-.34-.34-.34-.34-.34-.34-.34-.34-.34-.34-.34-.34-.34-.34-.34-.34-.34-.34-.34-.34-.34-.34-.34-.34-.34-.34-.34-.34-.34-.34-.34-.34-.34-.34-.34-.34-.34-.34-.34-.34-.34-.34-.34-.34-.34-.34-.34-.34-.34-.34-.34-.34-.34-.34-.34-.34-.34-.34-.34-.34-.34-.34-.34-.34-.34-.34-.34-.34-.34-.34-.34-.34-.34-.34-.34-.34-.34-.34-.34-.34-.34-.34-.34-.34-.34-.34-.34-.34-.34-.34-.34-.34-.34-.34-.34-.34-.34-.34-.34-.34-.34-.34-.34-.34-.34-.34-.34-.34-.34-.34-.34-.34-.34-.34-.34-.34-.34-.34-.34-.34-.34-.34-.34-.34-.34-.34-.34-.34-.34-.34-.34-.34-.34-.34-.34-.34-.34-.34-.34-.34-.34-.34-.34-.34-.34-.34-.34-.34-.34-.34-.34-.34-.34-.34-.34-.34-.34-.34-.34-.34-.34-.34-.34-.34-.34-.34-.34-.34-.34-.34-.34-.34-.34-.34-.34-.34-.34-.34L149,92.4l-.34-.34-.34-.34L148,91.4l-.34-.34-.34-.34-.34-.34-.34-.34-.34-.34-.34-.34L145.6,89l-.34-.34-.34-.34L144.6,88l-.34-.34-.34-.34-.34-.34-.34-.34-.34-.34-.34-.34-.34-.34-.34-.34-.34-.34-.34-.34-.34-.34-.34-.34-.34-.34-.34-.34-.34-.34-.34-.34-.34-.34-.34-.34-.34-.34-.34-.34-.34-.34-.34-.34-.34-.34-.34-.34-.34-.34-.34-.34-.34-.34-.34-.34-.34-.34-.34-.34-.34-.34-.34-.34-.34-.34-.34-.34-.34-.34-.34-.34-.34-.34-.34-.34-.34-.34-.34-.34-.34-.34-.34-.34-.34-.34-.34-.34-.34-.34-.34-.34-.34-.34-.34-.34-.34-.34-.34-.34-.34-.34-.34-.34-.34-.34-.34-.34-.34-.34-.34-.34-.34-.34-.34-.34-.34-.34-.34-.34a40,40,0,1,0-56.56,56.56l.34.34.34.34.34.34.34.34.34.34.34.34.34.34.34.34.34.34.34.34.34.34.34.34.34.34.34.34.34.34.34.34.34.34.34.34.34.34.34.34.34.34.34.34.34.34.34.34.34.34.34.34.34.34.34.34.34.34.34.34.34.34.34.34.34.34.34.34.34.34.34.34.34.34.34.34.34.34.34.34.34.34.34.34.34.34.34.34.34.34.34.34.34.34.34.34.34.34.34.34.34.34.34.34.34.34.34.34.34.34.34.34.34.34.34.34.34.34.34.34.34.34.34.34.34.34.34.34.34.34.34.34.34.34.34.34.34.34.34.34.34.34.34.34.34.34.34.34.34.34.34.34.34.34.34.34.34.34.34.34.34.34.34.34.34.34.34.34.34.34.34.34.34.34.34.34.34.34.34.34.34.34.34.34.34.34.34.34.34.34.34.34.34.34.34.34.34.34.34.34.34.34.34.34.34.34.34.34.34.34.34.34.34.34.34.34.34.34.34.34.34.34.34.34.34.34.34.34.34.34.34.34.34.34.34.34.34.34.34.34.34.34.34.34.34.34.34.34.34.34.34.34.34.34.34.34.34.34.34.34.34.34.34.34.34.34.34.34.34.34.34.34.34.34.34.34.34.34.34.34.34.34.34.34.34.34.34.34.34.34.34.34.34.34.34.34.34.34.34.34.34.34.34.34.34.34.34.34.34.34.34.34.34.34.34.34.34.34.34.34.34.34.34.34.34.34.34.34.2.2a88.21,88.21,0,0,0,56.56-56.56l-.2-.2Z"/></g><g id="shocked-3" data-name="shocked"><path class="cls-3" d="M136,96A40,40,0,1,1,96,56a40,40,0,0,1,40,40"/><path class="cls-4" d="M72.6,91.1a1.6,1.6,0,0,1-1.13-2.73L87.65,72.18a1.6,1.6,0,0,1,2.27,2.27L73.74,90.63a1.6,1.6,0,0,1-1.13.47Z"/><path class="cls-4" d="M88.79,91.1a1.6,1.6,0,0,1-1.13-.47L71.47,74.45a1.6,1.6,0,0,1,2.27-2.27L89.92,88.37a1.6,1.6,0,0,1-1.13,2.73Z"/><path class="cls-4" d="M103.21,91.1a1.6,1.6,0,0,1-1.13-2.73l16.18-16.18a1.6,1.6,0,0,1,2.27,2.27L104.35,90.63a1.6,1.6,0,0,1-1.13.47Z"/><path class="cls-4" d="M119.4,91.1a1.6,1.6,0,0,1-1.13-.47L102.08,74.45a1.6,1.6,0,0,1,2.27-2.27l16.18,16.18a1.6,1.6,0,0,1-1.13,2.73Z"/><path class="cls-5" d="M104.6,107.48H87.4a9.29,9.29,0,1,0,17.19,0Z"/><path class="cls-6" d="M104.59,107.48a8.81,8.81,0,0,0-.57-1.15l-.09-.15a9.44,9.44,0,0,0-1.58-1.95l-.16-.14a9.47,9.47,0,0,0-1-.77h0a9.18,9.18,0,0,0-1.06-.62l-.24-.12a9.39,9.39,0,0,0-1.12-.45h0a9.05,9.05,0,0,0-1.21-.28l-.3,0a8.35,8.35,0,0,0-2.55,0l-.3,0a9.05,9.05,0,0,0-1.21.28h0a9.61,9.61,0,0,0-1.12.45l-.24.12a9.23,9.23,0,0,0-1.06.62h0a9.1,9.1,0,0,0-1,.77l-.16.14a9.24,9.24,0,0,0-1.58,1.95l-.09.15a9.67,9.67,0,0,0-.57,1.15h17.19Z"/></g></g></g></svg>
    <svg id="sleeping" xmlns="http://www.w3.org/2000/svg" viewBox="0 0 192 192"><defs><style>.cls-1{fill:#ab47bc;}.cls-2,.cls-4{fill:#263238;}.cls-2{opacity:0;}.cls-3{fill:#ffca28;}.cls-5{fill:#e53935;}.cls-6{fill:#29b6f6;}</style></defs><title>sleeping</title><g id="sleeping"><g id="sleeping-2" data-name="sleeping"><circle id="label" class="cls-1" cx="96" cy="94" r="50"/><g id="shadow"><path class="cls-2" d="M179.19,122.63l-.34-.34-.34-.34-.34-.34-.34-.34-.34-.34-.34-.34-.34-.34-.34-.34-.34-.34-.34-.34-.34-.34-.34-.34-.34-.34-.34-.34-.34-.34-.34-.34-.34-.34-.34-.34-.34-.34-.34-.34-.34-.34-.34-.34-.34-.34-.34-.34-.34-.34-.34-.34-.34-.34-.34-.34-.34-.34-.34-.34-.34-.34-.34-.34-.34-.34-.34-.34-.34-.34-.34-.34-.34-.34-.34-.34-.34-.34-.34-.34-.34-.34-.34-.34-.34-.34-.34-.34-.34-.34-.34-.34-.34-.34-.34-.34-.34-.34-.34-.34-.34-.34-.34-.34-.34-.34-.34-.34-.34-.34-.34-.34-.34-.34-.34-.34-.34-.34-.34-.34-.34-.34-.34-.34-.34-.34-.34-.34-.34-.34-.34-.34-.34-.34-.34-.34-.34-.34-.34-.34-.34-.34-.34-.34-.34-.34-.34-.34-.34-.34-.34-.34-.34-.34-.34-.34-.34-.34-.34-.34-.34-.34-.34-.34-.34-.34-.34-.34-.34-.34-.34-.34-.34-.34-.34-.34-.34-.34L149,92.4l-.34-.34-.34-.34L148,91.4l-.34-.34-.34-.34-.34-.34-.34-.34-.34-.34-.34-.34L145.6,89l-.34-.34-.34-.34L144.6,88l-.34-.34-.34-.34-.34-.34-.34-.34-.34-.34-.34-.34-.34-.34-.34-.34-.34-.34-.34-.34-.34-.34-.34-.34-.34-.34-.34-.34-.34-.34-.34-.34-.34-.34-.34-.34-.34-.34-.34-.34-.34-.34-.34-.34-.34-.34-.34-.34-.34-.34-.34-.34-.34-.34-.34-.34-.34-.34-.34-.34-.34-.34-.34-.34-.34-.34-.34-.34-.34-.34-.34-.34-.34-.34-.34-.34-.34-.34-.34-.34-.34-.34-.34-.34-.34-.34-.34-.34-.34-.34-.34-.34-.34-.34-.34-.34-.34-.34-.34-.34-.34-.34-.34-.34-.34-.34-.34-.34-.34-.34-.34-.34-.34-.34-.34-.34-.34-.34-.34-.34a40,40,0,1,0-56.56,56.56l.34.34.34.34.34.34.34.34.34.34.34.34.34.34.34.34.34.34.34.34.34.34.34.34.34.34.34.34.34.34.34.34.34.34.34.34.34.34.34.34.34.34.34.34.34.34.34.34.34.34.34.34.34.34.34.34.34.34.34.34.34.34.34.34.34.34.34.34.34.34.34.34.34.34.34.34.34.34.34.34.34.34.34.34.34.34.34.34.34.34.34.34.34.34.34.34.34.34.34.34.34.34.34.34.34.34.34.34.34.34.34.34.34.34.34.34.34.34.34.34.34.34.34.34.34.34.34.34.34.34.34.34.34.34.34.34.34.34.34.34.34.34.34.34.34.34.34.34.34.34.34.34.34.34.34.34.34.34.34.34.34.34.34.34.34.34.34.34.34.34.34.34.34.34.34.34.34.34.34.34.34.34.34.34.34.34.34.34.34.34.34.34.34.34.34.34.34.34.34.34.34.34.34.34.34.34.34.34.34.34.34.34.34.34.34.34.34.34.34.34.34.34.34.34.34.34.34.34.34.34.34.34.34.34.34.34.34.34.34.34.34.34.34.34.34.34.34.34.34.34.34.34.34.34.34.34.34.34.34.34.34.34.34.34.34.34.34.34.34.34.34.34.34.34.34.34.34.34.34.34.34.34.34.34.34.34.34.34.34.34.34.34.34.34.34.34.34.34.34.34.34.34.34.34.34.34.34.34.34.34.34.34.34.34.34.34.34.34.34.34.34.34.34.34.34.34.34.34.2.2a88.21,88.21,0,0,0,56.56-56.56l-.2-.2Z"/></g><g id="sleeping-3" data-name="sleeping"><circle class="cls-3" cx="96" cy="96" r="40"/><path class="cls-4" d="M82.26,91A10.27,10.27,0,0,1,72,80.71a1.67,1.67,0,0,1,3.33,0,6.92,6.92,0,0,0,13.85,0,1.67,1.67,0,0,1,3.33,0A10.27,10.27,0,0,1,82.26,91Z"/><path class="cls-4" d="M109.74,91A10.27,10.27,0,0,1,99.49,80.71a1.67,1.67,0,1,1,3.33,0,6.92,6.92,0,0,0,13.85,0,1.67,1.67,0,0,1,3.33,0A10.27,10.27,0,0,1,109.74,91Z"/><path class="cls-5" d="M107.71,113H84.29a1.74,1.74,0,0,1,0-3.48h23.42a1.74,1.74,0,0,1,0,3.48Z"/><path class="cls-6" d="M114.7,135.2h-9.27a1.6,1.6,0,0,1-1.28-2.56l8-10.64H104.8a1.6,1.6,0,0,1,0-3.2h10.52a1.6,1.6,0,0,1,1.28,2.56l-8,10.64h6.07a1.6,1.6,0,0,1,0,3.2Z"/><path class="cls-6" d="M131.2,135.2h-9.74a1.6,1.6,0,0,1-1.22-2.64l6.17-7.26H121.3a1.6,1.6,0,0,1,0-3.2h8.57a1.6,1.6,0,0,1,1.22,2.64L124.92,132h6.28a1.6,1.6,0,0,1,0,3.2Z"/></g></g></g></svg>
    <svg id="smiling-star" xmlns="http://www.w3.org/2000/svg" viewBox="0 0 192 192"><defs><style>.cls-1{fill:#7cb342;}.cls-2{fill:#263238;opacity:0.1;}.cls-3{fill:#ffca28;}.cls-4{fill:#e53935;}.cls-5{fill:#fff;}.cls-6{fill:#0277bd;}</style></defs><title>smiling-star</title><g id="smiling-star"><g id="smiling-star-2" data-name="smiling-star"><circle id="label" class="cls-1" cx="96" cy="94" r="50"/><g id="shadow"><path class="cls-2" d="M179.19,122.63l-.34-.34-.34-.34-.34-.34-.34-.34-.34-.34-.34-.34-.34-.34-.34-.34-.34-.34-.34-.34-.34-.34-.34-.34-.34-.34-.34-.34-.34-.34-.34-.34-.34-.34-.34-.34-.34-.34-.34-.34-.34-.34-.34-.34-.34-.34-.34-.34-.34-.34-.34-.34-.34-.34-.34-.34-.34-.34-.34-.34-.34-.34-.34-.34-.34-.34-.34-.34-.34-.34-.34-.34-.34-.34-.34-.34-.34-.34-.34-.34-.34-.34-.34-.34-.34-.34-.34-.34-.34-.34-.34-.34-.34-.34-.34-.34-.34-.34-.34-.34-.34-.34-.34-.34-.34-.34-.34-.34-.34-.34-.34-.34-.34-.34-.34-.34-.34-.34-.34-.34-.34-.34-.34-.34-.34-.34-.34-.34-.34-.34-.34-.34-.34-.34-.34-.34-.34-.34-.34-.34-.34-.34-.34-.34-.34-.34-.34-.34-.34-.34-.34-.34-.34-.34-.34-.34-.34-.34-.34-.34-.34-.34-.34-.34-.34-.34-.34-.34-.34-.34-.34-.34-.34-.34-.34-.34-.34-.34L149,92.4l-.34-.34-.34-.34L148,91.4l-.34-.34-.34-.34-.34-.34-.34-.34-.34-.34-.34-.34L145.6,89l-.34-.34-.34-.34L144.6,88l-.34-.34-.34-.34-.34-.34-.34-.34-.34-.34-.34-.34-.34-.34-.34-.34-.34-.34-.34-.34-.34-.34-.34-.34-.34-.34-.34-.34-.34-.34-.34-.34-.34-.34-.34-.34-.34-.34-.34-.34-.34-.34-.34-.34-.34-.34-.34-.34-.34-.34-.34-.34-.34-.34-.34-.34-.34-.34-.34-.34-.34-.34-.34-.34-.34-.34-.34-.34-.34-.34-.34-.34-.34-.34-.34-.34-.34-.34-.34-.34-.34-.34-.34-.34-.34-.34-.34-.34-.34-.34-.34-.34-.34-.34-.34-.34-.34-.34-.34-.34-.34-.34-.34-.34-.34-.34-.34-.34-.34-.34-.34-.34-.34-.34-.34-.34-.34-.34-.34-.34a40,40,0,1,0-56.56,56.56l.34.34.34.34.34.34.34.34.34.34.34.34.34.34.34.34.34.34.34.34.34.34.34.34.34.34.34.34.34.34.34.34.34.34.34.34.34.34.34.34.34.34.34.34.34.34.34.34.34.34.34.34.34.34.34.34.34.34.34.34.34.34.34.34.34.34.34.34.34.34.34.34.34.34.34.34.34.34.34.34.34.34.34.34.34.34.34.34.34.34.34.34.34.34.34.34.34.34.34.34.34.34.34.34.34.34.34.34.34.34.34.34.34.34.34.34.34.34.34.34.34.34.34.34.34.34.34.34.34.34.34.34.34.34.34.34.34.34.34.34.34.34.34.34.34.34.34.34.34.34.34.34.34.34.34.34.34.34.34.34.34.34.34.34.34.34.34.34.34.34.34.34.34.34.34.34.34.34.34.34.34.34.34.34.34.34.34.34.34.34.34.34.34.34.34.34.34.34.34.34.34.34.34.34.34.34.34.34.34.34.34.34.34.34.34.34.34.34.34.34.34.34.34.34.34.34.34.34.34.34.34.34.34.34.34.34.34.34.34.34.34.34.34.34.34.34.34.34.34.34.34.34.34.34.34.34.34.34.34.34.34.34.34.34.34.34.34.34.34.34.34.34.34.34.34.34.34.34.34.34.34.34.34.34.34.34.34.34.34.34.34.34.34.34.34.34.34.34.34.34.34.34.34.34.34.34.34.34.34.34.34.34.34.34.34.34.34.34.34.34.34.34.34.34.34.34.34.34.2.2a88.21,88.21,0,0,0,56.56-56.56l-.2-.2Z"/></g><g id="smiling-star-3" data-name="smiling-star"><path class="cls-3" d="M136,96A40,40,0,1,1,96,56a40,40,0,0,1,40,40"/><path class="cls-4" d="M119.59,106.68H72.41a24.38,24.38,0,0,1-1-2.33,26.25,26.25,0,0,0,49.21,0A24.67,24.67,0,0,1,119.59,106.68Z"/><path class="cls-5" d="M119.59,106.68a24.67,24.67,0,0,0,1-2.33v0a23.33,23.33,0,0,0,.71-2.25l.06-.2a20.94,20.94,0,0,0,.4-2.08c0-.13.05-.26.07-.39A19.4,19.4,0,0,0,122,97H70a19.14,19.14,0,0,0,.16,2.43c0,.13,0,.26.07.38a21.07,21.07,0,0,0,.4,2.08l.06.2a23.38,23.38,0,0,0,.71,2.25v0a24.38,24.38,0,0,0,1,2.33Z"/><polygon class="cls-6" points="81.3 70.55 84.06 76.15 90.24 77.04 85.77 81.4 86.83 87.55 81.3 84.64 75.78 87.55 76.83 81.4 72.36 77.04 78.54 76.15 81.3 70.55"/><polygon class="cls-6" points="110.7 70.55 113.46 76.15 119.64 77.04 115.17 81.4 116.22 87.55 110.7 84.64 105.17 87.55 106.23 81.4 101.76 77.04 107.94 76.15 110.7 70.55"/></g></g></g></svg>
    <svg id="tears-of-joy" xmlns="http://www.w3.org/2000/svg" viewBox="0 0 192 192"><defs><style>.cls-1{fill:#ab47bc;}.cls-2,.cls-5{fill:#263238;}.cls-2{opacity:0;}.cls-3{fill:#ffca28;}.cls-4{fill:#00b0ff;}.cls-6{fill:#e53935;}.cls-7{fill:#fff;}</style></defs><title>tears-of-joy</title><g id="tears-of-joy"><g id="tears-of-joy-2" data-name="tears-of-joy"><circle id="label" class="cls-1" cx="96" cy="94" r="50"/><g id="shadow"><path class="cls-2" d="M179.19,122.63l-.34-.34-.34-.34-.34-.34-.34-.34-.34-.34-.34-.34-.34-.34-.34-.34-.34-.34-.34-.34-.34-.34-.34-.34-.34-.34-.34-.34-.34-.34-.34-.34-.34-.34-.34-.34-.34-.34-.34-.34-.34-.34-.34-.34-.34-.34-.34-.34-.34-.34-.34-.34-.34-.34-.34-.34-.34-.34-.34-.34-.34-.34-.34-.34-.34-.34-.34-.34-.34-.34-.34-.34-.34-.34-.34-.34-.34-.34-.34-.34-.34-.34-.34-.34-.34-.34-.34-.34-.34-.34-.34-.34-.34-.34-.34-.34-.34-.34-.34-.34-.34-.34-.34-.34-.34-.34-.34-.34-.34-.34-.34-.34-.34-.34-.34-.34-.34-.34-.34-.34-.34-.34-.34-.34-.34-.34-.34-.34-.34-.34-.34-.34-.34-.34-.34-.34-.34-.34-.34-.34-.34-.34-.34-.34-.34-.34-.34-.34-.34-.34-.34-.34-.34-.34-.34-.34-.34-.34-.34-.34-.34-.34-.34-.34-.34-.34-.34-.34-.34-.34-.34-.34-.34-.34-.34-.34-.34-.34L149,92.4l-.34-.34-.34-.34L148,91.4l-.34-.34-.34-.34-.34-.34-.34-.34-.34-.34-.34-.34L145.6,89l-.34-.34-.34-.34L144.6,88l-.34-.34-.34-.34-.34-.34-.34-.34-.34-.34-.34-.34-.34-.34-.34-.34-.34-.34-.34-.34-.34-.34-.34-.34-.34-.34-.34-.34-.34-.34-.34-.34-.34-.34-.34-.34-.34-.34-.34-.34-.34-.34-.34-.34-.34-.34-.34-.34-.34-.34-.34-.34-.34-.34-.34-.34-.34-.34-.34-.34-.34-.34-.34-.34-.34-.34-.34-.34-.34-.34-.34-.34-.34-.34-.34-.34-.34-.34-.34-.34-.34-.34-.34-.34-.34-.34-.34-.34-.34-.34-.34-.34-.34-.34-.34-.34-.34-.34-.34-.34-.34-.34-.34-.34-.34-.34-.34-.34-.34-.34-.34-.34-.34-.34-.34-.34-.34-.34-.34-.34a40,40,0,1,0-56.56,56.56l.34.34.34.34.34.34.34.34.34.34.34.34.34.34.34.34.34.34.34.34.34.34.34.34.34.34.34.34.34.34.34.34.34.34.34.34.34.34.34.34.34.34.34.34.34.34.34.34.34.34.34.34.34.34.34.34.34.34.34.34.34.34.34.34.34.34.34.34.34.34.34.34.34.34.34.34.34.34.34.34.34.34.34.34.34.34.34.34.34.34.34.34.34.34.34.34.34.34.34.34.34.34.34.34.34.34.34.34.34.34.34.34.34.34.34.34.34.34.34.34.34.34.34.34.34.34.34.34.34.34.34.34.34.34.34.34.34.34.34.34.34.34.34.34.34.34.34.34.34.34.34.34.34.34.34.34.34.34.34.34.34.34.34.34.34.34.34.34.34.34.34.34.34.34.34.34.34.34.34.34.34.34.34.34.34.34.34.34.34.34.34.34.34.34.34.34.34.34.34.34.34.34.34.34.34.34.34.34.34.34.34.34.34.34.34.34.34.34.34.34.34.34.34.34.34.34.34.34.34.34.34.34.34.34.34.34.34.34.34.34.34.34.34.34.34.34.34.34.34.34.34.34.34.34.34.34.34.34.34.34.34.34.34.34.34.34.34.34.34.34.34.34.34.34.34.34.34.34.34.34.34.34.34.34.34.34.34.34.34.34.34.34.34.34.34.34.34.34.34.34.34.34.34.34.34.34.34.34.34.34.34.34.34.34.34.34.34.34.34.34.34.34.34.34.34.34.34.34.2.2a88.21,88.21,0,0,0,56.56-56.56l-.2-.2Z"/></g><g id="tears-of-joy-3" data-name="tears-of-joy"><circle class="cls-3" cx="96" cy="96" r="40"/><path class="cls-4" d="M135.53,93.61c-3.65-2.89-10.06-4.46-15.48-6.09.66,5.63,1.1,12.21,3.31,16.31,3.25,6,8.68,7.66,13.44,3.66S140.9,97.86,135.53,93.61Z"/><path class="cls-4" d="M55.2,107.48c4.76,4,10.19,2.36,13.44-3.66,2.21-4.1,2.65-10.68,3.31-16.31-5.43,1.63-11.83,3.21-15.48,6.09C51.1,97.86,50.43,103.48,55.2,107.48Z"/><path class="cls-5" d="M88.34,84.92a1.66,1.66,0,0,1-1.66-1.66,5.68,5.68,0,1,0-11.36,0,1.66,1.66,0,0,1-3.32,0,9,9,0,1,1,18,0,1.66,1.66,0,0,1-1.66,1.66Z"/><path class="cls-5" d="M118.34,84.92a1.66,1.66,0,0,1-1.66-1.66,5.68,5.68,0,1,0-11.36,0,1.66,1.66,0,0,1-3.32,0,9,9,0,1,1,18,0,1.66,1.66,0,0,1-1.66,1.66Z"/><path class="cls-6" d="M119.13,100.92H72.87A20.14,20.14,0,0,1,72,96.66c.94,10.78,11.32,21.08,24,21.08s23.06-10.3,24-21.08A20,20,0,0,1,119.13,100.92Z"/><path class="cls-7" d="M119.53,101.38a20.35,20.35,0,0,0,.89-4.32l0-.22c0-.47.06-.93.06-1.4h-49c0,.47,0,.94.06,1.4l0,.21a20.49,20.49,0,0,0,.89,4.33Z"/></g></g></g></svg>
    <svg id="weird" xmlns="http://www.w3.org/2000/svg" viewBox="0 0 192 192"><defs><style>.cls-1{fill:#00897b;}.cls-2,.cls-5{fill:#263238;}.cls-2{opacity:0;}.cls-3{fill:#ffca28;}.cls-4{fill:#e53935;}</style></defs><title>weird</title><g id="weird"><g id="weird-2" data-name="weird"><circle id="label" class="cls-1" cx="96" cy="94" r="50"/><g id="shadow"><path class="cls-2" d="M179.19,122.63l-.34-.34-.34-.34-.34-.34-.34-.34-.34-.34-.34-.34-.34-.34-.34-.34-.34-.34-.34-.34-.34-.34-.34-.34-.34-.34-.34-.34-.34-.34-.34-.34-.34-.34-.34-.34-.34-.34-.34-.34-.34-.34-.34-.34-.34-.34-.34-.34-.34-.34-.34-.34-.34-.34-.34-.34-.34-.34-.34-.34-.34-.34-.34-.34-.34-.34-.34-.34-.34-.34-.34-.34-.34-.34-.34-.34-.34-.34-.34-.34-.34-.34-.34-.34-.34-.34-.34-.34-.34-.34-.34-.34-.34-.34-.34-.34-.34-.34-.34-.34-.34-.34-.34-.34-.34-.34-.34-.34-.34-.34-.34-.34-.34-.34-.34-.34-.34-.34-.34-.34-.34-.34-.34-.34-.34-.34-.34-.34-.34-.34-.34-.34-.34-.34-.34-.34-.34-.34-.34-.34-.34-.34-.34-.34-.34-.34-.34-.34-.34-.34-.34-.34-.34-.34-.34-.34-.34-.34-.34-.34-.34-.34-.34-.34-.34-.34-.34-.34-.34-.34-.34-.34-.34-.34-.34-.34-.34-.34L149,92.4l-.34-.34-.34-.34L148,91.4l-.34-.34-.34-.34-.34-.34-.34-.34-.34-.34-.34-.34L145.6,89l-.34-.34-.34-.34L144.6,88l-.34-.34-.34-.34-.34-.34-.34-.34-.34-.34-.34-.34-.34-.34-.34-.34-.34-.34-.34-.34-.34-.34-.34-.34-.34-.34-.34-.34-.34-.34-.34-.34-.34-.34-.34-.34-.34-.34-.34-.34-.34-.34-.34-.34-.34-.34-.34-.34-.34-.34-.34-.34-.34-.34-.34-.34-.34-.34-.34-.34-.34-.34-.34-.34-.34-.34-.34-.34-.34-.34-.34-.34-.34-.34-.34-.34-.34-.34-.34-.34-.34-.34-.34-.34-.34-.34-.34-.34-.34-.34-.34-.34-.34-.34-.34-.34-.34-.34-.34-.34-.34-.34-.34-.34-.34-.34-.34-.34-.34-.34-.34-.34-.34-.34-.34-.34-.34-.34-.34-.34a40,40,0,1,0-56.56,56.56l.34.34.34.34.34.34.34.34.34.34.34.34.34.34.34.34.34.34.34.34.34.34.34.34.34.34.34.34.34.34.34.34.34.34.34.34.34.34.34.34.34.34.34.34.34.34.34.34.34.34.34.34.34.34.34.34.34.34.34.34.34.34.34.34.34.34.34.34.34.34.34.34.34.34.34.34.34.34.34.34.34.34.34.34.34.34.34.34.34.34.34.34.34.34.34.34.34.34.34.34.34.34.34.34.34.34.34.34.34.34.34.34.34.34.34.34.34.34.34.34.34.34.34.34.34.34.34.34.34.34.34.34.34.34.34.34.34.34.34.34.34.34.34.34.34.34.34.34.34.34.34.34.34.34.34.34.34.34.34.34.34.34.34.34.34.34.34.34.34.34.34.34.34.34.34.34.34.34.34.34.34.34.34.34.34.34.34.34.34.34.34.34.34.34.34.34.34.34.34.34.34.34.34.34.34.34.34.34.34.34.34.34.34.34.34.34.34.34.34.34.34.34.34.34.34.34.34.34.34.34.34.34.34.34.34.34.34.34.34.34.34.34.34.34.34.34.34.34.34.34.34.34.34.34.34.34.34.34.34.34.34.34.34.34.34.34.34.34.34.34.34.34.34.34.34.34.34.34.34.34.34.34.34.34.34.34.34.34.34.34.34.34.34.34.34.34.34.34.34.34.34.34.34.34.34.34.34.34.34.34.34.34.34.34.34.34.34.34.34.34.34.34.34.34.34.34.34.34.2.2a88.21,88.21,0,0,0,56.56-56.56l-.2-.2Z"/></g><g id="weird-3" data-name="weird"><path class="cls-3" d="M136,96A40,40,0,1,1,96,56a40,40,0,0,1,40,40"/><path class="cls-4" d="M106.58,120.15,96,107.46l-10.58,12.7-12-14.39a1.84,1.84,0,1,1,2.83-2.36l9.17,11L96,101.7l10.58,12.7,9.17-11a1.84,1.84,0,1,1,2.83,2.36l-12,14.39Z"/><path class="cls-5" d="M74.88,92.24a1.88,1.88,0,0,1-1.06-3.44l10-6.76-10-6.76a1.88,1.88,0,1,1,2.11-3.12l12.28,8.31a1.88,1.88,0,0,1,0,3.12L75.94,91.92a1.88,1.88,0,0,1-1.05.32Z"/><path class="cls-5" d="M117.12,92.24a1.87,1.87,0,0,1-1.05-.32L103.78,83.6a1.88,1.88,0,0,1,0-3.12l12.28-8.31a1.88,1.88,0,1,1,2.11,3.12l-10,6.76,10,6.76a1.88,1.88,0,0,1-1.06,3.44Z"/></g></g></g></svg>
    <svg id="wink-tongue" xmlns="http://www.w3.org/2000/svg" viewBox="0 0 192 192"><defs><style>.cls-1{fill:#fff;}.cls-2,.cls-5{fill:#263238;}.cls-2{opacity:0;}.cls-3{fill:#ffca28;}.cls-4{fill:yellowgreen;}.cls-6{fill:#b71c1c;}.cls-7{fill:#e53935;}</style></defs><title>wink-tongue</title><g id="wink-tongue"><g id="wink-tongue-2" data-name="wink-tongue"><circle id="label" class="cls-1" cx="96" cy="94" r="50"/><g id="shadow"><path class="cls-2" d="M179.19,122.63l-.34-.34-.34-.34-.34-.34-.34-.34-.34-.34-.34-.34-.34-.34-.34-.34-.34-.34-.34-.34-.34-.34-.34-.34-.34-.34-.34-.34-.34-.34-.34-.34-.34-.34-.34-.34-.34-.34-.34-.34-.34-.34-.34-.34-.34-.34-.34-.34-.34-.34-.34-.34-.34-.34-.34-.34-.34-.34-.34-.34-.34-.34-.34-.34-.34-.34-.34-.34-.34-.34-.34-.34-.34-.34-.34-.34-.34-.34-.34-.34-.34-.34-.34-.34-.34-.34-.34-.34-.34-.34-.34-.34-.34-.34-.34-.34-.34-.34-.34-.34-.34-.34-.34-.34-.34-.34-.34-.34-.34-.34-.34-.34-.34-.34-.34-.34-.34-.34-.34-.34-.34-.34-.34-.34-.34-.34-.34-.34-.34-.34-.34-.34-.34-.34-.34-.34-.34-.34-.34-.34-.34-.34-.34-.34-.34-.34-.34-.34-.34-.34-.34-.34-.34-.34-.34-.34-.34-.34-.34-.34-.34-.34-.34-.34-.34-.34-.34-.34-.34-.34-.34-.34-.34-.34-.34-.34-.34-.34L149,92.4l-.34-.34-.34-.34L148,91.4l-.34-.34-.34-.34-.34-.34-.34-.34-.34-.34-.34-.34L145.6,89l-.34-.34-.34-.34L144.6,88l-.34-.34-.34-.34-.34-.34-.34-.34-.34-.34-.34-.34-.34-.34-.34-.34-.34-.34-.34-.34-.34-.34-.34-.34-.34-.34-.34-.34-.34-.34-.34-.34-.34-.34-.34-.34-.34-.34-.34-.34-.34-.34-.34-.34-.34-.34-.34-.34-.34-.34-.34-.34-.34-.34-.34-.34-.34-.34-.34-.34-.34-.34-.34-.34-.34-.34-.34-.34-.34-.34-.34-.34-.34-.34-.34-.34-.34-.34-.34-.34-.34-.34-.34-.34-.34-.34-.34-.34-.34-.34-.34-.34-.34-.34-.34-.34-.34-.34-.34-.34-.34-.34-.34-.34-.34-.34-.34-.34-.34-.34-.34-.34-.34-.34-.34-.34-.34-.34-.34-.34a40,40,0,1,0-56.56,56.56l.34.34.34.34.34.34.34.34.34.34.34.34.34.34.34.34.34.34.34.34.34.34.34.34.34.34.34.34.34.34.34.34.34.34.34.34.34.34.34.34.34.34.34.34.34.34.34.34.34.34.34.34.34.34.34.34.34.34.34.34.34.34.34.34.34.34.34.34.34.34.34.34.34.34.34.34.34.34.34.34.34.34.34.34.34.34.34.34.34.34.34.34.34.34.34.34.34.34.34.34.34.34.34.34.34.34.34.34.34.34.34.34.34.34.34.34.34.34.34.34.34.34.34.34.34.34.34.34.34.34.34.34.34.34.34.34.34.34.34.34.34.34.34.34.34.34.34.34.34.34.34.34.34.34.34.34.34.34.34.34.34.34.34.34.34.34.34.34.34.34.34.34.34.34.34.34.34.34.34.34.34.34.34.34.34.34.34.34.34.34.34.34.34.34.34.34.34.34.34.34.34.34.34.34.34.34.34.34.34.34.34.34.34.34.34.34.34.34.34.34.34.34.34.34.34.34.34.34.34.34.34.34.34.34.34.34.34.34.34.34.34.34.34.34.34.34.34.34.34.34.34.34.34.34.34.34.34.34.34.34.34.34.34.34.34.34.34.34.34.34.34.34.34.34.34.34.34.34.34.34.34.34.34.34.34.34.34.34.34.34.34.34.34.34.34.34.34.34.34.34.34.34.34.34.34.34.34.34.34.34.34.34.34.34.34.34.34.34.34.34.34.34.34.34.34.34.34.34.2.2a88.21,88.21,0,0,0,56.56-56.56l-.2-.2Z"/></g><g id="wink-tongue-3" data-name="wink-tongue"><path class="cls-3" d="M136,96A40,40,0,1,1,96,56a40,40,0,0,1,40,40"/><circle class="cls-4" cx="110.3" cy="80.28" r="9.7"/><circle class="cls-5" cx="110.3" cy="80.28" r="4.6"/><path class="cls-5" d="M89.62,86a1.79,1.79,0,0,1-1.79-1.79,6.12,6.12,0,0,0-12.25,0,1.79,1.79,0,1,1-3.58,0,9.7,9.7,0,1,1,19.4,0A1.79,1.79,0,0,1,89.62,86Z"/><path class="cls-6" d="M117.83,102a21.83,21.83,0,1,1-43.65,0Z"/><path class="cls-7" d="M85.09,106.37V127.9c0,4.45,4.71,8.1,10.45,8.1h.93c5.75,0,10.45-3.65,10.45-8.1V106.37Z"/><path class="cls-6" d="M96,124.25a1.68,1.68,0,0,1-1.68-1.68V108.3a1.68,1.68,0,1,1,3.36,0v14.27A1.68,1.68,0,0,1,96,124.25Z"/></g></g></g></svg>
</defs>
</svg>
