<svg xmlns="http://www.w3.org/2000/svg" viewBox="0 0 192 192"><defs><style>.cls-1{fill:#fff;}.cls-2,.cls-5{fill:#263238;}.cls-2{opacity:0.15;}.cls-3{fill:#ffca28;}.cls-4{fill:#fff176;}.cls-6{fill:#e53935;}</style></defs><title>angel</title><g id="angel"><g id="angel-2" data-name="angel"><circle id="label" class="cls-1" cx="96" cy="96" r="88"/><g id="shadow"><path class="cls-2" d="M179.19,122.63l-.34-.34-.34-.34-.34-.34-.34-.34-.34-.34-.34-.34-.34-.34-.34-.34-.34-.34-.34-.34-.34-.34-.34-.34-.34-.34-.34-.34-.34-.34-.34-.34-.34-.34-.34-.34-.34-.34-.34-.34-.34-.34-.34-.34-.34-.34-.34-.34-.34-.34-.34-.34-.34-.34-.34-.34-.34-.34-.34-.34-.34-.34-.34-.34-.34-.34-.34-.34-.34-.34-.34-.34-.34-.34-.34-.34-.34-.34-.34-.34-.34-.34-.34-.34-.34-.34-.34-.34-.34-.34-.34-.34-.34-.34-.34-.34-.34-.34-.34-.34-.34-.34-.34-.34-.34-.34-.34-.34-.34-.34-.34-.34-.34-.34-.34-.34-.34-.34-.34-.34-.34-.34-.34-.34-.34-.34-.34-.34-.34-.34-.34-.34-.34-.34-.34-.34-.34-.34-.34-.34-.34-.34-.34-.34-.34-.34-.34-.34-.34-.34-.34-.34-.34-.34-.34-.34-.34-.34-.34-.34-.34-.34-.34-.34-.34-.34-.34-.34-.34-.34-.34-.34-.34-.34-.34-.34-.34-.34L149,92.4l-.34-.34-.34-.34L148,91.4l-.34-.34-.34-.34-.34-.34-.34-.34-.34-.34-.34-.34L145.6,89l-.34-.34-.34-.34L144.6,88l-.34-.34-.34-.34-.34-.34-.34-.34-.34-.34-.34-.34-.34-.34-.34-.34-.34-.34-.34-.34-.34-.34-.34-.34-.34-.34-.34-.34-.34-.34-.34-.34-.34-.34-.34-.34-.34-.34-.34-.34-.34-.34-.34-.34-.34-.34-.34-.34-.34-.34-.34-.34-.34-.34-.34-.34-.34-.34-.34-.34-.34-.34-.34-.34-.34-.34-.34-.34-.34-.34-.34-.34-.34-.34-.34-.34-.34-.34-.34-.34-.34-.34-.34-.34-.34-.34-.34-.34-.34-.34-.34-.34-.34-.34-.34-.34-.34-.34-.34-.34-.34-.34-.34-.34-.34-.34-.34-.34-.34-.34-.34-.34-.34-.34-.34-.34-.34-.34-.34-.34a40,40,0,1,0-56.56,56.56l.34.34.34.34.34.34.34.34.34.34.34.34.34.34.34.34.34.34.34.34.34.34.34.34.34.34.34.34.34.34.34.34.34.34.34.34.34.34.34.34.34.34.34.34.34.34.34.34.34.34.34.34.34.34.34.34.34.34.34.34.34.34.34.34.34.34.34.34.34.34.34.34.34.34.34.34.34.34.34.34.34.34.34.34.34.34.34.34.34.34.34.34.34.34.34.34.34.34.34.34.34.34.34.34.34.34.34.34.34.34.34.34.34.34.34.34.34.34.34.34.34.34.34.34.34.34.34.34.34.34.34.34.34.34.34.34.34.34.34.34.34.34.34.34.34.34.34.34.34.34.34.34.34.34.34.34.34.34.34.34.34.34.34.34.34.34.34.34.34.34.34.34.34.34.34.34.34.34.34.34.34.34.34.34.34.34.34.34.34.34.34.34.34.34.34.34.34.34.34.34.34.34.34.34.34.34.34.34.34.34.34.34.34.34.34.34.34.34.34.34.34.34.34.34.34.34.34.34.34.34.34.34.34.34.34.34.34.34.34.34.34.34.34.34.34.34.34.34.34.34.34.34.34.34.34.34.34.34.34.34.34.34.34.34.34.34.34.34.34.34.34.34.34.34.34.34.34.34.34.34.34.34.34.34.34.34.34.34.34.34.34.34.34.34.34.34.34.34.34.34.34.34.34.34.34.34.34.34.34.34.34.34.34.34.34.34.34.34.34.34.34.34.34.34.34.34.34.34.2.2a88.21,88.21,0,0,0,56.56-56.56l-.2-.2Z"/></g><g id="angel-3" data-name="angel"><path class="cls-3" d="M136,96A40,40,0,1,1,96,56a40,40,0,0,1,40,40"/><path class="cls-4" d="M96,72.5c-16,0-28-4.95-28-11.5S80,49.5,96,49.5s28,4.94,28,11.5S112,72.5,96,72.5Zm0-19.15c-13.48,0-23.56,4-23.56,7.65S82.52,68.65,96,68.65s23.56-4,23.56-7.65S109.48,53.35,96,53.35Z"/><path class="cls-5" d="M90.16,92.64a1.84,1.84,0,0,1-1.84-1.84,6.31,6.31,0,1,0-12.62,0,1.84,1.84,0,0,1-3.69,0,10,10,0,1,1,20,0,1.84,1.84,0,0,1-1.84,1.84Z"/><path class="cls-5" d="M118.15,92.64a1.84,1.84,0,0,1-1.84-1.84,6.31,6.31,0,1,0-12.62,0,1.84,1.84,0,0,1-3.69,0,10,10,0,1,1,20,0,1.84,1.84,0,0,1-1.85,1.84Z"/><path class="cls-6" d="M113.45,103a1.67,1.67,0,0,0-1.38-.11,2,2,0,0,0-1.13,1.13c-2.7,6.72-8.57,11.07-14.94,11.07S83.77,110.71,81.06,104a2,2,0,0,0-1.12-1.12,1.67,1.67,0,0,0-1.38.1,2.19,2.19,0,0,0-.89,2.72C81,113.89,88.16,119.2,96,119.2s15-5.31,18.34-13.52A2.2,2.2,0,0,0,113.45,103Z"/></g></g></g></svg>