<svg xmlns="http://www.w3.org/2000/svg" viewBox="0 0 192 192"><defs><style>.cls-1{fill:#ff8f00;}.cls-2,.cls-4{fill:#263238;}.cls-2{opacity:0.15;}.cls-3{fill:#ffca28;}.cls-5{fill:#e53935;}.cls-6{fill:#b71c1c;}.cls-7{fill:#253237;}</style></defs><title>dead</title><g id="dead"><g id="dead-2" data-name="dead"><circle id="label" class="cls-1" cx="96" cy="96" r="88"/><g id="shadow"><path class="cls-2" d="M179.19,122.63l-.34-.34-.34-.34-.34-.34-.34-.34-.34-.34-.34-.34-.34-.34-.34-.34-.34-.34-.34-.34-.34-.34-.34-.34-.34-.34-.34-.34-.34-.34-.34-.34-.34-.34-.34-.34-.34-.34-.34-.34-.34-.34-.34-.34-.34-.34-.34-.34-.34-.34-.34-.34-.34-.34-.34-.34-.34-.34-.34-.34-.34-.34-.34-.34-.34-.34-.34-.34-.34-.34-.34-.34-.34-.34-.34-.34-.34-.34-.34-.34-.34-.34-.34-.34-.34-.34-.34-.34-.34-.34-.34-.34-.34-.34-.34-.34-.34-.34-.34-.34-.34-.34-.34-.34-.34-.34-.34-.34-.34-.34-.34-.34-.34-.34-.34-.34-.34-.34-.34-.34-.34-.34-.34-.34-.34-.34-.34-.34-.34-.34-.34-.34-.34-.34-.34-.34-.34-.34-.34-.34-.34-.34-.34-.34-.34-.34-.34-.34-.34-.34-.34-.34-.34-.34-.34-.34-.34-.34-.34-.34-.34-.34-.34-.34-.34-.34-.34-.34-.34-.34-.34-.34-.34-.34-.34-.34-.34-.34L149,92.4l-.34-.34-.34-.34L148,91.4l-.34-.34-.34-.34-.34-.34-.34-.34-.34-.34-.34-.34L145.6,89l-.34-.34-.34-.34L144.6,88l-.34-.34-.34-.34-.34-.34-.34-.34-.34-.34-.34-.34-.34-.34-.34-.34-.34-.34-.34-.34-.34-.34-.34-.34-.34-.34-.34-.34-.34-.34-.34-.34-.34-.34-.34-.34-.34-.34-.34-.34-.34-.34-.34-.34-.34-.34-.34-.34-.34-.34-.34-.34-.34-.34-.34-.34-.34-.34-.34-.34-.34-.34-.34-.34-.34-.34-.34-.34-.34-.34-.34-.34-.34-.34-.34-.34-.34-.34-.34-.34-.34-.34-.34-.34-.34-.34-.34-.34-.34-.34-.34-.34-.34-.34-.34-.34-.34-.34-.34-.34-.34-.34-.34-.34-.34-.34-.34-.34-.34-.34-.34-.34-.34-.34-.34-.34-.34-.34-.34-.34a40,40,0,1,0-56.56,56.56l.34.34.34.34.34.34.34.34.34.34.34.34.34.34.34.34.34.34.34.34.34.34.34.34.34.34.34.34.34.34.34.34.34.34.34.34.34.34.34.34.34.34.34.34.34.34.34.34.34.34.34.34.34.34.34.34.34.34.34.34.34.34.34.34.34.34.34.34.34.34.34.34.34.34.34.34.34.34.34.34.34.34.34.34.34.34.34.34.34.34.34.34.34.34.34.34.34.34.34.34.34.34.34.34.34.34.34.34.34.34.34.34.34.34.34.34.34.34.34.34.34.34.34.34.34.34.34.34.34.34.34.34.34.34.34.34.34.34.34.34.34.34.34.34.34.34.34.34.34.34.34.34.34.34.34.34.34.34.34.34.34.34.34.34.34.34.34.34.34.34.34.34.34.34.34.34.34.34.34.34.34.34.34.34.34.34.34.34.34.34.34.34.34.34.34.34.34.34.34.34.34.34.34.34.34.34.34.34.34.34.34.34.34.34.34.34.34.34.34.34.34.34.34.34.34.34.34.34.34.34.34.34.34.34.34.34.34.34.34.34.34.34.34.34.34.34.34.34.34.34.34.34.34.34.34.34.34.34.34.34.34.34.34.34.34.34.34.34.34.34.34.34.34.34.34.34.34.34.34.34.34.34.34.34.34.34.34.34.34.34.34.34.34.34.34.34.34.34.34.34.34.34.34.34.34.34.34.34.34.34.34.34.34.34.34.34.34.34.34.34.34.34.34.34.34.34.34.34.2.2a88.21,88.21,0,0,0,56.56-56.56l-.2-.2Z"/></g><g id="dead-3" data-name="dead"><path class="cls-3" d="M136,96A40,40,0,1,1,96,56a40,40,0,0,1,40,40"/><path class="cls-4" d="M73.27,90.51a1.53,1.53,0,0,1-1.08-2.61L87.64,72.45a1.53,1.53,0,1,1,2.16,2.16L74.36,90.06a1.52,1.52,0,0,1-1.08.45Z"/><path class="cls-4" d="M88.73,90.51a1.52,1.52,0,0,1-1.08-.45L72.19,74.61a1.53,1.53,0,1,1,2.16-2.16L89.81,87.9a1.53,1.53,0,0,1-1.08,2.61Z"/><path class="cls-4" d="M103.27,90.51a1.53,1.53,0,0,1-1.08-2.61l15.45-15.45a1.53,1.53,0,0,1,2.16,2.16L104.36,90.06a1.52,1.52,0,0,1-1.08.45Z"/><path class="cls-4" d="M118.73,90.51a1.53,1.53,0,0,1-1.08-.45L102.19,74.61a1.53,1.53,0,0,1,2.16-2.16L119.81,87.9a1.53,1.53,0,0,1-1.08,2.61Z"/><path class="cls-5" d="M96.16,106.93v18.43c0,4.52,4.77,8.21,10.6,8.21h.94c5.83,0,10.6-3.7,10.6-8.21V106.93Z"/><path class="cls-6" d="M107.23,125.06a1.7,1.7,0,0,1-1.7-1.7V108.89a1.7,1.7,0,1,1,3.41,0v14.47a1.7,1.7,0,0,1-1.7,1.7Z"/><path class="cls-7" d="M118.3,109.83H73.7a1.7,1.7,0,0,1,0-3.41H118.3a1.7,1.7,0,0,1,0,3.41Z"/></g></g></g></svg>