<svg xmlns="http://www.w3.org/2000/svg" viewBox="0 0 192 192"><defs><style>.cls-1{fill:#00acc1;}.cls-2,.cls-6{fill:#263238;}.cls-2{opacity:0.15;}.cls-3{fill:#ffca28;}.cls-4{fill:#b71c1c;}.cls-5{fill:#e53935;}</style></defs><title>desperate</title><g id="desperate"><g id="desperate-2" data-name="desperate"><circle id="label" class="cls-1" cx="96" cy="96" r="88"/><g id="shadow"><path class="cls-2" d="M179.19,122.63l-.34-.34-.34-.34-.34-.34-.34-.34-.34-.34-.34-.34-.34-.34-.34-.34-.34-.34-.34-.34-.34-.34-.34-.34-.34-.34-.34-.34-.34-.34-.34-.34-.34-.34-.34-.34-.34-.34-.34-.34-.34-.34-.34-.34-.34-.34-.34-.34-.34-.34-.34-.34-.34-.34-.34-.34-.34-.34-.34-.34-.34-.34-.34-.34-.34-.34-.34-.34-.34-.34-.34-.34-.34-.34-.34-.34-.34-.34-.34-.34-.34-.34-.34-.34-.34-.34-.34-.34-.34-.34-.34-.34-.34-.34-.34-.34-.34-.34-.34-.34-.34-.34-.34-.34-.34-.34-.34-.34-.34-.34-.34-.34-.34-.34-.34-.34-.34-.34-.34-.34-.34-.34-.34-.34-.34-.34-.34-.34-.34-.34-.34-.34-.34-.34-.34-.34-.34-.34-.34-.34-.34-.34-.34-.34-.34-.34-.34-.34-.34-.34-.34-.34-.34-.34-.34-.34-.34-.34-.34-.34-.34-.34-.34-.34-.34-.34-.34-.34-.34-.34-.34-.34-.34-.34-.34-.34-.34-.34L149,92.4l-.34-.34-.34-.34L148,91.4l-.34-.34-.34-.34-.34-.34-.34-.34-.34-.34-.34-.34L145.6,89l-.34-.34-.34-.34L144.6,88l-.34-.34-.34-.34-.34-.34-.34-.34-.34-.34-.34-.34-.34-.34-.34-.34-.34-.34-.34-.34-.34-.34-.34-.34-.34-.34-.34-.34-.34-.34-.34-.34-.34-.34-.34-.34-.34-.34-.34-.34-.34-.34-.34-.34-.34-.34-.34-.34-.34-.34-.34-.34-.34-.34-.34-.34-.34-.34-.34-.34-.34-.34-.34-.34-.34-.34-.34-.34-.34-.34-.34-.34-.34-.34-.34-.34-.34-.34-.34-.34-.34-.34-.34-.34-.34-.34-.34-.34-.34-.34-.34-.34-.34-.34-.34-.34-.34-.34-.34-.34-.34-.34-.34-.34-.34-.34-.34-.34-.34-.34-.34-.34-.34-.34-.34-.34-.34-.34-.34-.34a40,40,0,1,0-56.56,56.56l.34.34.34.34.34.34.34.34.34.34.34.34.34.34.34.34.34.34.34.34.34.34.34.34.34.34.34.34.34.34.34.34.34.34.34.34.34.34.34.34.34.34.34.34.34.34.34.34.34.34.34.34.34.34.34.34.34.34.34.34.34.34.34.34.34.34.34.34.34.34.34.34.34.34.34.34.34.34.34.34.34.34.34.34.34.34.34.34.34.34.34.34.34.34.34.34.34.34.34.34.34.34.34.34.34.34.34.34.34.34.34.34.34.34.34.34.34.34.34.34.34.34.34.34.34.34.34.34.34.34.34.34.34.34.34.34.34.34.34.34.34.34.34.34.34.34.34.34.34.34.34.34.34.34.34.34.34.34.34.34.34.34.34.34.34.34.34.34.34.34.34.34.34.34.34.34.34.34.34.34.34.34.34.34.34.34.34.34.34.34.34.34.34.34.34.34.34.34.34.34.34.34.34.34.34.34.34.34.34.34.34.34.34.34.34.34.34.34.34.34.34.34.34.34.34.34.34.34.34.34.34.34.34.34.34.34.34.34.34.34.34.34.34.34.34.34.34.34.34.34.34.34.34.34.34.34.34.34.34.34.34.34.34.34.34.34.34.34.34.34.34.34.34.34.34.34.34.34.34.34.34.34.34.34.34.34.34.34.34.34.34.34.34.34.34.34.34.34.34.34.34.34.34.34.34.34.34.34.34.34.34.34.34.34.34.34.34.34.34.34.34.34.34.34.34.34.34.34.2.2a88.21,88.21,0,0,0,56.56-56.56l-.2-.2Z"/></g><g id="desperate-3" data-name="desperate"><circle class="cls-3" cx="96" cy="96" r="40"/><path class="cls-4" d="M96,97.36A22.52,22.52,0,0,0,73.6,120h44.8A22.52,22.52,0,0,0,96,97.36"/><path class="cls-5" d="M73.6,120c0-5.68,10-10.29,22.4-10.29s22.4,4.61,22.4,10.29"/><path class="cls-6" d="M73.73,92a1.73,1.73,0,0,1-1-3.16L82.83,82,72.76,75.16a1.73,1.73,0,0,1,1.93-2.86l12.18,8.27a1.73,1.73,0,0,1,0,2.86L74.69,91.7a1.71,1.71,0,0,1-1,.3Z"/><path class="cls-6" d="M118.27,92a1.71,1.71,0,0,1-1-.3l-12.19-8.27a1.73,1.73,0,0,1,0-2.86l12.19-8.27a1.73,1.73,0,0,1,1.93,2.86L109.17,82l10.08,6.84a1.73,1.73,0,0,1-1,3.16Z"/></g></g></g></svg>