<svg xmlns="http://www.w3.org/2000/svg" viewBox="0 0 192 192"><defs><style>.cls-1{fill:#b0bec5;}.cls-2{fill:#263238;opacity:0.15;}.cls-3{fill:#e53935;}.cls-4{fill:#b71c1c;}.cls-5{fill:#2f2f2f;}.cls-6{fill:#ffca27;}</style></defs><title>devil</title><g id="devil"><g id="devil-2" data-name="devil"><circle id="label" class="cls-1" cx="96" cy="96" r="88"/><g id="shadow"><path class="cls-2" d="M179.19,122.63l-.34-.34-.34-.34-.34-.34-.34-.34-.34-.34-.34-.34-.34-.34-.34-.34-.34-.34-.34-.34-.34-.34-.34-.34-.34-.34-.34-.34-.34-.34-.34-.34-.34-.34-.34-.34-.34-.34-.34-.34-.34-.34-.34-.34-.34-.34-.34-.34-.34-.34-.34-.34-.34-.34-.34-.34-.34-.34-.34-.34-.34-.34-.34-.34-.34-.34-.34-.34-.34-.34-.34-.34-.34-.34-.34-.34-.34-.34-.34-.34-.34-.34-.34-.34-.34-.34-.34-.34-.34-.34-.34-.34-.34-.34-.34-.34-.34-.34-.34-.34-.34-.34-.34-.34-.34-.34-.34-.34-.34-.34-.34-.34-.34-.34-.34-.34-.34-.34-.34-.34-.34-.34-.34-.34-.34-.34-.34-.34-.34-.34-.34-.34-.34-.34-.34-.34-.34-.34-.34-.34-.34-.34-.34-.34-.34-.34-.34-.34-.34-.34-.34-.34-.34-.34-.34-.34-.34-.34-.34-.34-.34-.34-.34-.34-.34-.34-.34-.34-.34-.34-.34-.34-.34-.34-.34-.34-.34-.34L149,92.4l-.34-.34-.34-.34L148,91.4l-.34-.34-.34-.34-.34-.34-.34-.34-.34-.34-.34-.34L145.6,89l-.34-.34-.34-.34L144.6,88l-.34-.34-.34-.34-.34-.34-.34-.34-.34-.34-.34-.34-.34-.34-.34-.34-.34-.34-.34-.34-.34-.34-.34-.34-.34-.34-.34-.34-.34-.34-.34-.34-.34-.34-.34-.34-.34-.34-.34-.34-.34-.34-.34-.34-.34-.34-.34-.34-.34-.34-.34-.34-.34-.34-.34-.34-.34-.34-.34-.34-.34-.34-.34-.34-.34-.34-.34-.34-.34-.34-.34-.34-.34-.34-.34-.34-.34-.34-.34-.34-.34-.34-.34-.34-.34-.34-.34-.34-.34-.34-.34-.34-.34-.34-.34-.34-.34-.34-.34-.34-.34-.34-.34-.34-.34-.34-.34-.34-.34-.34-.34-.34-.34-.34-.34-.34-.34-.34-.34-.34a40,40,0,1,0-56.56,56.56l.34.34.34.34.34.34.34.34.34.34.34.34.34.34.34.34.34.34.34.34.34.34.34.34.34.34.34.34.34.34.34.34.34.34.34.34.34.34.34.34.34.34.34.34.34.34.34.34.34.34.34.34.34.34.34.34.34.34.34.34.34.34.34.34.34.34.34.34.34.34.34.34.34.34.34.34.34.34.34.34.34.34.34.34.34.34.34.34.34.34.34.34.34.34.34.34.34.34.34.34.34.34.34.34.34.34.34.34.34.34.34.34.34.34.34.34.34.34.34.34.34.34.34.34.34.34.34.34.34.34.34.34.34.34.34.34.34.34.34.34.34.34.34.34.34.34.34.34.34.34.34.34.34.34.34.34.34.34.34.34.34.34.34.34.34.34.34.34.34.34.34.34.34.34.34.34.34.34.34.34.34.34.34.34.34.34.34.34.34.34.34.34.34.34.34.34.34.34.34.34.34.34.34.34.34.34.34.34.34.34.34.34.34.34.34.34.34.34.34.34.34.34.34.34.34.34.34.34.34.34.34.34.34.34.34.34.34.34.34.34.34.34.34.34.34.34.34.34.34.34.34.34.34.34.34.34.34.34.34.34.34.34.34.34.34.34.34.34.34.34.34.34.34.34.34.34.34.34.34.34.34.34.34.34.34.34.34.34.34.34.34.34.34.34.34.34.34.34.34.34.34.34.34.34.34.34.34.34.34.34.34.34.34.34.34.34.34.34.34.34.34.34.34.34.34.34.34.34.2.2a88.21,88.21,0,0,0,56.56-56.56l-.2-.2Z"/></g><g id="devil-3" data-name="devil"><path class="cls-3" d="M136,96A40,40,0,1,1,96,56a40,40,0,0,1,40,40"/><path class="cls-4" d="M125.87,69.41c5.45-8,1.37-16.06,1.18-16.42a1.32,1.32,0,0,0-1.31-.7,1.28,1.28,0,0,0-1.13,1,17.47,17.47,0,0,1-6.66,9.3"/><path class="cls-4" d="M73.93,62.61a17.49,17.49,0,0,1-6.76-9.37,1.28,1.28,0,0,0-1.14-1,1.32,1.32,0,0,0-1.31.7A16.66,16.66,0,0,0,66,69.54"/><path class="cls-5" d="M79.5,91.48c-10-2.05-11-11.2-10.32-15.17l24.75,7.41C93.22,87.67,86.5,92.91,79.5,91.48Z"/><path class="cls-6" d="M80.52,87.33c4.22.83,8.28-2.34,9.1-4.89L74,77.76C73.51,80.8,74.64,86.18,80.52,87.33Z"/><path class="cls-5" d="M112.5,91.48c10-2.05,11-11.2,10.32-15.17l-24.75,7.4C98.78,87.67,105.5,92.91,112.5,91.48Z"/><path class="cls-6" d="M111.48,87.33c5.88-1.15,7-6.53,6.51-9.57l-15.6,4.67C103.19,85,107.25,88.16,111.48,87.33Z"/><path class="cls-4" d="M116.57,98.26a2.14,2.14,0,0,0-1.63-.12,2.22,2.22,0,0,0-1.34,1.21,19,19,0,0,1-35.22,0,2.21,2.21,0,0,0-1.32-1.21,2.15,2.15,0,0,0-1.63.11,2.25,2.25,0,0,0-1.05,2.92,23.36,23.36,0,0,0,43.24,0A2.25,2.25,0,0,0,116.57,98.26Z"/></g></g></g></svg>