<svg xmlns="http://www.w3.org/2000/svg" viewBox="0 0 192 192"><defs><style>.cls-1{fill:#7cb342;}.cls-2,.cls-5{fill:#263238;}.cls-2{opacity:0.15;}.cls-3{fill:#ffca28;}.cls-4{fill:#fff;}.cls-6{fill:#e53935;}</style></defs><title>dollar-eyes</title><g id="dollar-eyes"><g id="dollar-eyes-2" data-name="dollar-eyes"><circle id="label" class="cls-1" cx="96" cy="96" r="88"/><g id="shadow"><path class="cls-2" d="M179.19,122.63l-.34-.34-.34-.34-.34-.34-.34-.34-.34-.34-.34-.34-.34-.34-.34-.34-.34-.34-.34-.34-.34-.34-.34-.34-.34-.34-.34-.34-.34-.34-.34-.34-.34-.34-.34-.34-.34-.34-.34-.34-.34-.34-.34-.34-.34-.34-.34-.34-.34-.34-.34-.34-.34-.34-.34-.34-.34-.34-.34-.34-.34-.34-.34-.34-.34-.34-.34-.34-.34-.34-.34-.34-.34-.34-.34-.34-.34-.34-.34-.34-.34-.34-.34-.34-.34-.34-.34-.34-.34-.34-.34-.34-.34-.34-.34-.34-.34-.34-.34-.34-.34-.34-.34-.34-.34-.34-.34-.34-.34-.34-.34-.34-.34-.34-.34-.34-.34-.34-.34-.34-.34-.34-.34-.34-.34-.34-.34-.34-.34-.34-.34-.34-.34-.34-.34-.34-.34-.34-.34-.34-.34-.34-.34-.34-.34-.34-.34-.34-.34-.34-.34-.34-.34-.34-.34-.34-.34-.34-.34-.34-.34-.34-.34-.34-.34-.34-.34-.34-.34-.34-.34-.34-.34-.34-.34-.34-.34-.34L149,92.4l-.34-.34-.34-.34L148,91.4l-.34-.34-.34-.34-.34-.34-.34-.34-.34-.34-.34-.34L145.6,89l-.34-.34-.34-.34L144.6,88l-.34-.34-.34-.34-.34-.34-.34-.34-.34-.34-.34-.34-.34-.34-.34-.34-.34-.34-.34-.34-.34-.34-.34-.34-.34-.34-.34-.34-.34-.34-.34-.34-.34-.34-.34-.34-.34-.34-.34-.34-.34-.34-.34-.34-.34-.34-.34-.34-.34-.34-.34-.34-.34-.34-.34-.34-.34-.34-.34-.34-.34-.34-.34-.34-.34-.34-.34-.34-.34-.34-.34-.34-.34-.34-.34-.34-.34-.34-.34-.34-.34-.34-.34-.34-.34-.34-.34-.34-.34-.34-.34-.34-.34-.34-.34-.34-.34-.34-.34-.34-.34-.34-.34-.34-.34-.34-.34-.34-.34-.34-.34-.34-.34-.34-.34-.34-.34-.34-.34-.34a40,40,0,1,0-56.56,56.56l.34.34.34.34.34.34.34.34.34.34.34.34.34.34.34.34.34.34.34.34.34.34.34.34.34.34.34.34.34.34.34.34.34.34.34.34.34.34.34.34.34.34.34.34.34.34.34.34.34.34.34.34.34.34.34.34.34.34.34.34.34.34.34.34.34.34.34.34.34.34.34.34.34.34.34.34.34.34.34.34.34.34.34.34.34.34.34.34.34.34.34.34.34.34.34.34.34.34.34.34.34.34.34.34.34.34.34.34.34.34.34.34.34.34.34.34.34.34.34.34.34.34.34.34.34.34.34.34.34.34.34.34.34.34.34.34.34.34.34.34.34.34.34.34.34.34.34.34.34.34.34.34.34.34.34.34.34.34.34.34.34.34.34.34.34.34.34.34.34.34.34.34.34.34.34.34.34.34.34.34.34.34.34.34.34.34.34.34.34.34.34.34.34.34.34.34.34.34.34.34.34.34.34.34.34.34.34.34.34.34.34.34.34.34.34.34.34.34.34.34.34.34.34.34.34.34.34.34.34.34.34.34.34.34.34.34.34.34.34.34.34.34.34.34.34.34.34.34.34.34.34.34.34.34.34.34.34.34.34.34.34.34.34.34.34.34.34.34.34.34.34.34.34.34.34.34.34.34.34.34.34.34.34.34.34.34.34.34.34.34.34.34.34.34.34.34.34.34.34.34.34.34.34.34.34.34.34.34.34.34.34.34.34.34.34.34.34.34.34.34.34.34.34.34.34.34.34.34.2.2a88.21,88.21,0,0,0,56.56-56.56l-.2-.2Z"/></g><g id="dollar-eyes-3" data-name="dollar-eyes"><circle class="cls-3" cx="96" cy="96" r="40"/><circle class="cls-4" cx="110.25" cy="82.62" r="11.5"/><path class="cls-5" d="M114.79,85.77c0-2.38-1.54-3.11-3.5-4l-1.06-.5c-2-.93-2.14-1.09-2.14-1.89,0-1.4,1.66-1.51,2.17-1.51s2.11.15,2.11,1.51a1.19,1.19,0,1,0,2.38,0,3.76,3.76,0,0,0-3.3-3.76V74.47a1.19,1.19,0,1,0-2.38,0v1.12a3.83,3.83,0,0,0-3.35,3.76c0,2.38,1.55,3.11,3.5,4l1.06.5c2,.93,2.14,1.09,2.14,1.89,0,1.38-1.65,1.49-2.16,1.49s-2.17-.15-2.17-1.49a1.19,1.19,0,0,0-2.38,0,3.76,3.76,0,0,0,3.35,3.74v1.27a1.19,1.19,0,1,0,2.38,0V89.52A3.76,3.76,0,0,0,114.79,85.77Z"/><circle class="cls-4" cx="81.75" cy="82.62" r="11.5"/><path class="cls-5" d="M86.29,85.77c0-2.38-1.54-3.11-3.5-4l-1.06-.5c-2-.93-2.14-1.09-2.14-1.89,0-1.4,1.66-1.51,2.17-1.51s2.11.15,2.11,1.51a1.19,1.19,0,1,0,2.38,0,3.76,3.76,0,0,0-3.3-3.76V74.47a1.19,1.19,0,1,0-2.38,0v1.12a3.83,3.83,0,0,0-3.35,3.76c0,2.38,1.55,3.11,3.5,4l1.06.5c2,.93,2.14,1.09,2.14,1.89,0,1.38-1.65,1.49-2.16,1.49s-2.17-.15-2.17-1.49a1.19,1.19,0,0,0-2.38,0,3.76,3.76,0,0,0,3.35,3.74v1.27a1.19,1.19,0,1,0,2.38,0V89.52A3.76,3.76,0,0,0,86.29,85.77Z"/><path class="cls-6" d="M96,120.87c-10.84,0-19.71-8.82-20.5-20h41C115.71,112.06,106.84,120.87,96,120.87Z"/></g></g></g></svg>