<svg xmlns="http://www.w3.org/2000/svg" viewBox="0 0 192 192"><defs><style>.cls-1{fill:#ff80ab;}.cls-2,.cls-4{fill:#263238;}.cls-2{opacity:0.1;}.cls-3{fill:#ffca28;}.cls-5{fill:#e53935;}</style></defs><title>kiss-hearts</title><g id="kiss-hearts"><g id="kiss-hearts-2" data-name="kiss-hearts"><circle id="label" class="cls-1" cx="96" cy="96" r="88"/><g id="shadow"><path class="cls-2" d="M179.19,122.63l-.34-.34-.34-.34-.34-.34-.34-.34-.34-.34-.34-.34-.34-.34-.34-.34-.34-.34-.34-.34-.34-.34-.34-.34-.34-.34-.34-.34-.34-.34-.34-.34-.34-.34-.34-.34-.34-.34-.34-.34-.34-.34-.34-.34-.34-.34-.34-.34-.34-.34-.34-.34-.34-.34-.34-.34-.34-.34-.34-.34-.34-.34-.34-.34-.34-.34-.34-.34-.34-.34-.34-.34-.34-.34-.34-.34-.34-.34-.34-.34-.34-.34-.34-.34-.34-.34-.34-.34-.34-.34-.34-.34-.34-.34-.34-.34-.34-.34-.34-.34-.34-.34-.34-.34-.34-.34-.34-.34-.34-.34-.34-.34-.34-.34-.34-.34-.34-.34-.34-.34-.34-.34-.34-.34-.34-.34-.34-.34-.34-.34-.34-.34-.34-.34-.34-.34-.34-.34-.34-.34-.34-.34-.34-.34-.34-.34-.34-.34-.34-.34-.34-.34-.34-.34-.34-.34-.34-.34-.34-.34-.34-.34-.34-.34-.34-.34-.34-.34-.34-.34-.34-.34-.34-.34-.34-.34-.34-.34L149,92.4l-.34-.34-.34-.34L148,91.4l-.34-.34-.34-.34-.34-.34-.34-.34-.34-.34-.34-.34L145.6,89l-.34-.34-.34-.34L144.6,88l-.34-.34-.34-.34-.34-.34-.34-.34-.34-.34-.34-.34-.34-.34-.34-.34-.34-.34-.34-.34-.34-.34-.34-.34-.34-.34-.34-.34-.34-.34-.34-.34-.34-.34-.34-.34-.34-.34-.34-.34-.34-.34-.34-.34-.34-.34-.34-.34-.34-.34-.34-.34-.34-.34-.34-.34-.34-.34-.34-.34-.34-.34-.34-.34-.34-.34-.34-.34-.34-.34-.34-.34-.34-.34-.34-.34-.34-.34-.34-.34-.34-.34-.34-.34-.34-.34-.34-.34-.34-.34-.34-.34-.34-.34-.34-.34-.34-.34-.34-.34-.34-.34-.34-.34-.34-.34-.34-.34-.34-.34-.34-.34-.34-.34-.34-.34-.34-.34-.34-.34a40,40,0,1,0-56.56,56.56l.34.34.34.34.34.34.34.34.34.34.34.34.34.34.34.34.34.34.34.34.34.34.34.34.34.34.34.34.34.34.34.34.34.34.34.34.34.34.34.34.34.34.34.34.34.34.34.34.34.34.34.34.34.34.34.34.34.34.34.34.34.34.34.34.34.34.34.34.34.34.34.34.34.34.34.34.34.34.34.34.34.34.34.34.34.34.34.34.34.34.34.34.34.34.34.34.34.34.34.34.34.34.34.34.34.34.34.34.34.34.34.34.34.34.34.34.34.34.34.34.34.34.34.34.34.34.34.34.34.34.34.34.34.34.34.34.34.34.34.34.34.34.34.34.34.34.34.34.34.34.34.34.34.34.34.34.34.34.34.34.34.34.34.34.34.34.34.34.34.34.34.34.34.34.34.34.34.34.34.34.34.34.34.34.34.34.34.34.34.34.34.34.34.34.34.34.34.34.34.34.34.34.34.34.34.34.34.34.34.34.34.34.34.34.34.34.34.34.34.34.34.34.34.34.34.34.34.34.34.34.34.34.34.34.34.34.34.34.34.34.34.34.34.34.34.34.34.34.34.34.34.34.34.34.34.34.34.34.34.34.34.34.34.34.34.34.34.34.34.34.34.34.34.34.34.34.34.34.34.34.34.34.34.34.34.34.34.34.34.34.34.34.34.34.34.34.34.34.34.34.34.34.34.34.34.34.34.34.34.34.34.34.34.34.34.34.34.34.34.34.34.34.34.34.34.34.34.34.2.2a88.21,88.21,0,0,0,56.56-56.56l-.2-.2Z"/></g><g id="kiss-hearts-3" data-name="kiss-hearts"><path class="cls-3" d="M136,96A40,40,0,1,1,96,56a40,40,0,0,1,40,40"/><path class="cls-4" d="M97.61,116.49a1.45,1.45,0,0,1-.8-2.65l5-3.32-5-3.32a1.44,1.44,0,0,1,0-2.4l5-3.33-5-3.32a1.45,1.45,0,0,1,1.6-2.4l6.79,4.52a1.44,1.44,0,0,1,0,2.41l-5,3.33,5,3.32a1.44,1.44,0,0,1,0,2.4l-6.79,4.52a1.44,1.44,0,0,1-.8.24Z"/><path class="cls-5" d="M141.09,114.34a4.46,4.46,0,0,0-4.29-4.29,4.29,4.29,0,0,0-3.93,2.57,4.16,4.16,0,0,0-3.83-2.57,4.46,4.46,0,0,0-4.29,4.29,4.16,4.16,0,0,0,.14,1.62,7.14,7.14,0,0,0,2.26,3.64l5.72,5,5.81-5A7.14,7.14,0,0,0,141,116,4.16,4.16,0,0,0,141.09,114.34Z"/><path class="cls-5" d="M129.1,101.29a4.15,4.15,0,0,0,.14-1.62A4.45,4.45,0,0,0,125,95.39,4.29,4.29,0,0,0,121,98a4.14,4.14,0,0,0-3.83-2.57,4.45,4.45,0,0,0-4.29,4.29,4.15,4.15,0,0,0,.14,1.62,7.12,7.12,0,0,0,2.26,3.64l5.72,5,5.82-5A7.12,7.12,0,0,0,129.1,101.29Z"/><path class="cls-4" d="M88.34,86.33a1.66,1.66,0,0,1-1.66-1.66,5.68,5.68,0,1,0-11.36,0,1.66,1.66,0,0,1-3.32,0,9,9,0,1,1,18,0,1.66,1.66,0,0,1-1.66,1.66Z"/><path class="cls-4" d="M118.34,86.33a1.66,1.66,0,0,1-1.66-1.66,5.68,5.68,0,1,0-11.36,0,1.66,1.66,0,0,1-3.32,0,9,9,0,1,1,18,0,1.66,1.66,0,0,1-1.66,1.66Z"/></g></g></g></svg>