<svg xmlns="http://www.w3.org/2000/svg" viewBox="0 0 192 192"><defs><style>.cls-1{fill:#ff6f00;}.cls-2,.cls-7{fill:#263238;}.cls-2{opacity:0.1;}.cls-3{fill:#ffca28;}.cls-4{fill:#e53935;}.cls-5{fill:#fff;}.cls-6{fill:#00b0ff;}</style></defs><title>laughing-crying</title><g id="laughing-crying"><g id="laughing-crying-2" data-name="laughing-crying"><circle id="label" class="cls-1" cx="96" cy="96" r="88"/><g id="shadow"><path class="cls-2" d="M179.19,122.63l-.34-.34-.34-.34-.34-.34-.34-.34-.34-.34-.34-.34-.34-.34-.34-.34-.34-.34-.34-.34-.34-.34-.34-.34-.34-.34-.34-.34-.34-.34-.34-.34-.34-.34-.34-.34-.34-.34-.34-.34-.34-.34-.34-.34-.34-.34-.34-.34-.34-.34-.34-.34-.34-.34-.34-.34-.34-.34-.34-.34-.34-.34-.34-.34-.34-.34-.34-.34-.34-.34-.34-.34-.34-.34-.34-.34-.34-.34-.34-.34-.34-.34-.34-.34-.34-.34-.34-.34-.34-.34-.34-.34-.34-.34-.34-.34-.34-.34-.34-.34-.34-.34-.34-.34-.34-.34-.34-.34-.34-.34-.34-.34-.34-.34-.34-.34-.34-.34-.34-.34-.34-.34-.34-.34-.34-.34-.34-.34-.34-.34-.34-.34-.34-.34-.34-.34-.34-.34-.34-.34-.34-.34-.34-.34-.34-.34-.34-.34-.34-.34-.34-.34-.34-.34-.34-.34-.34-.34-.34-.34-.34-.34-.34-.34-.34-.34-.34-.34-.34-.34-.34-.34-.34-.34-.34-.34-.34-.34L149,92.4l-.34-.34-.34-.34L148,91.4l-.34-.34-.34-.34-.34-.34-.34-.34-.34-.34-.34-.34L145.6,89l-.34-.34-.34-.34L144.6,88l-.34-.34-.34-.34-.34-.34-.34-.34-.34-.34-.34-.34-.34-.34-.34-.34-.34-.34-.34-.34-.34-.34-.34-.34-.34-.34-.34-.34-.34-.34-.34-.34-.34-.34-.34-.34-.34-.34-.34-.34-.34-.34-.34-.34-.34-.34-.34-.34-.34-.34-.34-.34-.34-.34-.34-.34-.34-.34-.34-.34-.34-.34-.34-.34-.34-.34-.34-.34-.34-.34-.34-.34-.34-.34-.34-.34-.34-.34-.34-.34-.34-.34-.34-.34-.34-.34-.34-.34-.34-.34-.34-.34-.34-.34-.34-.34-.34-.34-.34-.34-.34-.34-.34-.34-.34-.34-.34-.34-.34-.34-.34-.34-.34-.34-.34-.34-.34-.34-.34-.34a40,40,0,1,0-56.56,56.56l.34.34.34.34.34.34.34.34.34.34.34.34.34.34.34.34.34.34.34.34.34.34.34.34.34.34.34.34.34.34.34.34.34.34.34.34.34.34.34.34.34.34.34.34.34.34.34.34.34.34.34.34.34.34.34.34.34.34.34.34.34.34.34.34.34.34.34.34.34.34.34.34.34.34.34.34.34.34.34.34.34.34.34.34.34.34.34.34.34.34.34.34.34.34.34.34.34.34.34.34.34.34.34.34.34.34.34.34.34.34.34.34.34.34.34.34.34.34.34.34.34.34.34.34.34.34.34.34.34.34.34.34.34.34.34.34.34.34.34.34.34.34.34.34.34.34.34.34.34.34.34.34.34.34.34.34.34.34.34.34.34.34.34.34.34.34.34.34.34.34.34.34.34.34.34.34.34.34.34.34.34.34.34.34.34.34.34.34.34.34.34.34.34.34.34.34.34.34.34.34.34.34.34.34.34.34.34.34.34.34.34.34.34.34.34.34.34.34.34.34.34.34.34.34.34.34.34.34.34.34.34.34.34.34.34.34.34.34.34.34.34.34.34.34.34.34.34.34.34.34.34.34.34.34.34.34.34.34.34.34.34.34.34.34.34.34.34.34.34.34.34.34.34.34.34.34.34.34.34.34.34.34.34.34.34.34.34.34.34.34.34.34.34.34.34.34.34.34.34.34.34.34.34.34.34.34.34.34.34.34.34.34.34.34.34.34.34.34.34.34.34.34.34.34.34.34.34.34.2.2a88.21,88.21,0,0,0,56.56-56.56l-.2-.2Z"/></g><g id="laughing-crying-3" data-name="laughing-crying"><circle class="cls-3" cx="96" cy="96" r="40"/><path class="cls-4" d="M102.66,107.52H89.34a7.2,7.2,0,1,0,13.32,0Z"/><path class="cls-5" d="M102.66,107.52a6.9,6.9,0,0,0-.45-.89l-.07-.11a7.35,7.35,0,0,0-1.22-1.51l-.12-.11a7.35,7.35,0,0,0-.74-.59h0a6.83,6.83,0,0,0-.82-.48l-.19-.09a7.22,7.22,0,0,0-.87-.35h0a6.9,6.9,0,0,0-.93-.22l-.23,0a7.37,7.37,0,0,0-1-.08,7.29,7.29,0,0,0-1,.08l-.23,0a7,7,0,0,0-.94.22h0a7.34,7.34,0,0,0-.87.35l-.18.09a7,7,0,0,0-.83.48h0a6.85,6.85,0,0,0-.74.59l-.12.11a7.15,7.15,0,0,0-1.22,1.51l-.07.11a7.1,7.1,0,0,0-.44.89h13.32Z"/><path class="cls-6" d="M79.32,131.85A4.88,4.88,0,0,1,74.44,127V84.1a4.88,4.88,0,1,1,9.77,0V127a4.88,4.88,0,0,1-4.88,4.88Z"/><path class="cls-7" d="M85.3,86.83a1.35,1.35,0,0,1-1.35-1.35,4.62,4.62,0,1,0-9.24,0,1.35,1.35,0,0,1-2.7,0,7.32,7.32,0,1,1,14.65,0,1.35,1.35,0,0,1-1.35,1.35Z"/><path class="cls-6" d="M112.68,131.85a4.88,4.88,0,0,1-4.88-4.88V84.1a4.88,4.88,0,1,1,9.77,0V127a4.88,4.88,0,0,1-4.88,4.88Z"/><path class="cls-7" d="M118.65,86.83a1.35,1.35,0,0,1-1.35-1.35,4.62,4.62,0,1,0-9.24,0,1.35,1.35,0,1,1-2.7,0,7.32,7.32,0,1,1,14.65,0,1.35,1.35,0,0,1-1.35,1.35Z"/></g></g></g></svg>