<svg id="nerd" xmlns="http://www.w3.org/2000/svg" viewBox="0 0 192 192"><defs><style>.cls-1{fill:#455a64;}.cls-2,.cls-5{fill:#263238;}.cls-2{opacity:0.25;}.cls-3{fill:#ffca28;}.cls-4{fill:#546e7a;}.cls-6{fill:#37474f;}.cls-7{fill:#e53935;}</style></defs><title>nerd</title><g id="nerd-2" data-name="nerd"><circle id="label" class="cls-1" cx="96" cy="96" r="88"/><g id="shadow"><path class="cls-2" d="M179.19,122.63l-.34-.34-.34-.34-.34-.34-.34-.34-.34-.34-.34-.34-.34-.34-.34-.34-.34-.34-.34-.34-.34-.34-.34-.34-.34-.34-.34-.34-.34-.34-.34-.34-.34-.34-.34-.34-.34-.34-.34-.34-.34-.34-.34-.34-.34-.34-.34-.34-.34-.34-.34-.34-.34-.34-.34-.34-.34-.34-.34-.34-.34-.34-.34-.34-.34-.34-.34-.34-.34-.34-.34-.34-.34-.34-.34-.34-.34-.34-.34-.34-.34-.34-.34-.34-.34-.34-.34-.34-.34-.34-.34-.34-.34-.34-.34-.34-.34-.34-.34-.34-.34-.34-.34-.34-.34-.34-.34-.34-.34-.34-.34-.34-.34-.34-.34-.34-.34-.34-.34-.34-.34-.34-.34-.34-.34-.34-.34-.34-.34-.34-.34-.34-.34-.34-.34-.34-.34-.34-.34-.34-.34-.34-.34-.34-.34-.34-.34-.34-.34-.34-.34-.34-.34-.34-.34-.34-.34-.34-.34-.34-.34-.34-.34-.34-.34-.34-.34-.34-.34-.34-.34-.34-.34-.34-.34-.34-.34-.34L149,92.4l-.34-.34-.34-.34L148,91.4l-.34-.34-.34-.34-.34-.34-.34-.34-.34-.34-.34-.34L145.6,89l-.34-.34-.34-.34L144.6,88l-.34-.34-.34-.34-.34-.34-.34-.34-.34-.34-.34-.34-.34-.34-.34-.34-.34-.34-.34-.34-.34-.34-.34-.34-.34-.34-.34-.34-.34-.34-.34-.34-.34-.34-.34-.34-.34-.34-.34-.34-.34-.34-.34-.34-.34-.34-.34-.34-.34-.34-.34-.34-.34-.34-.34-.34-.34-.34-.34-.34-.34-.34-.34-.34-.34-.34-.34-.34-.34-.34-.34-.34-.34-.34-.34-.34-.34-.34-.34-.34-.34-.34-.34-.34-.34-.34-.34-.34-.34-.34-.34-.34-.34-.34-.34-.34-.34-.34-.34-.34-.34-.34-.34-.34-.34-.34-.34-.34-.34-.34-.34-.34-.34-.34-.34-.34-.34-.34-.34-.34a40,40,0,1,0-56.56,56.56l.34.34.34.34.34.34.34.34.34.34.34.34.34.34.34.34.34.34.34.34.34.34.34.34.34.34.34.34.34.34.34.34.34.34.34.34.34.34.34.34.34.34.34.34.34.34.34.34.34.34.34.34.34.34.34.34.34.34.34.34.34.34.34.34.34.34.34.34.34.34.34.34.34.34.34.34.34.34.34.34.34.34.34.34.34.34.34.34.34.34.34.34.34.34.34.34.34.34.34.34.34.34.34.34.34.34.34.34.34.34.34.34.34.34.34.34.34.34.34.34.34.34.34.34.34.34.34.34.34.34.34.34.34.34.34.34.34.34.34.34.34.34.34.34.34.34.34.34.34.34.34.34.34.34.34.34.34.34.34.34.34.34.34.34.34.34.34.34.34.34.34.34.34.34.34.34.34.34.34.34.34.34.34.34.34.34.34.34.34.34.34.34.34.34.34.34.34.34.34.34.34.34.34.34.34.34.34.34.34.34.34.34.34.34.34.34.34.34.34.34.34.34.34.34.34.34.34.34.34.34.34.34.34.34.34.34.34.34.34.34.34.34.34.34.34.34.34.34.34.34.34.34.34.34.34.34.34.34.34.34.34.34.34.34.34.34.34.34.34.34.34.34.34.34.34.34.34.34.34.34.34.34.34.34.34.34.34.34.34.34.34.34.34.34.34.34.34.34.34.34.34.34.34.34.34.34.34.34.34.34.34.34.34.34.34.34.34.34.34.34.34.34.34.34.34.34.34.34.2.2a88.21,88.21,0,0,0,56.56-56.56l-.2-.2Z"/></g><g id="nerd-3" data-name="nerd"><path class="cls-3" d="M136,96A40,40,0,1,1,96,56a40,40,0,0,1,40,40"/><circle class="cls-4" cx="75.11" cy="87.58" r="16.07"/><path class="cls-5" d="M75.11,105.19A17.61,17.61,0,1,1,92.72,87.58a17.63,17.63,0,0,1-17.61,17.61Zm0-32.14A14.52,14.52,0,1,0,89.64,87.58,14.54,14.54,0,0,0,75.11,73.05Z"/><path class="cls-4" d="M133,87.58a16.07,16.07,0,1,1-16.07-16.07A16.07,16.07,0,0,1,133,87.58Z"/><path class="cls-5" d="M116.89,105.19A17.61,17.61,0,1,1,134.5,87.58a17.63,17.63,0,0,1-17.61,17.61Zm0-32.14a14.52,14.52,0,1,0,14.53,14.53,14.54,14.54,0,0,0-14.53-14.53Z"/><path class="cls-5" d="M100,86.83h-8a1.54,1.54,0,1,1,0-3.09h8a1.54,1.54,0,1,1,0,3.09Z"/><path class="cls-6" d="M84.58,93a4,4,0,1,1-4-4,4,4,0,0,1,4,4"/><path class="cls-6" d="M115.42,93a4,4,0,1,1-4-4,4,4,0,0,1,4,4"/><path class="cls-7" d="M90.19,122A23.92,23.92,0,0,1,81,120.2a1.6,1.6,0,1,1,1.23-3,21.28,21.28,0,0,0,15.61.19,19.19,19.19,0,0,0,11.1-10.52,1.6,1.6,0,0,1,3,1.23c-3.6,8.63-12.45,13.9-21.68,13.9Z"/></g></g></svg>