<svg xmlns="http://www.w3.org/2000/svg" viewBox="0 0 192 192"><defs><style>.cls-1{fill:#ffca28;}.cls-2,.cls-7{fill:#263238;}.cls-2{opacity:0.1;}.cls-3{fill:#6d4c41;}.cls-4{fill:#4e342e;}.cls-5{fill:#ff80ab;}.cls-6{fill:#fff;}</style></defs><title>poop</title><g id="poop"><g id="poop-2" data-name="poop"><circle id="label" class="cls-1" cx="96" cy="96" r="88"/><g id="shadow"><path class="cls-2" d="M176.22,131.1l-.3-.3-.3-.3-.3-.3-.3-.3-.3-.3-.3-.3-.3-.3-.3-.3-.3-.3-.3-.3-.3-.3-.3-.3-.3-.3-.3-.3-.3-.3-.3-.3-.3-.3-.3-.3-.3-.3-.3-.3-.3-.3-.3-.3-.3-.3-.3-.3-.3-.3-.3-.3-.3-.3-.3-.3-.3-.3-.3-.3-.3-.3-.3-.3-.3-.3-.3-.3-.3-.3-.3-.3-.3-.3-.3-.3-.3-.3-.3-.3-.3-.3-.3-.3-.3-.3-.3-.3-.3-.3-.3-.3-.3-.3-.3-.3-.3-.3-.3-.3-.3-.3-.3-.3-.3-.3-.3-.3-.3-.3-.3-.3-.3-.3-.3-.3-.3-.3-.3-.3-.3-.3-.3-.3-.3-.3-.3-.3-.3-.3-.3-.3-.3-.3-.3-.3-.3-.3-.3-.3-.3-.3-.3-.3-.3-.3-.3-.3-.3-.3-.3-.3-.3-.3-.3-.3-.3-.3-.3-.3-.3-.3-.3-.3-.3-.3-.3-.3-.3-.3-.3-.3-.3-.3-.3-.3-.3-.3-.3-.3-.3-.3-.3-.3-.3-.3-.3-.3-.3-.3-.3-.3-.3-.3-.3-.3-.3-.3-.3-.3-.3-.3-.3-.3-.3-.3-.3-.3-.3-.3-.3-.3-.3-.3-.3-.3-.3-.3-.3-.3-.3-.3-.3-.3-.3-.3-.3-.3-.3-.3-.3-.3-.3-.3-.3-.3-.3-.3-.3-.3-.3-.3-.3-.3-.3-.3-.3-.3-.3-.3-.3-.3-.3-.3-.3-.3-.3-.3-.3-.3-.3-.3-.3-.3-.3-.3-.3-.3-.3-.3-.3-.3-.3-.3-.3-.3-.3-.3-.3-.3-.3-.3-.3-.3-.3-.3-.3-.3-.3-.3-.3-.3-.3-.3-.3-.3-.3-.3-.3-.3-.3-.3-.3-.3-.3-.3-.3-.3-.3-.3-.3-.3-.3-.3-.3-.3-.3-.3-.3-.3-.3-.3-.3-.3-.3-.3-.3-.3-.3-.3-.3-.3-.3-.3-.3-.3-.3-.3-.3-.3-.3-.3-.3-.3-.3-.3-.3-.3-.3-.3-.3-.3-.3-.3-.3-.3-.3-.3-.3-.3-.3-.3-.3-.3-.3-.3-.3-.3-.3-.3-.3-.3-.3-.3-.3-.3-.3-.3-.3-.3-.3-.3-.3-.3-.3-.3-.3-.3-.3-.3-.3-.3-.3-.3-.3-.3-.3-.3-.3-.3-.3-.3-.3-.3-.3-.3-.3-.3-.3-.3-.3-.3-.3-.3-.3-.3-.3-.3-.3-.3-.3-.3-.3-.3-.3-.3-.3-.3-.3-.3-.3-.3-.3-.3-.3-.3-.3-.3-.3-.3-.3-.3c-2.73-2.92-8.2-1.93-13.27-5.66l0,0h0L96.45,59l-.18-.23,0,0L96,58.44l0,0-.26-.33,0,0-.26-.33,0,0-.26-.33,0,0-.26-.33,0,0-.26-.33,0,0-.26-.33,0,0-.26-.33,0,0L93.57,56l0,0-.26-.33A12.71,12.71,0,0,0,86.85,68a49.67,49.67,0,0,0-8.48,2.09h0a8.29,8.29,0,0,0-5.18,7.68A8.2,8.2,0,0,0,75,82.92l-1.54.58h0a13.14,13.14,0,0,0-8.87,12.14,12.26,12.26,0,0,0,1.83,6.42,17.78,17.78,0,0,0-10.7,16.16,17.54,17.54,0,0,0,5.5,12.72l.3.3.3.3.3.3.3.3.3.3.3.3.3.3.3.3.3.3.3.3.3.3.3.3.3.3.3.3.3.3.3.3.3.3.3.3.3.3.3.3.3.3.3.3.3.3.3.3.3.3.3.3.3.3.3.3.3.3.3.3.3.3.3.3.3.3.3.3.3.3.3.3.3.3.3.3.3.3.3.3.3.3.3.3.3.3.3.3.3.3.3.3.3.3.3.3.3.3.3.3.3.3.3.3.3.3.3.3.3.3.3.3.3.3.3.3.3.3.3.3.3.3.3.3.3.3.3.3.3.3.3.3.3.3.3.3.3.3.3.3.3.3.3.3.3.3.3.3.3.3.3.3.3.3.3.3.3.3.3.3.3.3.3.3.3.3.3.3.3.3.3.3.3.3.3.3.3.3.3.3.3.3.3.3.3.3.3.3.3.3.3.3.3.3.3.3.3.3.3.3.3.3.3.3.3.3.3.3.3.3.3.3.3.3.3.3.3.3.3.3.3.3.3.3.3.3.3.3.3.3.3.3.3.3.3.3.3.3.3.3.3.3.3.3.3.3.3.3.3.3.3.3.3.3.3.3.3.3.3.3.3.3.3.3.3.3.3.3.3.3.3.3.3.3.3.3.3.3.3.3.3.3.3.3.3.3.3.3.3.3.3.3.3.3.3.3.3.3.3.3.3.3.3.3.3.3.3.3.3.3.3.3.3.3.3.3.3.3.3.3.3.3.3.3.3.3.3.3.3.3.3.3.3.3.3.3.3.3.3.3.3.3.3.3,0,0a88.5,88.5,0,0,0,63.82-51l-.23-.23Z"/></g><g id="poop-3" data-name="poop"><path class="cls-3" d="M130.68,107.6a18.16,18.16,0,0,0-8.32-19.45,12.5,12.5,0,0,0-.72-8.37,14,14,0,0,0-10.51-7.95A6.55,6.55,0,0,0,111.2,67C109,60.3,100,64.76,93.35,55.84a12.71,12.71,0,0,0-6.42,12.24,49.67,49.67,0,0,0-8.48,2.09h0a8.29,8.29,0,0,0-5.18,7.68A8.2,8.2,0,0,0,75.12,83l-1.54.58h0a13.14,13.14,0,0,0-8.87,12.14,12.26,12.26,0,0,0,1.83,6.42,17.78,17.78,0,0,0-10.7,16.16c0,9.86,8.24,17.85,18.4,17.85H119.8a16.35,16.35,0,0,0,10.88-28.57"/><path class="cls-4" d="M116.73,107.4a20.73,20.73,0,1,1-41.46,0Z"/><path class="cls-5" d="M79.7,120.21a20.72,20.72,0,0,0,32.59,0A25,25,0,0,0,96,114.63,25.05,25.05,0,0,0,79.7,120.21Z"/><circle class="cls-6" cx="107.12" cy="88.53" r="7.88"/><circle class="cls-7" cx="107.12" cy="88.53" r="3.94"/><circle class="cls-6" cx="84.88" cy="88.53" r="7.88"/><circle class="cls-7" cx="84.88" cy="88.53" r="3.94"/></g></g></g></svg>