<svg xmlns="http://www.w3.org/2000/svg" viewBox="0 0 192 192"><defs><style>.cls-1{fill:#00897b;}.cls-2,.cls-4{fill:#263238;}.cls-2{opacity:0.15;}.cls-3{fill:#ffca28;}.cls-5{fill:#e53935;}.cls-6{fill:#fff;}.cls-7{fill:#00b0ff;}</style></defs><title>relieved</title><g id="relieved"><g id="relieved-2" data-name="relieved"><circle id="label" class="cls-1" cx="96" cy="96" r="88"/><g id="shadow"><path class="cls-2" d="M179.19,122.63l-.34-.34-.34-.34-.34-.34-.34-.34-.34-.34-.34-.34-.34-.34-.34-.34-.34-.34-.34-.34-.34-.34-.34-.34-.34-.34-.34-.34-.34-.34-.34-.34-.34-.34-.34-.34-.34-.34-.34-.34-.34-.34-.34-.34-.34-.34-.34-.34-.34-.34-.34-.34-.34-.34-.34-.34-.34-.34-.34-.34-.34-.34-.34-.34-.34-.34-.34-.34-.34-.34-.34-.34-.34-.34-.34-.34-.34-.34-.34-.34-.34-.34-.34-.34-.34-.34-.34-.34-.34-.34-.34-.34-.34-.34-.34-.34-.34-.34-.34-.34-.34-.34-.34-.34-.34-.34-.34-.34-.34-.34-.34-.34-.34-.34-.34-.34-.34-.34-.34-.34-.34-.34-.34-.34-.34-.34-.34-.34-.34-.34-.34-.34-.34-.34-.34-.34-.34-.34-.34-.34-.34-.34-.34-.34-.34-.34-.34-.34-.34-.34-.34-.34-.34-.34-.34-.34-.34-.34-.34-.34-.34-.34-.34-.34-.34-.34-.34-.34-.34-.34-.34-.34-.34-.34-.34-.34-.34-.34L149,92.4l-.34-.34-.34-.34L148,91.4l-.34-.34-.34-.34-.34-.34-.34-.34-.34-.34-.34-.34L145.6,89l-.34-.34-.34-.34L144.6,88l-.34-.34-.34-.34-.34-.34-.34-.34-.34-.34-.34-.34-.34-.34-.34-.34-.34-.34-.34-.34-.34-.34-.34-.34-.34-.34-.34-.34-.34-.34-.34-.34-.34-.34-.34-.34-.34-.34-.34-.34-.34-.34-.34-.34-.34-.34-.34-.34-.34-.34-.34-.34-.34-.34-.34-.34-.34-.34-.34-.34-.34-.34-.34-.34-.34-.34-.34-.34-.34-.34-.34-.34-.34-.34-.34-.34-.34-.34-.34-.34-.34-.34-.34-.34-.34-.34-.34-.34-.34-.34-.34-.34-.34-.34-.34-.34-.34-.34-.34-.34-.34-.34-.34-.34-.34-.34-.34-.34-.34-.34-.34-.34-.34-.34-.34-.34-.34-.34-.34-.34a40,40,0,1,0-56.56,56.56l.34.34.34.34.34.34.34.34.34.34.34.34.34.34.34.34.34.34.34.34.34.34.34.34.34.34.34.34.34.34.34.34.34.34.34.34.34.34.34.34.34.34.34.34.34.34.34.34.34.34.34.34.34.34.34.34.34.34.34.34.34.34.34.34.34.34.34.34.34.34.34.34.34.34.34.34.34.34.34.34.34.34.34.34.34.34.34.34.34.34.34.34.34.34.34.34.34.34.34.34.34.34.34.34.34.34.34.34.34.34.34.34.34.34.34.34.34.34.34.34.34.34.34.34.34.34.34.34.34.34.34.34.34.34.34.34.34.34.34.34.34.34.34.34.34.34.34.34.34.34.34.34.34.34.34.34.34.34.34.34.34.34.34.34.34.34.34.34.34.34.34.34.34.34.34.34.34.34.34.34.34.34.34.34.34.34.34.34.34.34.34.34.34.34.34.34.34.34.34.34.34.34.34.34.34.34.34.34.34.34.34.34.34.34.34.34.34.34.34.34.34.34.34.34.34.34.34.34.34.34.34.34.34.34.34.34.34.34.34.34.34.34.34.34.34.34.34.34.34.34.34.34.34.34.34.34.34.34.34.34.34.34.34.34.34.34.34.34.34.34.34.34.34.34.34.34.34.34.34.34.34.34.34.34.34.34.34.34.34.34.34.34.34.34.34.34.34.34.34.34.34.34.34.34.34.34.34.34.34.34.34.34.34.34.34.34.34.34.34.34.34.34.34.34.34.34.34.34.2.2a88.21,88.21,0,0,0,56.56-56.56l-.2-.2Z"/></g><g id="relieved-3" data-name="relieved"><circle class="cls-3" cx="96" cy="96" r="40"/><path class="cls-4" d="M88.34,84.72a1.66,1.66,0,0,1-1.66-1.66,5.68,5.68,0,1,0-11.36,0,1.66,1.66,0,0,1-3.32,0,9,9,0,1,1,18,0,1.66,1.66,0,0,1-1.66,1.66Z"/><path class="cls-4" d="M118.34,84.72a1.66,1.66,0,0,1-1.66-1.66,5.68,5.68,0,1,0-11.36,0,1.66,1.66,0,0,1-3.32,0,9,9,0,1,1,18,0,1.66,1.66,0,0,1-1.66,1.66Z"/><path class="cls-5" d="M119.13,101.12H72.87A20.14,20.14,0,0,1,72,96.86c.94,10.78,11.32,21.08,24,21.08s23.06-10.3,24-21.08A20,20,0,0,1,119.13,101.12Z"/><path class="cls-6" d="M119.53,101.59a20.35,20.35,0,0,0,.89-4.32l0-.22c0-.47.06-.93.06-1.4h-49c0,.47,0,.94.06,1.4l0,.21a20.49,20.49,0,0,0,.89,4.33Z"/><path class="cls-7" d="M124,77.28c4.43,0,6.64-3.37,5.65-8.15-.67-3.25-3.44-7-5.66-10.41-2.21,3.37-5,7.16-5.65,10.41C117.36,73.9,119.57,77.28,124,77.28Z"/></g></g></g></svg>