<svg xmlns="http://www.w3.org/2000/svg" viewBox="0 0 192 192"><defs><style>.cls-1{fill:#ec407a;}.cls-2,.cls-4{fill:#263238;}.cls-2{opacity:0.15;}.cls-3{fill:#ffca28;}.cls-5{fill:#e53935;}.cls-6{fill:#fff;}</style></defs><title>shocked</title><g id="shocked"><g id="shocked-2-2" data-name="shocked"><circle id="label" class="cls-1" cx="96" cy="96" r="88"/><g id="shadow"><path class="cls-2" d="M179.19,122.63l-.34-.34-.34-.34-.34-.34-.34-.34-.34-.34-.34-.34-.34-.34-.34-.34-.34-.34-.34-.34-.34-.34-.34-.34-.34-.34-.34-.34-.34-.34-.34-.34-.34-.34-.34-.34-.34-.34-.34-.34-.34-.34-.34-.34-.34-.34-.34-.34-.34-.34-.34-.34-.34-.34-.34-.34-.34-.34-.34-.34-.34-.34-.34-.34-.34-.34-.34-.34-.34-.34-.34-.34-.34-.34-.34-.34-.34-.34-.34-.34-.34-.34-.34-.34-.34-.34-.34-.34-.34-.34-.34-.34-.34-.34-.34-.34-.34-.34-.34-.34-.34-.34-.34-.34-.34-.34-.34-.34-.34-.34-.34-.34-.34-.34-.34-.34-.34-.34-.34-.34-.34-.34-.34-.34-.34-.34-.34-.34-.34-.34-.34-.34-.34-.34-.34-.34-.34-.34-.34-.34-.34-.34-.34-.34-.34-.34-.34-.34-.34-.34-.34-.34-.34-.34-.34-.34-.34-.34-.34-.34-.34-.34-.34-.34-.34-.34-.34-.34-.34-.34-.34-.34-.34-.34-.34-.34-.34-.34L149,92.4l-.34-.34-.34-.34L148,91.4l-.34-.34-.34-.34-.34-.34-.34-.34-.34-.34-.34-.34L145.6,89l-.34-.34-.34-.34L144.6,88l-.34-.34-.34-.34-.34-.34-.34-.34-.34-.34-.34-.34-.34-.34-.34-.34-.34-.34-.34-.34-.34-.34-.34-.34-.34-.34-.34-.34-.34-.34-.34-.34-.34-.34-.34-.34-.34-.34-.34-.34-.34-.34-.34-.34-.34-.34-.34-.34-.34-.34-.34-.34-.34-.34-.34-.34-.34-.34-.34-.34-.34-.34-.34-.34-.34-.34-.34-.34-.34-.34-.34-.34-.34-.34-.34-.34-.34-.34-.34-.34-.34-.34-.34-.34-.34-.34-.34-.34-.34-.34-.34-.34-.34-.34-.34-.34-.34-.34-.34-.34-.34-.34-.34-.34-.34-.34-.34-.34-.34-.34-.34-.34-.34-.34-.34-.34-.34-.34-.34-.34a40,40,0,1,0-56.56,56.56l.34.34.34.34.34.34.34.34.34.34.34.34.34.34.34.34.34.34.34.34.34.34.34.34.34.34.34.34.34.34.34.34.34.34.34.34.34.34.34.34.34.34.34.34.34.34.34.34.34.34.34.34.34.34.34.34.34.34.34.34.34.34.34.34.34.34.34.34.34.34.34.34.34.34.34.34.34.34.34.34.34.34.34.34.34.34.34.34.34.34.34.34.34.34.34.34.34.34.34.34.34.34.34.34.34.34.34.34.34.34.34.34.34.34.34.34.34.34.34.34.34.34.34.34.34.34.34.34.34.34.34.34.34.34.34.34.34.34.34.34.34.34.34.34.34.34.34.34.34.34.34.34.34.34.34.34.34.34.34.34.34.34.34.34.34.34.34.34.34.34.34.34.34.34.34.34.34.34.34.34.34.34.34.34.34.34.34.34.34.34.34.34.34.34.34.34.34.34.34.34.34.34.34.34.34.34.34.34.34.34.34.34.34.34.34.34.34.34.34.34.34.34.34.34.34.34.34.34.34.34.34.34.34.34.34.34.34.34.34.34.34.34.34.34.34.34.34.34.34.34.34.34.34.34.34.34.34.34.34.34.34.34.34.34.34.34.34.34.34.34.34.34.34.34.34.34.34.34.34.34.34.34.34.34.34.34.34.34.34.34.34.34.34.34.34.34.34.34.34.34.34.34.34.34.34.34.34.34.34.34.34.34.34.34.34.34.34.34.34.34.34.34.34.34.34.34.34.34.2.2a88.21,88.21,0,0,0,56.56-56.56l-.2-.2Z"/></g><g id="shocked-3" data-name="shocked"><path class="cls-3" d="M136,96A40,40,0,1,1,96,56a40,40,0,0,1,40,40"/><path class="cls-4" d="M72.6,91.1a1.6,1.6,0,0,1-1.13-2.73L87.65,72.18a1.6,1.6,0,0,1,2.27,2.27L73.74,90.63a1.6,1.6,0,0,1-1.13.47Z"/><path class="cls-4" d="M88.79,91.1a1.6,1.6,0,0,1-1.13-.47L71.47,74.45a1.6,1.6,0,0,1,2.27-2.27L89.92,88.37a1.6,1.6,0,0,1-1.13,2.73Z"/><path class="cls-4" d="M103.21,91.1a1.6,1.6,0,0,1-1.13-2.73l16.18-16.18a1.6,1.6,0,0,1,2.27,2.27L104.35,90.63a1.6,1.6,0,0,1-1.13.47Z"/><path class="cls-4" d="M119.4,91.1a1.6,1.6,0,0,1-1.13-.47L102.08,74.45a1.6,1.6,0,0,1,2.27-2.27l16.18,16.18a1.6,1.6,0,0,1-1.13,2.73Z"/><path class="cls-5" d="M104.6,107.48H87.4a9.29,9.29,0,1,0,17.19,0Z"/><path class="cls-6" d="M104.59,107.48a8.81,8.81,0,0,0-.57-1.15l-.09-.15a9.44,9.44,0,0,0-1.58-1.95l-.16-.14a9.47,9.47,0,0,0-1-.77h0a9.18,9.18,0,0,0-1.06-.62l-.24-.12a9.39,9.39,0,0,0-1.12-.45h0a9.05,9.05,0,0,0-1.21-.28l-.3,0a8.35,8.35,0,0,0-2.55,0l-.3,0a9.05,9.05,0,0,0-1.21.28h0a9.61,9.61,0,0,0-1.12.45l-.24.12a9.23,9.23,0,0,0-1.06.62h0a9.1,9.1,0,0,0-1,.77l-.16.14a9.24,9.24,0,0,0-1.58,1.95l-.09.15a9.67,9.67,0,0,0-.57,1.15h17.19Z"/></g></g></g></svg>