<svg xmlns="http://www.w3.org/2000/svg" viewBox="0 0 192 192"><defs><style>.cls-1{fill:#ab47bc;}.cls-2,.cls-5{fill:#263238;}.cls-2{opacity:0.15;}.cls-3{fill:#ffca28;}.cls-4{fill:#00b0ff;}.cls-6{fill:#e53935;}.cls-7{fill:#fff;}</style></defs><title>tears-of-joy</title><g id="tears-of-joy"><g id="tears-of-joy-2" data-name="tears-of-joy"><circle id="label" class="cls-1" cx="96" cy="96" r="88"/><g id="shadow"><path class="cls-2" d="M179.19,122.63l-.34-.34-.34-.34-.34-.34-.34-.34-.34-.34-.34-.34-.34-.34-.34-.34-.34-.34-.34-.34-.34-.34-.34-.34-.34-.34-.34-.34-.34-.34-.34-.34-.34-.34-.34-.34-.34-.34-.34-.34-.34-.34-.34-.34-.34-.34-.34-.34-.34-.34-.34-.34-.34-.34-.34-.34-.34-.34-.34-.34-.34-.34-.34-.34-.34-.34-.34-.34-.34-.34-.34-.34-.34-.34-.34-.34-.34-.34-.34-.34-.34-.34-.34-.34-.34-.34-.34-.34-.34-.34-.34-.34-.34-.34-.34-.34-.34-.34-.34-.34-.34-.34-.34-.34-.34-.34-.34-.34-.34-.34-.34-.34-.34-.34-.34-.34-.34-.34-.34-.34-.34-.34-.34-.34-.34-.34-.34-.34-.34-.34-.34-.34-.34-.34-.34-.34-.34-.34-.34-.34-.34-.34-.34-.34-.34-.34-.34-.34-.34-.34-.34-.34-.34-.34-.34-.34-.34-.34-.34-.34-.34-.34-.34-.34-.34-.34-.34-.34-.34-.34-.34-.34-.34-.34-.34-.34-.34-.34L149,92.4l-.34-.34-.34-.34L148,91.4l-.34-.34-.34-.34-.34-.34-.34-.34-.34-.34-.34-.34L145.6,89l-.34-.34-.34-.34L144.6,88l-.34-.34-.34-.34-.34-.34-.34-.34-.34-.34-.34-.34-.34-.34-.34-.34-.34-.34-.34-.34-.34-.34-.34-.34-.34-.34-.34-.34-.34-.34-.34-.34-.34-.34-.34-.34-.34-.34-.34-.34-.34-.34-.34-.34-.34-.34-.34-.34-.34-.34-.34-.34-.34-.34-.34-.34-.34-.34-.34-.34-.34-.34-.34-.34-.34-.34-.34-.34-.34-.34-.34-.34-.34-.34-.34-.34-.34-.34-.34-.34-.34-.34-.34-.34-.34-.34-.34-.34-.34-.34-.34-.34-.34-.34-.34-.34-.34-.34-.34-.34-.34-.34-.34-.34-.34-.34-.34-.34-.34-.34-.34-.34-.34-.34-.34-.34-.34-.34-.34-.34a40,40,0,1,0-56.56,56.56l.34.34.34.34.34.34.34.34.34.34.34.34.34.34.34.34.34.34.34.34.34.34.34.34.34.34.34.34.34.34.34.34.34.34.34.34.34.34.34.34.34.34.34.34.34.34.34.34.34.34.34.34.34.34.34.34.34.34.34.34.34.34.34.34.34.34.34.34.34.34.34.34.34.34.34.34.34.34.34.34.34.34.34.34.34.34.34.34.34.34.34.34.34.34.34.34.34.34.34.34.34.34.34.34.34.34.34.34.34.34.34.34.34.34.34.34.34.34.34.34.34.34.34.34.34.34.34.34.34.34.34.34.34.34.34.34.34.34.34.34.34.34.34.34.34.34.34.34.34.34.34.34.34.34.34.34.34.34.34.34.34.34.34.34.34.34.34.34.34.34.34.34.34.34.34.34.34.34.34.34.34.34.34.34.34.34.34.34.34.34.34.34.34.34.34.34.34.34.34.34.34.34.34.34.34.34.34.34.34.34.34.34.34.34.34.34.34.34.34.34.34.34.34.34.34.34.34.34.34.34.34.34.34.34.34.34.34.34.34.34.34.34.34.34.34.34.34.34.34.34.34.34.34.34.34.34.34.34.34.34.34.34.34.34.34.34.34.34.34.34.34.34.34.34.34.34.34.34.34.34.34.34.34.34.34.34.34.34.34.34.34.34.34.34.34.34.34.34.34.34.34.34.34.34.34.34.34.34.34.34.34.34.34.34.34.34.34.34.34.34.34.34.34.34.34.34.34.34.2.2a88.21,88.21,0,0,0,56.56-56.56l-.2-.2Z"/></g><g id="tears-of-joy-3" data-name="tears-of-joy"><circle class="cls-3" cx="96" cy="96" r="40"/><path class="cls-4" d="M135.53,93.61c-3.65-2.89-10.06-4.46-15.48-6.09.66,5.63,1.1,12.21,3.31,16.31,3.25,6,8.68,7.66,13.44,3.66S140.9,97.86,135.53,93.61Z"/><path class="cls-4" d="M55.2,107.48c4.76,4,10.19,2.36,13.44-3.66,2.21-4.1,2.65-10.68,3.31-16.31-5.43,1.63-11.83,3.21-15.48,6.09C51.1,97.86,50.43,103.48,55.2,107.48Z"/><path class="cls-5" d="M88.34,84.92a1.66,1.66,0,0,1-1.66-1.66,5.68,5.68,0,1,0-11.36,0,1.66,1.66,0,0,1-3.32,0,9,9,0,1,1,18,0,1.66,1.66,0,0,1-1.66,1.66Z"/><path class="cls-5" d="M118.34,84.92a1.66,1.66,0,0,1-1.66-1.66,5.68,5.68,0,1,0-11.36,0,1.66,1.66,0,0,1-3.32,0,9,9,0,1,1,18,0,1.66,1.66,0,0,1-1.66,1.66Z"/><path class="cls-6" d="M119.13,100.92H72.87A20.14,20.14,0,0,1,72,96.66c.94,10.78,11.32,21.08,24,21.08s23.06-10.3,24-21.08A20,20,0,0,1,119.13,100.92Z"/><path class="cls-7" d="M119.53,101.38a20.35,20.35,0,0,0,.89-4.32l0-.22c0-.47.06-.93.06-1.4h-49c0,.47,0,.94.06,1.4l0,.21a20.49,20.49,0,0,0,.89,4.33Z"/></g></g></g></svg>